<svg xmlns="http://www.w3.org/2000/svg" baseProfile="full" width="101" height="171">
 <radialGradient id="a" cx="49.982" cy="133.131" r="23.251" gradientUnits="userSpaceOnUse">
  <stop offset="0" stop-opacity=".463"/>
  <stop offset=".648" stop-opacity=".231"/>
  <stop offset="1" stop-opacity="0"/>
 </radialGradient>
 <ellipse fill="url(#a)" cx="49.982" cy="133.131" rx="23.209" ry="18.22"/>
 <path stroke-width="2.172" stroke-linejoin="round" stroke="#000" d="M50.727 126.227c6.342 0 11.484 2.616 11.484 5.843s-5.142 5.842-11.484 5.842c-6.343 0-11.484-2.615-11.484-5.842 0-3.227 5.141-5.843 11.484-5.843z"/>
 <radialGradient id="b" cx="51.021" cy="123.142" r="22.256" gradientUnits="userSpaceOnUse">
  <stop offset="0" stop-color="#88A8F2" stop-opacity=".996"/>
  <stop offset=".514" stop-color="#4F73B5" stop-opacity=".996"/>
  <stop offset=".996" stop-color="#173F78" stop-opacity=".996"/>
 </radialGradient>
 <path fill="url(#b)" stroke-width=".814" stroke-linejoin="round" stroke="#263627" d="M51.021 116.008c9.183 0 16.628 4.996 16.628 11.159 0 6.162-7.799 8.095-16.982 8.095s-16.274-1.933-16.274-8.095c0-6.163 7.445-11.159 16.628-11.159z"/>
 <path fill="#980A79" stroke-width="1.005" stroke-linejoin="round" stroke="#690654" d="M17.479 98.839c-1.621 7.668 4.893 13.326 2.771 15.56 2.122.335 5.716-3.499 5.716-3.499l1.675-20.772c-3.499 2.792-8.541 1.042-10.162 8.71zm65.853 0c1.622 7.668-4.893 13.326-2.771 15.56-2.122.335-5.716-3.499-5.716-3.499L73.17 90.128c3.499 2.792 8.541 1.042 10.162 8.71z"/>
 <radialGradient id="c" cx="50.976" cy="77.449" r="49.63" gradientUnits="userSpaceOnUse" gradientTransform="rotate(90 50.976 77.449)">
  <stop offset="0" stop-color="#FFFAE8" stop-opacity=".996"/>
  <stop offset=".14" stop-color="#FEB" stop-opacity=".996"/>
  <stop offset=".603" stop-color="#E5C699"/>
  <stop offset=".788" stop-color="#CB9F77"/>
  <stop offset=".928" stop-color="#B77C5C"/>
  <stop offset="1" stop-color="#A45A42"/>
 </radialGradient>
 <path fill="url(#c)" stroke-width="1.005" stroke-linejoin="round" stroke="#44301E" d="M50.3 68.317c17.455 0 31.605 13.526 31.605 30.21 0 16.685-13.827 26.208-31.28 26.208-17.455 0-31.928-9.523-31.928-26.208 0-16.684 14.15-30.21 31.604-30.21z"/>
 <path fill="#673902" fill-opacity=".443" d="M81.3 101.603c-8.04-8.636-11.167-13.699-16.316-15.511-5.553 5.61-18.173 12.087-27.666 15.214-10.675 3.516-16.179 1.325-17.182 4.643-.894-2.625-3.287-16.05 4.411-20.202 7.698-4.153 18.233-5.572 19.347-5.572 1.114 0 27.35.203 27.35.203S82.11 92.082 81.3 101.603z"/>
 <path fill="#860000" stroke-width=".718" stroke-linejoin="round" stroke="#640000" d="M47.617 115.515s6.338.029 6.56 0c0 0-1.21 1.895-3.28 1.895-2.063 0-3.28-1.895-3.28-1.895z"/>
 <linearGradient id="d" gradientUnits="objectBoundingBox" x1=".484" y1=".072" x2="1.38" y2=".072" gradientTransform="rotate(88.724 .484 .072)">
  <stop offset="0" stop-color="#232531" stop-opacity=".996"/>
  <stop offset="1" stop-color="#78B05E" stop-opacity=".996"/>
 </linearGradient>
 <path fill="url(#d)" stroke-width=".452" stroke-linejoin="round" stroke="#000" d="M68.629 101.765c2.16 0 3.913 1.712 3.913 3.823 0 2.111-1.752 3.822-3.913 3.822-2.162 0-4.016-.811-3.914-2.919.155-3.217 1.752-4.726 3.913-4.726z"/>
 <path d="M68.495 102.962c1.48 0 2.68 1.158 2.68 2.587 0 1.429-1.2 2.588-2.68 2.588-1.48 0-2.68-1.159-2.68-2.588s1.2-2.587 2.68-2.587z"/>
 <path fill="#FFF" d="M66.674 103.13a.96.96 0 110 1.921.96.96 0 010-1.921z"/>
 <path fill="#532A4B" d="M72.954 97.311c.262.106-2.456-1.206-4.212-1.576-1.954-.41-4.383.043-4.383.043s1.428-2.397 5.14-1.52c1.08.254 2.38 1.36 3.455 3.053z"/>
 <path d="M68.338 101.599c.026-.141 6.165.646 5.788-2.289.678.401 1.488 3.269.133 3.269-1.005.186-6.984-1.126-8.422.414.865-.87 1.828-1.159 2.501-1.394z"/>
 <linearGradient id="e" gradientUnits="objectBoundingBox" x1=".5" y1=".019" x2="1.508" y2=".019" gradientTransform="rotate(90.85 .5 .019)">
  <stop offset="0" stop-color="#232531" stop-opacity=".996"/>
  <stop offset="1" stop-color="#78B05E" stop-opacity=".996"/>
 </linearGradient>
 <path fill="url(#e)" stroke-width=".452" stroke-linejoin="round" stroke="#000" d="M31.72 101.765c-2.16 0-3.913 1.712-3.913 3.823 0 2.111 1.752 3.822 3.914 3.822 2.16 0 4.015-.811 3.913-2.919-.155-3.217-1.752-4.726-3.913-4.726z"/>
 <path d="M31.854 102.962c-1.48 0-2.68 1.158-2.68 2.587 0 1.429 1.2 2.588 2.68 2.588 1.48 0 2.68-1.159 2.68-2.588s-1.2-2.587-2.68-2.587z"/>
 <path fill="#FFF" d="M30.057 103.13a.96.96 0 100 1.921.96.96 0 000-1.921z"/>
 <path fill="#6E4A29" d="M27.395 97.311c-.262.106 2.456-1.206 4.212-1.576 1.954-.41 4.384.043 4.384.043s-1.43-2.397-5.14-1.52c-1.081.254-2.38 1.36-3.456 3.053z"/>
 <path d="M32.011 101.599c-.026-.141-6.165.646-5.788-2.289-.678.401-1.488 3.269-.133 3.269 1.005.186 6.984-1.126 8.422.414-.865-.87-1.828-1.159-2.501-1.394z"/>
 <path fill="#C80FA0" stroke-width="1.005" stroke-linejoin="round" stroke="#780066" d="M80.407 99.072c2.457 4.765 9.713-.345 7.182-4.738.447 1.936-1.171 3.107-2.085 2.532-2.01-1.266-.71-2.951-3.5-10.647-2.788-7.695-11.09-23.814-31.83-23.414-21.246.41-30.817 17.505-32.279 29.567-1.461 12.062-.369 4.498-.7 5.462-.41 1.19-1.34 2.531-3.537 1.972 5.286 7.446 27.686-2.063 34.381-5.201 7.148-3.35 15.859-9.38 17.66-11.07 2.126.498 9.794 7.645 14.708 15.537z"/>
 <path fill="#ED94EC" fill-opacity=".369" d="M50.077 64.037c9.22-.265 21.593 1.563 30 18.682-3.107-2.465-11.748-9.826-29.881-9.826-18.132 0-25.748 6.648-28.362 8.61 6.584-13.776 21.319-17.466 28.243-17.466z"/>
 <radialGradient id="f" cx="66.652" cy="115.182" r="6.232" gradientUnits="userSpaceOnUse" gradientTransform="rotate(187.505 66.652 115.182)">
  <stop offset="0" stop-color="#F73939" stop-opacity=".502"/>
  <stop offset=".384" stop-color="#D35447" stop-opacity=".255"/>
  <stop offset="1" stop-color="#B06F55" stop-opacity="0"/>
 </radialGradient>
 <path fill="url(#f)" d="M64.93 111.598c-3.428 1.647-5.437 4.587-4.486 6.566.95 1.98 4.5 2.249 7.93.602 3.428-1.646 5.437-4.586 4.487-6.566-.951-1.979-4.502-2.249-7.93-.602z"/>
 <radialGradient id="g" cx="34.365" cy="115.182" r="5.973" gradientUnits="userSpaceOnUse" gradientTransform="rotate(-7.505 34.365 115.182)">
  <stop offset="0" stop-color="#F73939" stop-opacity=".502"/>
  <stop offset=".595" stop-color="#D35447" stop-opacity=".255"/>
  <stop offset="1" stop-color="#B06F55" stop-opacity="0"/>
 </radialGradient>
 <path fill="url(#g)" d="M36.015 111.747c3.286 1.578 5.212 4.396 4.3 6.293-.91 1.897-4.314 2.156-7.6.577-3.286-1.578-5.212-4.396-4.3-6.293.91-1.897 4.314-2.155 7.6-.577z"/>
 <radialGradient id="h" cx="68.421" cy="76.687" r="8.164" gradientUnits="userSpaceOnUse" gradientTransform="rotate(-68.06 68.42 76.687)">
  <stop offset=".384" stop-opacity=".486"/>
  <stop offset="1" stop-color="#B06F55" stop-opacity="0"/>
 </radialGradient>
 <path fill="url(#h)" d="M60.762 70.83c2.361-3.087 7.704-2.968 11.933.266 4.23 3.234 5.745 8.359 3.384 11.447-2.36 3.087-7.704 2.969-11.933-.266-4.23-3.234-5.745-8.359-3.384-11.446z"/>
 <g stroke-linejoin="round">
  <path fill="#476E30" stroke-width=".498" stroke="#202E18" d="M72.355 78.105c.768.434.316 1.493-.976 1.004-1.292-.489-2.162-1.418-1.943-2.076.219-.658 1.444-.795 2.736-.306 1.291.489 1.106 1.583.183 1.378z"/>
  <path fill="#476E30" stroke-width=".498" stroke="#1D2916" d="M67.005 80.73c-.385.684-1.44-.295-1.048-1.47.39-1.174 1.293-1.905 2.017-1.63.723.273.993 1.447.602 2.622-.39 1.175-1.697 1.332-1.57.478z"/>
  <path fill="#476E30" stroke-width=".498" stroke="#192213" d="M63.873 75.008c-.768-.434.082-1.39 1.374-.901 1.292.489 2.162 1.418 1.944 2.076-.22.658-1.444.795-2.736.306-1.292-.489-1.505-1.687-.582-1.481z"/>
  <path fill="#476E30" stroke-width=".498" stroke="#1B2714" d="M69.708 72.372c.386-.684 1.353.409.962 1.584-.39 1.174-1.294 1.905-2.017 1.631-.724-.274-.994-1.448-.603-2.623.39-1.174 1.784-1.446 1.658-.592z"/>
  <path fill="#FFF" stroke-width=".434" stroke="#000" stroke-opacity=".404" d="M70.919 81.565c.365 1.068-1.067 1.554-1.928-.035-.86-1.589-.83-3.174.07-3.541.9-.367 2.328.624 3.189 2.212.86 1.59-.57 2.376-1.331 1.364zM63.2 78.648c-1.103.238-1.673-1.24-.066-1.895s3.3-.465 3.783.425c.482.89-.43 2.142-2.037 2.797-1.607.655-2.683-.708-1.68-1.327zm2.736-6.76c-.365-1.068.839-1.79 1.7-.202.86 1.589.829 3.174-.071 3.541-.9.367-2.327-.624-3.188-2.212-.861-1.59.798-2.139 1.56-1.127zm7.491 2.68c1.102-.238 1.672 1.24.066 1.895-1.608.655-3.301.465-3.783-.425-.482-.89.43-2.142 2.037-2.797 1.607-.655 2.682.708 1.68 1.327z"/>
  <path fill="#FFF" stroke-width=".434" stroke="#000" stroke-opacity=".404" d="M70.48 77.365c-.359 1.076-1.608 1.586-2.791 1.138-1.184-.448-1.853-1.683-1.495-2.76.357-1.075 1.607-1.585 2.79-1.137 1.184.448 1.853 1.683 1.495 2.76z"/>
 </g>
 <path fill="#FFF" fill-opacity=".251" d="M66.732 69.85c-3.871-1.191-16.007-3.946-27.696 5.882-7.5 6.305-8.264 22.037-16.528 24.345 4.542-3.573 4.69-19.953 15.71-28.142 8.951-6.654 19.506-5.361 28.514-2.085z"/>
 <path fill="#FFF" fill-opacity=".302" d="M66.732 69.85c-3.871-1.191-21.441-5.972-33.391 3.536-12.21 9.716-7.594 25.388-15.858 27.696 4.541-3.573-.931-17.31 13.699-29.147 8.67-7.016 26.542-5.361 35.55-2.085z"/>
 <radialGradient id="i" cx="35.427" cy="76.869" r="2.222" gradientUnits="userSpaceOnUse" gradientTransform="rotate(-105.355 35.427 76.869)">
  <stop offset="0" stop-color="#FEFFEF" stop-opacity=".486"/>
  <stop offset="1" stop-color="#FFF" stop-opacity="0"/>
 </radialGradient>
 <path fill="url(#i)" d="M34.172 75.91c1.906-2.494 4.013-4.085 4.707-3.556.693.53-.29 2.981-2.197 5.474-1.907 2.493-4.014 4.085-4.707 3.555-.693-.53.29-2.98 2.197-5.474z"/>
 <radialGradient id="j" cx="26.239" cy="79.186" r="2.612" gradientUnits="userSpaceOnUse" gradientTransform="rotate(-108.905 26.239 79.186)">
  <stop offset="0" stop-color="#FEFFEF" stop-opacity=".486"/>
  <stop offset="1" stop-color="#FFF" stop-opacity="0"/>
 </radialGradient>
 <path fill="url(#j)" d="M24.962 78.48c1.517-2.746 3.32-4.658 4.025-4.268.705.39.047 2.933-1.47 5.68-1.518 2.747-3.32 4.658-4.026 4.269-.705-.39-.047-2.933 1.47-5.68z"/>
</svg>
