<svg xmlns="http://www.w3.org/2000/svg" baseProfile="full" width="101" height="171">
 <radialGradient id="a" cx="49.982" cy="133.131" r="23.251" gradientUnits="userSpaceOnUse">
  <stop offset="0" stop-opacity=".463"/>
  <stop offset=".648" stop-opacity=".231"/>
  <stop offset="1" stop-opacity="0"/>
 </radialGradient>
 <ellipse fill="url(#a)" cx="49.982" cy="133.131" rx="23.209" ry="18.22"/>
 <path stroke-width="2.172" stroke-linejoin="round" stroke="#000" d="M50.727 126.227c6.342 0 11.484 2.616 11.484 5.843s-5.142 5.842-11.484 5.842c-6.343 0-11.484-2.615-11.484-5.842 0-3.227 5.141-5.843 11.484-5.843z"/>
 <radialGradient id="b" cx="50.57" cy="122.776" r="21.595" gradientUnits="userSpaceOnUse">
  <stop offset="0" stop-color="#4D457A" stop-opacity=".996"/>
  <stop offset=".996" stop-color="#17181F" stop-opacity=".996"/>
 </radialGradient>
 <path fill="url(#b)" stroke-width=".955" stroke-linejoin="round" stroke="#050705" d="M50.57 115.854c8.91 0 16.134 4.848 16.134 10.827 0 5.98-7.567 7.855-16.477 7.855-8.911 0-15.791-1.875-15.791-7.855 0-5.979 7.223-10.827 16.134-10.827z"/>
 <path fill="#778279" stroke-width=".955" stroke-linejoin="round" stroke="#000" d="M65.283 118.959s1.248.601 1.38 2.583c.212 3.211-5.525 9.517-16.135 9.155-7.253-.248-12.1-1.946-14.648-7.174-.887-1.821-4.705-3.715-7.253-2.158-2.547 1.557-11.464 3.008-15.71.602-2.634-1.401-6.067-3.293-5.465-4.798.302-.251 6.794-3.113 7.218-3.113.666 2.572 9.57 5.752 11.834 4.62 2.265-1.132 2.265-1.981 5.661-1.415"/>
 <path fill="#BBD5BF" stroke-width=".955" stroke-linejoin="round" stroke="#47300E" d="M35.243 119.348c.88 0 1.593.761 1.593 1.699 0 .938-1.239 3.679-2.406 2.476-.633-.651-.779-1.538-.779-2.476s.713-1.699 1.592-1.699z"/>
 <radialGradient id="c" cx="50.478" cy="78.903" r="47.172" gradientUnits="userSpaceOnUse" gradientTransform="rotate(90 50.478 78.903)">
  <stop offset="0" stop-color="#FFFAE8" stop-opacity=".996"/>
  <stop offset=".14" stop-color="#FEB" stop-opacity=".996"/>
  <stop offset=".603" stop-color="#E5C699"/>
  <stop offset=".788" stop-color="#CB9F77"/>
  <stop offset=".928" stop-color="#B77C5C"/>
  <stop offset="1" stop-color="#A45A42"/>
 </radialGradient>
 <path fill="url(#c)" stroke-width=".955" stroke-linejoin="round" stroke="#44301E" d="M49.836 70.224c16.59 0 30.038 12.855 30.038 28.713 0 15.859-13.14 24.91-29.73 24.91s-30.346-9.051-30.346-24.91c0-15.858 13.449-28.713 30.038-28.713z"/>
 <path fill="#673902" fill-opacity=".443" d="M79.365 105.196c-3.43-7.105-5.626-9.553-8.386-11.146-2.76-1.592-13.799-5.413-20.062 2.23-2.569 3.326 2.448 3.807-19.212-4.353-4.458 3.397-5.732 6.37-10.19 16.878-.849-2.495 4.162-24.88 4.162-24.88s17.33 4.257 18.388 4.257c1.06 0 25.995.192 25.995.192s10.075 7.772 9.305 16.822z"/>
 <path fill="#A65846" stroke-width=".683" stroke-linejoin="round" stroke="#894030" d="M47.285 115.084s6.025.027 6.236 0c0 0-1.15 1.801-3.118 1.801-1.96 0-3.118-1.801-3.118-1.801z"/>
 <linearGradient id="d" gradientUnits="objectBoundingBox" x1=".5" y1=".019" x2="1.508" y2=".019" gradientTransform="rotate(90.85 .5 .019)">
  <stop offset="0" stop-color="#232531" stop-opacity=".996"/>
  <stop offset="1" stop-color="#7976BC" stop-opacity=".996"/>
 </linearGradient>
 <path fill="url(#d)" stroke-width=".429" stroke-linejoin="round" stroke="#000" d="M32.176 102.015c-2.054 0-3.72 1.627-3.72 3.633 0 2.007 1.666 3.633 3.72 3.633 2.055 0 3.816-.77 3.72-2.774-.147-3.058-1.665-4.492-3.72-4.492z"/>
 <path d="M32.303 103.153c-1.407 0-2.547 1.101-2.547 2.459s1.14 2.459 2.547 2.459c1.407 0 2.548-1.101 2.548-2.459s-1.14-2.459-2.548-2.459z"/>
 <path fill="#FFF" d="M30.595 103.313a.913.913 0 100 1.825.913.913 0 000-1.825z"/>
 <path fill="#6E4A29" d="M28.065 97.782c-.248.1 2.334-1.147 4.004-1.498 1.857-.39 4.166.04 4.166.04s-1.358-2.278-4.885-1.445c-1.028.243-2.262 1.294-3.285 2.903z"/>
 <path d="M32.452 101.857c-.024-.134-5.859.614-5.501-2.175-.644.381-1.414 3.106-.126 3.106.955.177 6.638-1.07 8.005.394-.823-.827-1.738-1.101-2.378-1.325z"/>
 <path fill="#BBD5BF" stroke-width=".955" stroke-linejoin="round" stroke="#474441" d="M78.433 101.726c.224 4.664-7.773 16.269 1.674 9.688-2.83-.495-1.436-1.588-1.026-2.698 2.873-7.769 5.194-17.475 2.64-25.368-3.502-10.827-15.178-21.23-31.843-21.23-15.18 0-27.386 8.705-31.42 23.034-2.683 9.535 1.571 20.433 2.88 22.874.518.965-.212 3.768-2.653 3.184 12.348 6.811-2.23-9.128 10.042-19.019.18-.144 4.782 5.453 12.054 8.033 4.387 1.557 11.393 2.725 15.85-3.538-3.042.566-4.422.248-3.697-2.229 1.221-3.043 9.406-5.958 15.798-3.184 2.041.886 9.854 4.927 9.701 10.453z"/>
 <radialGradient id="e" cx="65.377" cy="114.768" r="5.923" gradientUnits="userSpaceOnUse" gradientTransform="rotate(187.504 65.377 114.768)">
  <stop offset="0" stop-color="#F73939" stop-opacity=".502"/>
  <stop offset=".384" stop-color="#D35447" stop-opacity=".255"/>
  <stop offset="1" stop-color="#B06F55" stop-opacity="0"/>
 </radialGradient>
 <path fill="url(#e)" d="M63.74 111.361c-3.258 1.565-5.168 4.359-4.264 6.241.904 1.881 4.278 2.138 7.537.572 3.26-1.565 5.168-4.359 4.265-6.241-.904-1.881-4.278-2.137-7.537-.572z"/>
 <radialGradient id="f" cx="34.69" cy="114.767" r="5.677" gradientUnits="userSpaceOnUse" gradientTransform="rotate(-7.505 34.69 114.767)">
  <stop offset="0" stop-color="#F73939" stop-opacity=".502"/>
  <stop offset=".595" stop-color="#D35447" stop-opacity=".255"/>
  <stop offset="1" stop-color="#B06F55" stop-opacity="0"/>
 </radialGradient>
 <path fill="url(#f)" d="M36.258 111.502c3.124 1.501 4.954 4.179 4.087 5.982-.866 1.803-4.1 2.049-7.223.548-3.124-1.5-4.954-4.178-4.088-5.981.866-1.803 4.1-2.049 7.224-.549z"/>
 <path fill-opacity=".231" d="M69.868 91.123s3.659-12.145-17.889-17.134c19.743 0 25.302 13.616 25.302 14.162.637-11.623-6.28-20.946-11.375-22.361 6.51 3.68 25.294 14.108 12.556 44.394-.318-1.857 3.634-11.907-8.594-19.061z"/>
 <path fill="#270909" fill-opacity=".325" d="M52.085 100.525s-12.737 2.654-23.246-13.693c-2.866-4.528 2.664-20.814 7.759-22.229-6.51 3.68-27.042 12.641-15.472 43.954.673-1.343 3.86-15.66 8.032-16.417 1.167 4.245 18.097 13.308 22.927 8.385z"/>
 <path fill-opacity=".231" d="M55.376 91.68c-3.884 1.619-4.034 6.227.743 5.272-10.403 6.581-18.576-6.9-18.364-12.738.213-5.838-.106-7.536 1.062-9.285 1.698 13 5.626 17.67 16.559 16.752z"/>
 <path fill="#1A2047" stroke-width=".955" stroke-linejoin="round" stroke="#020307" d="M83.55 89.485c-5.667-36.831-60.438-37.574-66.554-.601 9.937-15.001 56.96-13.94 66.553.601z"/>
 <radialGradient id="g" cx="50.609" cy="67.832" r="16.278" gradientUnits="userSpaceOnUse">
  <stop offset="0" stop-color="#FFF" stop-opacity=".259"/>
  <stop offset="1" stop-color="#FFF" stop-opacity="0"/>
 </radialGradient>
 <ellipse fill="url(#g)" cx="50.609" cy="67.832" rx="15.497" ry="4.741"/>
 <linearGradient id="h" gradientUnits="objectBoundingBox" x1=".484" y1=".072" x2="1.38" y2=".072" gradientTransform="rotate(88.725 .484 .072)">
  <stop offset="0" stop-color="#232531" stop-opacity=".996"/>
  <stop offset="1" stop-color="#7976BC" stop-opacity=".996"/>
 </linearGradient>
 <path fill="url(#h)" stroke-width=".429" stroke-linejoin="round" stroke="#000" d="M67.256 102.015c2.054 0 3.72 1.627 3.72 3.633 0 2.007-1.666 3.633-3.72 3.633-2.054 0-3.816-.77-3.72-2.774.148-3.058 1.666-4.492 3.72-4.492z"/>
 <path d="M67.13 103.153c1.406 0 2.547 1.101 2.547 2.459s-1.14 2.459-2.548 2.459c-1.407 0-2.547-1.101-2.547-2.459s1.14-2.459 2.547-2.459z"/>
 <path fill="#FFF" d="M65.398 103.313a.913.913 0 11.001 1.825.913.913 0 01-.001-1.825z"/>
 <path fill="#6E4A29" d="M71.367 97.782c.249.1-2.334-1.147-4.003-1.498-1.857-.39-4.166.04-4.166.04s1.358-2.278 4.885-1.445c1.027.243 2.262 1.294 3.284 2.903z"/>
 <path d="M66.98 101.857c.024-.134 5.86.614 5.502-2.175.644.381 1.413 3.106.126 3.106-.956.177-6.639-1.07-8.005.394.822-.827 1.738-1.101 2.377-1.325z"/>
 <linearGradient id="i" gradientUnits="objectBoundingBox" x1=".284" y1=".074" x2="1.023" y2=".074" gradientTransform="rotate(70.212 .284 .074)">
  <stop offset="0" stop-color="#536ED7"/>
  <stop offset="1" stop-color="#191F47" stop-opacity=".996"/>
 </linearGradient>
 <path fill="url(#i)" stroke-width=".955" stroke-linejoin="round" stroke="#010205" d="M31.463 73.636s-6.864-1.203-6.085-6.58c-4.246 2.972-3.75 10.755-1.698 12.949"/>
 <linearGradient id="j" gradientUnits="objectBoundingBox" x1=".355" y1="-.032" x2="1.405" y2="-.032" gradientTransform="rotate(88.246 .355 -.032)">
  <stop offset="0" stop-color="#98D4FF" stop-opacity=".302"/>
  <stop offset="1" stop-color="#B06F55" stop-opacity="0"/>
 </linearGradient>
 <path fill="url(#j)" d="M24.563 68.859s-2.636 4.175-.213 9.96c1.398.336 2.212-1.186 2.212-1.186s-1.77-2.016-2.053-3.998c-.282-1.981.054-4.847.054-4.776z"/>
 <linearGradient id="k" gradientUnits="objectBoundingBox" x1="0" y1=".494" x2="1.039" y2=".494">
  <stop offset="0" stop-color="#98ADFF"/>
  <stop offset="1" stop-color="#B06F55" stop-opacity="0"/>
 </linearGradient>
 <path fill="url(#k)" d="M24.828 69.212s.07 3.928 4.812 6.086c.778-.354.53-.708.53-.708s-1.858-.916-3.22-1.981c-1.627-1.274-2.122-3.467-2.122-3.397z"/>
 <linearGradient id="l" gradientUnits="objectBoundingBox" x1=".716" y1=".074" x2="1.454" y2=".074" gradientTransform="rotate(109.788 .716 .074)">
  <stop offset="0" stop-color="#5974DF"/>
  <stop offset="1" stop-color="#191F47" stop-opacity=".996"/>
 </linearGradient>
 <path fill="url(#l)" stroke-width=".955" stroke-linejoin="round" stroke="#010205" d="M69.735 73.636s6.864-1.203 6.085-6.58c4.246 2.972 3.751 10.755 1.699 12.949"/>
 <linearGradient id="m" gradientUnits="objectBoundingBox" x1=".645" y1="-.032" x2="1.695" y2="-.032" gradientTransform="rotate(91.754 .645 -.032)">
  <stop offset="0" stop-color="#FFF" stop-opacity=".302"/>
  <stop offset=".4" stop-color="#D7B7AA" stop-opacity=".153"/>
  <stop offset="1" stop-color="#B06F55" stop-opacity="0"/>
 </linearGradient>
 <path fill="url(#m)" d="M76.636 68.859s2.636 4.175.212 9.96c-1.397.336-2.211-1.186-2.211-1.186s1.769-2.016 2.052-3.998c.283-1.981-.053-4.847-.053-4.776z"/>
 <linearGradient id="n" gradientUnits="objectBoundingBox" x1="1" y1=".494" x2="2.039" y2=".494" gradientTransform="rotate(180 1 .494)">
  <stop offset="0" stop-color="#98ADFF"/>
  <stop offset="1" stop-color="#B06F55" stop-opacity="0"/>
 </linearGradient>
 <path fill="url(#n)" d="M76.37 69.212s-.07 3.928-4.812 6.086c-.778-.354-.53-.708-.53-.708s1.859-.916 3.22-1.981c1.627-1.274 2.123-3.467 2.123-3.397z"/>
 <radialGradient id="p" cx="50.985" cy="67.262" r="5.58" gradientUnits="userSpaceOnUse">
  <stop offset=".015" stop-color="#AE54AB"/>
  <stop offset=".653" stop-color="#572A55"/>
  <stop offset=".985" stop-opacity=".996"/>
 </radialGradient>
 <radialGradient id="o" cx="50.985" cy="67.262" r="5.58" gradientUnits="userSpaceOnUse">
  <stop offset=".015" stop-color="#FFF"/>
  <stop offset=".985" stop-color="#D7D7D7" stop-opacity=".996"/>
 </radialGradient>
 <path fill="url(#o)" stroke-width=".479" stroke-linejoin="round" stroke="url(#p)" d="M50.586 64.213l-2.568 2.558-4.77.704 3.183 2.285-.38 2.993 4.535-1.146 4.535 1.146-.38-2.993 3.182-2.285-4.77-.704-2.567-2.558z"/>
 <linearGradient id="q" gradientUnits="objectBoundingBox" x1=".175" y1=".296" x2="1.154" y2=".296" gradientTransform="rotate(8.653 .175 .296)">
  <stop offset=".226" stop-color="#FFF"/>
  <stop offset=".548" stop-color="#FFF" stop-opacity=".502"/>
  <stop offset="1" stop-color="#FFF" stop-opacity="0"/>
 </linearGradient>
 <path fill="url(#q)" d="M14.387 115.188c.701 2.13 8.154 3.966 9.375 4.39 1.22.425 2.477.124 3.22-.354-.85.637-2.69 2.415-2.848 2.84-.69.212-10.596 1.616-14.983-4.045.955-.743 4.239-1.497 5.236-2.831z"/>
 <path fill="#4C4C4C" d="M37.119 122.285s17.549 5.307 29.013-1.433c1.521 2.981-6.157 10.447-16.488 9.456-8.979-.861-10.685-3.185-12.172-5.024 2.088 1.627 7.59 3.264 13.375 2.149 5.785-1.114 2.81-1.884 1.592-1.804-8.42.548-15.373-3.344-15.32-3.344z"/>
</svg>
