<svg xmlns="http://www.w3.org/2000/svg" baseProfile="full" width="101" height="171">
 <radialGradient id="a" cx="49.982" cy="133.131" r="23.251" gradientUnits="userSpaceOnUse">
  <stop offset="0" stop-opacity=".463"/>
  <stop offset=".648" stop-opacity=".231"/>
  <stop offset="1" stop-opacity="0"/>
 </radialGradient>
 <ellipse fill="url(#a)" cx="49.982" cy="133.131" rx="23.209" ry="18.22"/>
 <path stroke-width="2.172" stroke-linejoin="round" stroke="#000" d="M50.727 126.227c6.342 0 11.484 2.616 11.484 5.843s-5.142 5.842-11.484 5.842c-6.343 0-11.484-2.615-11.484-5.842 0-3.227 5.141-5.843 11.484-5.843z"/>
 <path fill="#3C4582" stroke-width=".984" stroke-linejoin="round" stroke="#1B1F3D" d="M17.965 98.263c-1.587 7.507 4.79 13.046 2.713 15.232 2.077.328 5.595-3.425 5.595-3.425l1.64-20.333c-3.425 2.733-8.361 1.02-9.948 8.526zm64.462 0c1.587 7.507-4.79 13.046-2.713 15.232-2.077.328-5.595-3.425-5.595-3.425l-1.64-20.333c3.426 2.733 8.362 1.02 9.948 8.526z"/>
 <radialGradient id="b" cx="50.849" cy="122.51" r="22.241" gradientUnits="userSpaceOnUse">
  <stop offset="0" stop-color="#67A2B5" stop-opacity=".996"/>
  <stop offset="1" stop-color="#214753" stop-opacity=".996"/>
 </radialGradient>
 <path fill="url(#b)" stroke-width=".984" stroke-linejoin="round" stroke="#263336" d="M50.85 115.381c9.176 0 16.615 4.993 16.615 11.151 0 6.158-7.793 8.089-16.97 8.089-9.176 0-16.262-1.931-16.262-8.089s7.44-11.151 16.616-11.151z"/>
 <path fill="#FFC800" stroke-width=".984" stroke-linejoin="round" stroke="#A94213" d="M58.55 122.27a1.257 1.257 0 01.019 2.514l.036.301a1.257 1.257 0 01-1.614 1.206l.001.051a1.257 1.257 0 01-1.695 1.179 1.257 1.257 0 01-2.215.755 1.258 1.258 0 01-2.328.18 1.257 1.257 0 01-2.318-.088 1.257 1.257 0 01-2.128-.842 1.257 1.257 0 01-1.68-1.235 1.257 1.257 0 01-1.577-1.507 1.257 1.257 0 111.239-.956 1.257 1.257 0 011.237 1.308 1.257 1.257 0 011.612 1.143 1.258 1.258 0 011.602.743 1.258 1.258 0 012 .349 1.257 1.257 0 012.1-.284 1.258 1.258 0 011.638-.803 1.257 1.257 0 011.613-1.148l-.002-.051c0-.688.553-1.247 1.24-1.257l-.037-.301c0-.694.563-1.257 1.257-1.257z"/>
 <radialGradient id="c" cx="50.855" cy="132.245" r="10.836" gradientUnits="userSpaceOnUse" gradientTransform="rotate(251.325 50.855 132.245)">
  <stop offset="0" stop-color="#EFFF00" stop-opacity=".776"/>
  <stop offset="1" stop-color="#FFF" stop-opacity="0"/>
 </radialGradient>
 <path fill="url(#c)" d="M41.018 131.526c.413-5.641 5.151-9.891 10.583-9.494 5.433.397 9.502 5.292 9.09 10.932-.413 5.641-5.151 9.891-10.583 9.494-5.433-.398-9.502-5.292-9.09-10.932z"/>
 <ellipse fill="#3F009F" stroke-width=".802" stroke-linejoin="round" stroke="#895F13" cx="50.761" cy="131.972" rx="3.919" ry="4.097"/>
 <linearGradient id="d" gradientUnits="objectBoundingBox" x1=".503" y1=".055" x2="1.374" y2=".055" gradientTransform="rotate(90 .503 .055)">
  <stop offset="0" stop-color="#FF497C"/>
  <stop offset="1" stop-color="#930404"/>
 </linearGradient>
 <ellipse fill="url(#d)" stroke-width=".671" stroke-linejoin="round" stroke="#FFC800" cx="50.761" cy="131.972" rx="3.28" ry="3.429"/>
 <radialGradient id="e" cx="50.755" cy="77.326" r="48.581" gradientUnits="userSpaceOnUse" gradientTransform="rotate(90 50.755 77.326)">
  <stop offset="0" stop-color="#FFFAE8" stop-opacity=".996"/>
  <stop offset=".14" stop-color="#FEB" stop-opacity=".996"/>
  <stop offset=".603" stop-color="#E5C699"/>
  <stop offset=".788" stop-color="#CB9F77"/>
  <stop offset=".928" stop-color="#B77C5C"/>
  <stop offset="1" stop-color="#A45A42"/>
 </radialGradient>
 <path fill="url(#e)" stroke-width=".984" stroke-linejoin="round" stroke="#44301E" d="M50.094 68.387c17.085 0 30.935 13.24 30.935 29.572s-13.533 25.654-30.619 25.654c-17.085 0-31.252-9.322-31.252-25.654s13.85-29.572 30.936-29.572z"/>
 <linearGradient id="f" gradientUnits="objectBoundingBox" x1=".5" y1=".019" x2="1.508" y2=".019" gradientTransform="rotate(90.85 .5 .019)">
  <stop offset="0" stop-color="#312823" stop-opacity=".996"/>
  <stop offset="1" stop-color="#7F6151" stop-opacity=".996"/>
 </linearGradient>
 <path fill="url(#f)" stroke-width=".442" stroke-linejoin="round" stroke="#000" d="M31.906 101.128c-2.116 0-3.83 1.676-3.83 3.742 0 2.067 1.714 3.742 3.83 3.742s3.93-.794 3.83-2.858c-.151-3.149-1.714-4.626-3.83-4.626z"/>
 <path d="M32.036 102.3c-1.449 0-2.623 1.134-2.623 2.533 0 1.398 1.174 2.532 2.623 2.532 1.45 0 2.624-1.134 2.624-2.532 0-1.399-1.174-2.533-2.623-2.533z"/>
 <path fill="#FFF" d="M30.278 102.465a.94.94 0 100 1.88.94.94 0 000-1.88z"/>
 <path fill="#6E4A29" d="M27.67 96.769c-.256.103 2.404-1.182 4.124-1.543 1.912-.402 4.29.041 4.29.041s-1.398-2.346-5.03-1.488c-1.059.25-2.33 1.333-3.383 2.99z"/>
 <path d="M32.19 100.966c-.025-.139-6.034.632-5.666-2.24-.663.392-1.456 3.199-.13 3.199.984.182 6.837-1.102 8.245.405-.848-.852-1.79-1.134-2.449-1.364z"/>
 <path fill="#673902" fill-opacity=".443" d="M80.44 100.969c-7.872-8.454-10.933-13.41-15.973-15.184-5.436 5.491-17.789 11.832-27.081 14.893-10.45 3.442-15.837 1.297-16.82 4.545-.874-2.569-3.217-15.71 4.318-19.776 7.536-4.065 17.848-5.453 18.939-5.453 1.09 0 26.771.198 26.771.198s10.639 11.457 9.845 20.777z"/>
 <path fill="#B55480" stroke-width=".703" stroke-linejoin="round" stroke="#82395A" d="M47.466 114.588s6.205.028 6.422 0c0 0-1.184 1.854-3.21 1.854-2.02 0-3.212-1.854-3.212-1.854z"/>
 <path fill="#515CA4" stroke-width=".984" stroke-linejoin="round" stroke="#2C325A" d="M79.565 98.491c2.405 4.664 9.508-.338 7.03-4.638.437 1.895-1.147 3.041-2.041 2.478-1.968-1.239-.695-2.888-3.425-10.421-2.73-7.533-10.856-23.312-31.159-22.92-20.797.402-30.166 17.136-31.597 28.943-1.43 11.807-.361 4.402-.686 5.346-.4 1.166-1.312 2.478-3.461 1.931 5.174 7.288 27.1-2.02 33.654-5.092 6.997-3.28 15.524-9.182 17.287-10.836 2.081.488 9.588 7.484 14.398 15.21z"/>
 <path fill="#8B5F0E" stroke-width=".984" stroke-linejoin="round" stroke="#4E1C44" d="M39.793 56.998s11.806-3.352 21.28 0c.146 2.04-2.623 9.474-2.623 9.474l-15.596.73-3.06-10.204z"/>
 <path fill="#BA7E12" stroke-width=".984" stroke-linejoin="round" stroke="#4E1C44" d="M43.91 52.808a2.624 2.624 0 110 5.247 2.624 2.624 0 010-5.247z"/>
 <path fill="#AE740D" stroke-width=".984" stroke-linejoin="round" stroke="#4E1C44" d="M50.688 52.206a2.624 2.624 0 110 5.248 2.624 2.624 0 010-5.248z"/>
 <path fill="#BA7E12" stroke-width=".984" stroke-linejoin="round" stroke="#4E1C44" d="M56.592 52.939a2.624 2.624 0 110 5.247 2.624 2.624 0 010-5.247z"/>
 <path fill="#ED94EC" fill-opacity=".369" d="M49.874 64.198c9.026-.26 21.137 1.53 29.367 18.286-3.041-2.412-11.5-9.618-29.25-9.618-17.749 0-25.204 6.507-27.763 8.428 6.445-13.485 20.868-17.096 27.646-17.096z"/>
 <radialGradient id="g" cx="66.099" cy="114.262" r="6.1" gradientUnits="userSpaceOnUse" gradientTransform="rotate(187.505 66.1 114.262)">
  <stop offset="0" stop-color="#F73939" stop-opacity=".502"/>
  <stop offset=".384" stop-color="#D35447" stop-opacity=".255"/>
  <stop offset="1" stop-color="#B06F55" stop-opacity="0"/>
 </radialGradient>
 <path fill="url(#g)" d="M64.414 110.754c-3.356 1.612-5.322 4.489-4.392 6.427.93 1.938 4.406 2.202 7.763.589 3.356-1.612 5.322-4.489 4.392-6.427-.931-1.938-4.406-2.202-7.763-.589z"/>
 <radialGradient id="h" cx="34.495" cy="114.262" r="5.846" gradientUnits="userSpaceOnUse" gradientTransform="rotate(-7.505 34.494 114.262)">
  <stop offset="0" stop-color="#F73939" stop-opacity=".502"/>
  <stop offset=".595" stop-color="#D35447" stop-opacity=".255"/>
  <stop offset="1" stop-color="#B06F55" stop-opacity="0"/>
 </radialGradient>
 <path fill="url(#h)" d="M36.11 110.899c3.217 1.545 5.101 4.303 4.21 6.161-.893 1.857-4.224 2.11-7.44.564-3.218-1.545-5.102-4.303-4.21-6.16.892-1.857 4.223-2.11 7.44-.565z"/>
 <linearGradient id="i" gradientUnits="objectBoundingBox" x1=".484" y1=".072" x2="1.38" y2=".072" gradientTransform="rotate(88.725 .484 .072)">
  <stop offset="0" stop-color="#312823" stop-opacity=".996"/>
  <stop offset="1" stop-color="#7F6151" stop-opacity=".996"/>
 </linearGradient>
 <path fill="url(#i)" stroke-width=".442" stroke-linejoin="round" stroke="#000" d="M68.034 101.128c2.116 0 3.83 1.676 3.83 3.742 0 2.067-1.714 3.742-3.83 3.742s-3.93-.794-3.83-2.858c.151-3.149 1.714-4.626 3.83-4.626z"/>
 <path d="M67.903 102.3c1.45 0 2.624 1.134 2.624 2.533 0 1.398-1.174 2.532-2.624 2.532-1.449 0-2.623-1.134-2.623-2.532 0-1.399 1.174-2.533 2.623-2.533z"/>
 <path fill="#FFF" d="M66.12 102.465a.94.94 0 110 1.88.94.94 0 010-1.88z"/>
 <path fill="#6E4A29" d="M72.27 96.769c.256.103-2.404-1.182-4.124-1.543-1.912-.402-4.29.041-4.29.041s1.398-2.346 5.03-1.488c1.059.25 2.33 1.333 3.383 2.99z"/>
 <path d="M67.75 100.966c.025-.139 6.034.632 5.666-2.24.663.392 1.456 3.199.13 3.199-.984.182-6.837-1.102-8.245.405.848-.852 1.79-1.134 2.449-1.364z"/>
 <path fill="#FFF" fill-opacity=".251" d="M66.178 69.56c-4.866-.759-15.669-3.535-27.11 6.085-7.342 6.172-8.09 21.572-16.18 23.831 4.446-3.498 4.591-19.531 15.378-27.548 8.762-6.513 17.908-5.204 27.912-2.369z"/>
 <path fill="#FFF" fill-opacity=".302" d="M65.194 68.248c-8.473-1.742-20.005-4.207-31.702 5.101-11.952 9.51-7.434 24.852-15.523 27.111 4.445-3.498-.911-16.944 13.41-28.532 8.487-6.868 22.827-8.811 33.815-3.68z"/>
 <radialGradient id="j" cx="35.534" cy="76.758" r="2.175" gradientUnits="userSpaceOnUse" gradientTransform="rotate(-105.355 35.534 76.758)">
  <stop offset="0" stop-color="#FEFFEF" stop-opacity=".486"/>
  <stop offset="1" stop-color="#FFF" stop-opacity="0"/>
 </radialGradient>
 <path fill="url(#j)" d="M34.305 75.819c1.866-2.441 3.93-3.999 4.608-3.48.678.519-.285 2.918-2.15 5.358-1.867 2.44-3.93 3.999-4.608 3.48-.679-.519.284-2.918 2.15-5.359z"/>
 <radialGradient id="k" cx="26.54" cy="79.026" r="2.557" gradientUnits="userSpaceOnUse" gradientTransform="rotate(-108.905 26.54 79.026)">
  <stop offset="0" stop-color="#FEFFEF" stop-opacity=".486"/>
  <stop offset="1" stop-color="#FFF" stop-opacity="0"/>
 </radialGradient>
 <path fill="url(#k)" d="M25.29 78.336c1.485-2.69 3.25-4.56 3.94-4.179.69.382.046 2.87-1.44 5.56-1.485 2.69-3.25 4.56-3.94 4.178-.69-.38-.046-2.87 1.44-5.56z"/>
 <ellipse fill-opacity=".204" cx="50.506" cy="69.132" rx="12.025" ry="5.685"/>
 <radialGradient id="l" cx="52.296" cy="72.354" r="21.78" gradientUnits="userSpaceOnUse" gradientTransform="rotate(-90 52.296 72.354)">
  <stop offset=".442" stop-color="#FFC800"/>
  <stop offset=".836" stop-color="#D68B14"/>
  <stop offset="1" stop-color="#AE4E28" stop-opacity=".996"/>
 </radialGradient>
 <path fill="url(#l)" stroke-width=".984" stroke-linejoin="round" stroke="#552915" d="M62.896 57.053c-.438 2.223-3.426 7.816-1.75 11.752-.619 1.53-2.548 4.208-10.166 4.208-7.69 0-10.312-1.658-10.968-4.573 1.312-3.134-.62-8.982-1.494-10.403.984-.693 2.295-.438 2.295-.438s.736 5.885 2.405 5.794c3.353-.182.547-6.012 3.498-6.122 2.952-.109-.072 7.252 4.082 7.252 4.081 0 .838-7.36 3.68-7.47 2.842-.11 1.13 5.775 3.717 5.684 1.811-.063 2.004-3.206 2.31-5.681.028-.232 1.844-.112 2.39-.003z"/>
 <path fill="#FFA400" stroke-width=".984" stroke-linejoin="round" stroke="#552915" d="M39.356 54.283a2.77 2.77 0 110 5.54 2.77 2.77 0 010-5.54z"/>
 <path fill="#FFC800" stroke-width=".984" stroke-linejoin="round" stroke="#552915" d="M46.826 54.826a3.352 3.352 0 110 6.705 3.352 3.352 0 010-6.705zm7.689.04a3.243 3.243 0 110 6.487 3.243 3.243 0 010-6.487z"/>
 <path fill="#FFA400" stroke-width=".984" stroke-linejoin="round" stroke="#552915" d="M61.766 54.393a2.77 2.77 0 110 5.538 2.77 2.77 0 010-5.538z"/>
 <radialGradient id="m" cx="46.045" cy="57.144" r="1.675" gradientUnits="userSpaceOnUse" gradientTransform="rotate(-76.612 46.045 57.144)">
  <stop offset="0" stop-color="#FEFFEF" stop-opacity=".486"/>
  <stop offset="1" stop-color="#FFF" stop-opacity="0"/>
 </radialGradient>
 <path fill="url(#m)" d="M44.816 56.204c.547-.715 1.54-.874 2.219-.356.679.52.785 1.52.238 2.235-.547.715-1.54.875-2.219.356-.678-.52-.785-1.52-.238-2.235z"/>
 <radialGradient id="n" cx="45.294" cy="66.437" r="5.52" gradientUnits="userSpaceOnUse" gradientTransform="rotate(248.671 45.294 66.437)">
  <stop offset="0" stop-color="#F8FF8F" stop-opacity=".604"/>
  <stop offset="1" stop-color="#FFF" stop-opacity="0"/>
 </radialGradient>
 <path fill="url(#n)" d="M40.88 66.315c.08-2.875 2.12-5.151 4.557-5.084 2.438.067 4.349 2.452 4.27 5.327-.08 2.875-2.12 5.152-4.557 5.084-2.437-.067-4.349-2.452-4.27-5.327z"/>
 <radialGradient id="o" cx="59.608" cy="66.662" r="4.449" gradientUnits="userSpaceOnUse" gradientTransform="rotate(248.42 59.608 66.661)">
  <stop offset="0" stop-color="#FEFFEF" stop-opacity=".486"/>
  <stop offset="1" stop-color="#FFF" stop-opacity="0"/>
 </radialGradient>
 <path fill="url(#o)" d="M58.714 66.637c.062-2.234.512-4.035 1.006-4.02.493.013.844 1.835.782 4.07-.062 2.233-.512 4.034-1.005 4.02-.494-.014-.844-1.836-.783-4.07z"/>
 <radialGradient id="p" cx="38.83" cy="56.269" r="1.675" gradientUnits="userSpaceOnUse" gradientTransform="rotate(-76.612 38.83 56.269)">
  <stop offset="0" stop-color="#FEFFEF" stop-opacity=".486"/>
  <stop offset="1" stop-color="#FFF" stop-opacity="0"/>
 </radialGradient>
 <path fill="url(#p)" d="M37.601 55.33c.547-.716 1.54-.875 2.219-.356.678.519.785 1.52.238 2.234-.547.716-1.54.875-2.219.356-.678-.519-.785-1.52-.238-2.234z"/>
 <radialGradient id="q" cx="53.624" cy="57.071" r="1.675" gradientUnits="userSpaceOnUse" gradientTransform="rotate(-76.612 53.624 57.07)">
  <stop offset="0" stop-color="#EFFF00" stop-opacity=".486"/>
  <stop offset="1" stop-color="#FFF" stop-opacity="0"/>
 </radialGradient>
 <path fill="url(#q)" d="M52.396 56.131c.547-.715 1.54-.874 2.218-.355.679.518.786 1.519.239 2.234-.547.715-1.54.875-2.22.356-.678-.519-.784-1.52-.237-2.235z"/>
 <radialGradient id="r" cx="61.131" cy="56.488" r="1.675" gradientUnits="userSpaceOnUse" gradientTransform="rotate(-76.612 61.13 56.488)">
  <stop offset="0" stop-color="#FEFFEF" stop-opacity=".486"/>
  <stop offset="1" stop-color="#FFF" stop-opacity="0"/>
 </radialGradient>
 <path fill="url(#r)" d="M59.902 55.548c.547-.715 1.54-.874 2.219-.355.678.518.785 1.519.238 2.234-.547.715-1.54.875-2.219.356-.678-.519-.785-1.52-.238-2.235z"/>
 <path fill="#F5F5F5" fill-opacity=".776" d="M50.697 129.44c.348 0 .629.477.629 1.065 0 .589-.281 1.066-.629 1.066-.347 0-.628-.477-.628-1.066 0-.588.281-1.065.628-1.065z"/>
</svg>
