<svg xmlns="http://www.w3.org/2000/svg" baseProfile="full" width="101" height="171">
 <radialGradient id="a" cx="49.982" cy="133.131" r="23.251" gradientUnits="userSpaceOnUse">
  <stop offset="0" stop-opacity=".463"/>
  <stop offset=".648" stop-opacity=".231"/>
  <stop offset="1" stop-opacity="0"/>
 </radialGradient>
 <ellipse fill="url(#a)" cx="49.982" cy="133.131" rx="23.209" ry="18.22"/>
 <path stroke-width="2.172" stroke-linejoin="round" stroke="#000" d="M50.727 126.227c6.342 0 11.484 2.616 11.484 5.843s-5.142 5.842-11.484 5.842c-6.343 0-11.484-2.615-11.484-5.842 0-3.227 5.141-5.843 11.484-5.843z"/>
 <radialGradient id="b" cx="51.021" cy="123.142" r="22.256" gradientUnits="userSpaceOnUse">
  <stop offset="0" stop-color="#72B567" stop-opacity=".996"/>
  <stop offset="1" stop-color="#215337" stop-opacity=".996"/>
 </radialGradient>
 <path fill="url(#b)" stroke-width=".814" stroke-linejoin="round" stroke="#263627" d="M51.021 116.008c9.183 0 16.628 4.996 16.628 11.159 0 6.162-7.799 8.095-16.982 8.095s-16.274-1.933-16.274-8.095c0-6.163 7.445-11.159 16.628-11.159z"/>
 <path d="M20.986 100.017h58.561v11.458H20.986z"/>
 <radialGradient id="c" cx="51.147" cy="78.851" r="47.147" gradientUnits="userSpaceOnUse" gradientTransform="rotate(90 51.147 78.85)">
  <stop offset="0" stop-color="#FFFAE8" stop-opacity=".996"/>
  <stop offset=".14" stop-color="#FEB" stop-opacity=".996"/>
  <stop offset=".603" stop-color="#E5C699"/>
  <stop offset=".788" stop-color="#CB9F77"/>
  <stop offset=".928" stop-color="#B77C5C"/>
  <stop offset="1" stop-color="#A45A42"/>
 </radialGradient>
 <path fill="url(#c)" stroke-width=".955" stroke-linejoin="round" stroke="#44301E" d="M50.505 70.176c16.581 0 30.023 12.849 30.023 28.698 0 15.85-13.135 24.897-29.716 24.897-16.58 0-30.329-9.047-30.329-24.897 0-15.85 13.441-28.698 30.022-28.698z"/>
 <path fill="#673902" fill-opacity=".443" d="M80.272 102.115c-3.427-7.1-6.256-8.798-9.775-9.903-2.947 2.034-13.046 3.743-16.157-.147-2.568 3.324-1.267 7.925-22.916-.23-4.456 3.395-8.303 11.256-9.256 14.408-.85-2.493 4.19-22.374 4.19-22.374s17.32 4.255 18.38 4.255c1.058 0 25.98.193 25.98.193s10.324 4.753 9.554 13.798z"/>
 <path fill="#A65846" stroke-width=".682" stroke-linejoin="round" stroke="#894030" d="M47.955 115.013s6.022.026 6.233 0c0 0-1.15 1.799-3.117 1.799-1.96 0-3.116-1.799-3.116-1.799z"/>
 <path fill="#8E6224" stroke-width=".955" stroke-linejoin="round" stroke="#47300E" d="M79.087 101.662c.411 4.339-.807 10.638.466 10.744 3.713-8.7 5.738-20.097 2.82-29.113-3.5-10.821-15.17-21.218-31.826-21.218-15.171 0-27.371 8.7-31.403 23.022-3.15 11.189-.38 20.413 1.424 26.672 1.91-.106.917-11.017 8.838-19.637.157-.17 1.048 2.803 8.4 5.133.817.16 3.573-3.725 3.873-5.052-.106 1.822 6.288 8.271 6.937 8.37 2.45-3.067 5.334-10.262 6.006-11.87.31 1.692 3.178 8.073 3.9 9.097 1.558-1.877 3.558-5.272 4.207-6.649.849 2.759 2.16 3.676 3.29 4.492 2.017-1.24 3.616-4.963 3.878-4.9.318.075 7.946 3.861 9.19 10.909z"/>
 <radialGradient id="d" cx="66.038" cy="114.696" r="5.92" gradientUnits="userSpaceOnUse" gradientTransform="rotate(187.505 66.038 114.696)">
  <stop offset="0" stop-color="#F73939" stop-opacity=".502"/>
  <stop offset=".384" stop-color="#D35447" stop-opacity=".255"/>
  <stop offset="1" stop-color="#B06F55" stop-opacity="0"/>
 </radialGradient>
 <path fill="url(#d)" d="M64.403 111.291c-3.257 1.565-5.166 4.358-4.263 6.238.904 1.88 4.276 2.137 7.534.572 3.257-1.564 5.165-4.357 4.262-6.238-.903-1.88-4.276-2.136-7.533-.572z"/>
 <radialGradient id="e" cx="35.367" cy="114.696" r="5.674" gradientUnits="userSpaceOnUse" gradientTransform="rotate(-7.505 35.367 114.696)">
  <stop offset="0" stop-color="#F73939" stop-opacity=".502"/>
  <stop offset=".595" stop-color="#D35447" stop-opacity=".255"/>
  <stop offset="1" stop-color="#B06F55" stop-opacity="0"/>
 </radialGradient>
 <path fill="url(#e)" d="M36.934 111.433c3.122 1.499 4.951 4.176 4.085 5.978-.865 1.802-4.098 2.048-7.22.548-3.122-1.499-4.95-4.176-4.085-5.978.866-1.802 4.098-2.048 7.22-.548z"/>
 <path fill-opacity=".231" d="M53.559 68.28c6.008 8.31 3.766 23.437 4.827 29.378-.53-1.167-3.348-6.841-3.879-8.963-.318 1.167-5.23 10.598-5.23 10.598s6.683-17.4 4.282-31.013z"/>
 <path fill="#980000" fill-opacity=".29" d="M61.444 84.361c2.685 1.989 5.305 7.268 4.775 10.822-1.294-.31-3.024-2.122-3.554-4.244-.319 1.167-4.177 6.798-4.177 6.798s3.2-9.495 2.956-13.376z"/>
 <path fill="#670505" fill-opacity=".231" d="M46.627 71.25c-2.761 7.78 1.058 24.754 2.228 29.166-.339-.804-7.007-6.559-7.203-7.912-.483.59-3.786 4.818-3.786 4.818s2.393-19.247 8.761-26.072z"/>
 <path fill-opacity=".231" d="M40.757 73.231c-5.272 10.36-3.699 20.598-2.873 24.02-5.44-1.565-8.623-5.013-8.623-5.013s3.465-13.739 11.496-19.007zm29.77 17.833s.869-13.803-2.462-17.917c1.783-.842 9.87 14.401 9.87 14.947.637-11.617-6.276-20.935-11.369-22.35 6.507 3.678 25.745 16.126 13.014 46.397-1.415.283 3.168-13.927-9.053-21.077z"/>
 <path fill="#270909" fill-opacity=".325" d="M29.21 92.07s-.942.538-1.877-3.298c.086-8.542 4.849-22.8 9.94-24.214-6.506 3.678-26.068 14.4-16.924 46.493 1.415.283 1.506-11.483 8.862-18.98z"/>
 <path fill="#E1E1E1" stroke-width=".955" stroke-linejoin="round" stroke="#1F1F1F" d="M84.2 89.109c-5.663-36.812-60.405-37.555-66.517-.601 9.931-14.993 56.929-13.932 66.518.6z"/>
 <path fill="#FFF" d="M63.266 64.744s8.918-3.514 11.033-1.91c3.077 2.334 1.167 7.426.212 9.972"/>
 <path fill="#FFF" stroke-width=".2" stroke-linejoin="round" stroke="#FFF" d="M74.261 73.206c.037.163.272-.213.347-.363.987-2.028 1.861-4.266 1.81-6.52-.033-1.434-.704-2.984-1.8-3.91-1.034-.657-2.437-.57-3.653-.414-1.285.164-2.546.514-3.771.935a29.63 29.63 0 00-2.548 1.018c-.328.148-.953.337-.84.679.11.33.704.111 1.045.042.74-.15 1.476-.317 2.208-.499 1.28-.318 2.556-.669 3.858-.874.977-.153 2.099-.393 2.966.083 1.042.807 1.55 2.315 1.564 3.633.02 1.946-.651 3.839-1.08 5.736l-.106.454z"/>
 <path fill="#F57AAA" stroke-width=".617" stroke-linejoin="round" stroke="#626262" d="M65.467 65.784s5.828-2.249 7.21-1.222c2.01 1.493.762 4.752.138 6.381"/>
 <path fill="#FFF" d="M38.096 64.744s-8.918-3.514-11.033-1.91c-3.076 2.334-1.167 7.426-.212 9.972"/>
 <path fill="#FFF" stroke-width=".2" stroke-linejoin="round" stroke="#FFF" d="M27.101 73.206c-.037.163-.272-.213-.346-.363-.988-2.028-1.862-4.266-1.81-6.52.032-1.434.703-2.984 1.8-3.91 1.033-.657 2.436-.57 3.652-.414 1.285.164 2.546.514 3.771.935.865.297 1.715.641 2.548 1.018.328.148.953.337.84.679-.11.33-.703.111-1.045.042-.74-.15-1.476-.317-2.208-.499-1.28-.318-2.555-.669-3.858-.874-.977-.153-2.099-.393-2.965.083-1.043.807-1.552 2.315-1.565 3.633-.019 1.946.651 3.839 1.08 5.736l.106.454z"/>
 <path fill="#F57AAA" stroke-width=".617" stroke-linejoin="round" stroke="#626262" d="M35.895 65.784s-5.828-2.249-7.21-1.222c-2.01 1.493-.762 4.752-.138 6.381"/>
 <radialGradient id="f" cx="51.278" cy="67.219" r="16.269" gradientUnits="userSpaceOnUse">
  <stop offset="0" stop-color="#FFF"/>
  <stop offset="1" stop-color="#FFF" stop-opacity="0"/>
 </radialGradient>
 <ellipse fill="url(#f)" cx="51.278" cy="67.219" rx="15.489" ry="4.739"/>
 <linearGradient id="g" gradientUnits="objectBoundingBox" x1=".5" y1=".019" x2="1.508" y2=".019" gradientTransform="rotate(90.85 .5 .019)">
  <stop offset="0" stop-color="#312623" stop-opacity=".996"/>
  <stop offset="1" stop-color="#BF792A" stop-opacity=".996"/>
 </linearGradient>
 <path fill="url(#g)" stroke-width=".429" stroke-linejoin="round" stroke="#000" d="M32.855 101.95c-2.054 0-3.718 1.626-3.718 3.632 0 2.005 1.664 3.631 3.718 3.631 2.053 0 3.814-.77 3.717-2.773-.147-3.057-1.664-4.49-3.717-4.49z"/>
 <path d="M32.981 103.088c-1.406 0-2.546 1.1-2.546 2.457 0 1.358 1.14 2.458 2.546 2.458 1.407 0 2.547-1.1 2.547-2.458 0-1.357-1.14-2.457-2.547-2.457z"/>
 <path fill="#FFF" d="M31.274 103.247a.913.913 0 10.001 1.826.913.913 0 000-1.826z"/>
 <path fill="#6E4A29" d="M28.746 97.72c-.25.1 2.332-1.147 4.001-1.498 1.856-.39 4.164.04 4.164.04s-1.357-2.276-4.883-1.444c-1.026.243-2.26 1.294-3.282 2.901z"/>
 <path d="M33.13 101.793c-.024-.135-5.856.613-5.498-2.175-.644.382-1.413 3.105-.126 3.105.954.177 6.635-1.069 8 .394-.822-.827-1.737-1.101-2.376-1.324z"/>
 <linearGradient id="h" gradientUnits="objectBoundingBox" x1=".484" y1=".072" x2="1.38" y2=".072" gradientTransform="rotate(88.725 .484 .072)">
  <stop offset="0" stop-color="#312623" stop-opacity=".996"/>
  <stop offset="1" stop-color="#BF792A" stop-opacity=".996"/>
 </linearGradient>
 <path fill="url(#h)" stroke-width=".429" stroke-linejoin="round" stroke="#000" d="M67.916 101.95c2.053 0 3.718 1.626 3.718 3.632 0 2.005-1.665 3.631-3.718 3.631s-3.814-.77-3.718-2.773c.147-3.057 1.665-4.49 3.718-4.49z"/>
 <path d="M67.79 103.088c1.405 0 2.545 1.1 2.545 2.457 0 1.358-1.14 2.458-2.546 2.458s-2.546-1.1-2.546-2.458c0-1.357 1.14-2.457 2.546-2.457z"/>
 <path fill="#FFF" d="M66.059 103.247a.913.913 0 110 1.826.913.913 0 010-1.826z"/>
 <path fill="#6E4A29" d="M72.025 97.72c.248.1-2.333-1.147-4.002-1.498-1.856-.39-4.164.04-4.164.04s1.358-2.276 4.883-1.444c1.027.243 2.26 1.294 3.283 2.901z"/>
 <path d="M67.64 101.793c.024-.135 5.856.613 5.499-2.175.643.382 1.413 3.105.126 3.105-.955.177-6.635-1.069-8.001.394.822-.827 1.737-1.101 2.376-1.324z"/>
 <path fill="#F794BA" stroke-width=".955" stroke-linejoin="round" stroke="gray" d="M50.408 65.29c2.023-1.952 7.717-.993 7.755 1.947.042 3.273-5.986 3.607-7.755 6.416-2.01-2.732-7.699-3.323-7.755-6.416-.06-3.286 5.873-3.925 7.755-1.947z"/>
</svg>
