<svg xmlns="http://www.w3.org/2000/svg" baseProfile="full" width="101" height="171">
 <radialGradient id="a" cx="49.982" cy="133.131" r="23.251" gradientUnits="userSpaceOnUse">
  <stop offset="0" stop-opacity=".463"/>
  <stop offset=".648" stop-opacity=".231"/>
  <stop offset="1" stop-opacity="0"/>
 </radialGradient>
 <ellipse fill="url(#a)" cx="49.982" cy="133.131" rx="23.209" ry="18.22"/>
 <path stroke-width="2.172" stroke-linejoin="round" stroke="#000" d="M50.727 126.227c6.342 0 11.484 2.616 11.484 5.843s-5.142 5.842-11.484 5.842c-6.343 0-11.484-2.615-11.484-5.842 0-3.227 5.141-5.843 11.484-5.843z"/>
 <radialGradient id="b" cx="51.021" cy="123.142" r="22.256" gradientUnits="userSpaceOnUse">
  <stop offset="0" stop-color="#72B567" stop-opacity=".996"/>
  <stop offset="1" stop-color="#215337" stop-opacity=".996"/>
 </radialGradient>
 <path fill="url(#b)" stroke-width=".814" stroke-linejoin="round" stroke="#263627" d="M51.021 116.008c9.183 0 16.628 4.996 16.628 11.159 0 6.162-7.799 8.095-16.982 8.095s-16.274-1.933-16.274-8.095c0-6.163 7.445-11.159 16.628-11.159z"/>
 <radialGradient id="c" cx="50.927" cy="77.927" r="48.615" gradientUnits="userSpaceOnUse" gradientTransform="rotate(90 50.927 77.927)">
  <stop offset="0" stop-color="#FFFAE8" stop-opacity=".996"/>
  <stop offset=".14" stop-color="#FEB" stop-opacity=".996"/>
  <stop offset=".603" stop-color="#E5C699"/>
  <stop offset=".788" stop-color="#CB9F77"/>
  <stop offset=".928" stop-color="#B77C5C"/>
  <stop offset="1" stop-color="#A45A42"/>
 </radialGradient>
 <path fill="url(#c)" stroke-width=".814" stroke-linejoin="round" stroke="#44301E" d="M50.265 68.982c17.097 0 30.957 13.249 30.957 29.592 0 16.343-13.543 25.671-30.64 25.671s-31.274-9.328-31.274-25.671 13.86-29.592 30.957-29.592z"/>
 <linearGradient id="d" gradientUnits="objectBoundingBox" x1=".5" y1=".019" x2="1.508" y2=".019" gradientTransform="rotate(90.85 .5 .019)">
  <stop offset="0" stop-color="#232531" stop-opacity=".996"/>
  <stop offset="1" stop-color="#7976BC" stop-opacity=".996"/>
 </linearGradient>
 <path fill="url(#d)" stroke-width=".366" stroke-linejoin="round" stroke="#000" d="M32.065 101.746c-2.117 0-3.834 1.676-3.834 3.744 0 2.068 1.717 3.744 3.834 3.744s3.933-.794 3.833-2.859c-.152-3.152-1.716-4.629-3.833-4.629z"/>
 <path d="M32.196 102.918c-1.45 0-2.626 1.135-2.626 2.534 0 1.4 1.176 2.535 2.626 2.535s2.625-1.135 2.625-2.535c0-1.399-1.175-2.534-2.625-2.534z"/>
 <path fill="#FFF" d="M30.435 103.083a.94.94 0 100 1.882.94.94 0 000-1.882z"/>
 <path fill="#6E4A29" d="M27.828 97.383c-.256.104 2.405-1.182 4.126-1.544 1.914-.402 4.294.042 4.294.042s-1.4-2.348-5.035-1.49c-1.059.25-2.331 1.334-3.385 2.992z"/>
 <path d="M32.35 101.583c-.026-.138-6.04.633-5.67-2.242-.664.393-1.458 3.202-.13 3.202.984.182 6.841-1.103 8.25.405-.848-.852-1.792-1.135-2.45-1.365z"/>
 <path fill="#673902" fill-opacity=".443" d="M80.63 101.587c-2.566-9.09-6.577-12.254-9.931-13.721-5.616 3.874-24.14 10.055-42.9.592-4.595 3.5-6.099 14.136-7.082 17.386-.875-2.571 4.321-23.071 4.321-23.071s17.86-2.175 18.951-2.175c1.092 0 26.79.198 26.79.198s10.646 11.464 9.852 20.791z"/>
 <path fill="#B56654" stroke-width=".582" stroke-linejoin="round" stroke="#824F39" d="M47.636 115.215s6.209.027 6.426 0c0 0-1.185 1.855-3.213 1.855-2.02 0-3.213-1.855-3.213-1.855z"/>
 <path fill="#DFBF5A" stroke-width=".814" stroke-linejoin="round" stroke="#4F5518" d="M80.106 98.696c.424 4.474-.073 10.629-2.206 13.911 5.47-2.899 7.99-17.51 5.061-26.418-2.927-8.907-12.18-22.606-32.82-22.606-20.816 0-29.399 15.522-31.878 24.274-2.48 8.751.766 21.113 3.683 24.367-2.346-8.084-1.605-18.278 6.563-27.166.161-.175.328 1.222-.4 2.033 3.427 2.698 17.392 4.575 20.602 4.786.859.056 1.54-1.496 1.591-2.5.121.948.786 2.586 1.51 2.553 10.853-.488 17.842-5.097 18.85-6.042-.365-1.067-.672-2.317-.401-2.252.328.078 8.562 7.793 9.845 15.06z"/>
 <path fill="#FCFFC1" fill-opacity=".369" d="M50.046 64.79c9.031-.26 21.151 1.53 29.387 18.299-3.044-2.414-11.509-9.625-29.27-9.625-17.762 0-25.222 6.512-27.783 8.434 6.45-13.494 20.883-17.109 27.666-17.109z"/>
 <radialGradient id="e" cx="66.282" cy="114.888" r="6.104" gradientUnits="userSpaceOnUse" gradientTransform="rotate(187.505 66.282 114.888)">
  <stop offset="0" stop-color="#F73939" stop-opacity=".502"/>
  <stop offset=".384" stop-color="#D35447" stop-opacity=".255"/>
  <stop offset="1" stop-color="#B06F55" stop-opacity="0"/>
 </radialGradient>
 <path fill="url(#e)" d="M64.596 111.378c-3.36 1.613-5.327 4.492-4.396 6.431.932 1.939 4.41 2.203 7.768.59 3.359-1.613 5.327-4.493 4.395-6.432-.931-1.939-4.409-2.203-7.767-.589z"/>
 <radialGradient id="f" cx="34.655" cy="114.888" r="5.85" gradientUnits="userSpaceOnUse" gradientTransform="rotate(-7.505 34.655 114.888)">
  <stop offset="0" stop-color="#F73939" stop-opacity=".502"/>
  <stop offset=".595" stop-color="#D35447" stop-opacity=".255"/>
  <stop offset="1" stop-color="#B06F55" stop-opacity="0"/>
 </radialGradient>
 <path fill="url(#f)" d="M36.271 111.523c3.22 1.546 5.105 4.306 4.213 6.165-.893 1.858-4.226 2.111-7.445.565-3.22-1.546-5.105-4.306-4.213-6.164.893-1.859 4.226-2.112 7.445-.566z"/>
 <linearGradient id="g" gradientUnits="objectBoundingBox" x1=".484" y1=".072" x2="1.38" y2=".072" gradientTransform="rotate(88.725 .484 .072)">
  <stop offset="0" stop-color="#232531" stop-opacity=".996"/>
  <stop offset="1" stop-color="#7976BC" stop-opacity=".996"/>
 </linearGradient>
 <path fill="url(#g)" stroke-width=".366" stroke-linejoin="round" stroke="#000" d="M68.218 101.746c2.117 0 3.833 1.676 3.833 3.744 0 2.068-1.716 3.744-3.833 3.744s-3.933-.794-3.834-2.859c.152-3.152 1.717-4.629 3.834-4.629z"/>
 <path d="M68.087 102.918c1.45 0 2.626 1.135 2.626 2.534 0 1.4-1.176 2.535-2.626 2.535s-2.625-1.135-2.625-2.535c0-1.399 1.175-2.534 2.625-2.534z"/>
 <path fill="#FFF" d="M66.303 103.083a.94.94 0 110 1.882.94.94 0 010-1.882z"/>
 <path fill="#6E4A29" d="M72.455 97.383c.256.104-2.406-1.182-4.126-1.544-1.914-.402-4.294.042-4.294.042s1.4-2.348 5.035-1.49c1.059.25 2.331 1.334 3.385 2.992z"/>
 <path d="M67.933 101.583c.025-.138 6.039.633 5.67-2.242.664.393 1.457 3.202.13 3.202-.984.182-6.841-1.103-8.25.405.848-.852 1.792-1.135 2.45-1.365z"/>
 <path fill="#FFF" fill-opacity=".824" stroke-width=".2" stroke-linejoin="round" stroke="#FFF" stroke-opacity=".824" d="M36.682 84.177c.016.06.012.131.049.182.018.026.066.03.093.015.215-.12.291-.4.398-.62 2.73-4.637 5.938-9.178 10.087-12.604a31.08 31.08 0 012.438-1.849 36.463 36.463 0 011.574-1.019c.621-.372 1.253-.727 1.86-1.123.145-.095.29-.19.427-.297.076-.058.14-.13.211-.194.154-.137.393-.376.282-.55-.32-.498-1.134-.524-1.72-.44-.737.106-1.459.315-2.163.556-1.71.586-3.249 1.656-4.633 2.819-2.753 2.312-5.053 5.272-6.646 8.495-.957 1.935-2.042 3.924-2.25 6.073l-.007.556z"/>
 <path fill="#FFF" fill-opacity=".671" stroke-width=".2" stroke-linejoin="round" stroke="#FFF" stroke-opacity=".671" d="M32.066 83.697c.01.057 0 .12.028.171.012.02.052.024.071.01.188-.137.245-.398.337-.611 2.31-4.631 5.205-9.205 9.177-12.522.792-.66 1.605-1.3 2.466-1.866a27.028 27.028 0 011.553-.963c.23-.13.457-.265.688-.393.207-.115.419-.22.626-.335.084-.046.165-.101.25-.148.092-.05.189-.092.28-.144.255-.145.52-.283.734-.484.065-.06.135-.119.177-.196.028-.052.063-.128.028-.176-.545-.723-1.859-.284-2.716.007-1.972.672-3.828 1.775-5.41 3.13-2.589 2.218-4.722 5.068-6.175 8.151-.881 1.869-1.835 3.787-2.081 5.838l-.033.53z"/>
 <path fill="#FFF" fill-opacity=".408" stroke-width=".2" stroke-linejoin="round" stroke="#FFF" stroke-opacity=".408" d="M26.787 84.182c.003.055-.01.114.008.166.005.016.038.017.05.005.159-.165.203-.41.283-.625 1.336-2.814 2.864-5.565 4.72-8.068a28.297 28.297 0 013.632-4.023 23.55 23.55 0 013.214-2.493 27.89 27.89 0 012.295-1.323c.212-.108.429-.206.642-.312.087-.043.17-.093.258-.135.094-.046.193-.084.288-.13.148-.072.295-.145.44-.224.067-.036.128-.081.193-.12.042-.024.088-.04.128-.068.066-.046.137-.09.188-.152.029-.035.072-.096.04-.127-.266-.267-.75-.17-1.124-.125a6.607 6.607 0 00-1.483.373c-1.922.71-3.732 1.8-5.292 3.13-2.566 2.188-4.697 4.975-6.199 7.995-.912 1.834-1.803 3.726-2.219 5.732l-.062.524z"/>
 <path fill="#FFF" fill-opacity=".671" stroke-width=".2" stroke-linejoin="round" stroke="#FFF" stroke-opacity=".671" d="M41.829 84.825c.01.057.003.122.033.172.013.022.054.025.075.011.193-.131.253-.395.348-.608 2.357-4.6 5.238-9.166 9.203-12.482a27.387 27.387 0 012.456-1.864 28.135 28.135 0 011.545-.968c.23-.13.456-.267.685-.396.206-.116.416-.223.622-.34.084-.047.164-.102.248-.15.092-.052.189-.094.28-.147.253-.15.519-.292.728-.499.064-.063.133-.125.174-.205.028-.056.062-.136.025-.187-.533-.74-1.872-.332-2.738-.043-1.982.664-3.848 1.769-5.435 3.13-2.593 2.224-4.727 5.087-6.17 8.184-.875 1.875-1.828 3.802-2.052 5.86l-.027.532z"/>
 <path fill="#FFF" fill-opacity=".416" stroke-width=".2" stroke-linejoin="round" stroke="#FFF" stroke-opacity=".416" d="M46.696 86.078c.003.055-.01.114.008.166.006.016.038.017.05.005.159-.164.203-.41.283-.625 1.337-2.814 2.864-5.565 4.72-8.068a28.297 28.297 0 013.633-4.022c1-.915 2.07-1.766 3.213-2.494.745-.475 1.509-.92 2.295-1.323.212-.108.43-.206.642-.312.087-.043.17-.093.258-.135.095-.046.193-.084.288-.13.148-.072.296-.145.44-.224.067-.036.128-.08.194-.12.041-.024.088-.04.127-.068.066-.046.138-.09.189-.152.028-.034.072-.096.04-.127-.267-.266-.75-.17-1.124-.125a6.6 6.6 0 00-1.483.374c-1.923.709-3.733 1.8-5.292 3.129-2.566 2.188-4.697 4.975-6.199 7.995-.913 1.835-1.803 3.726-2.22 5.733l-.062.523z"/>
 <path fill="#DFDFDF" stroke-width=".814" stroke-linejoin="round" stroke="#000" stroke-opacity=".404" d="M84.172 97.365c-4.938-39.817-61.677-40.546-66.84-.292 8.226-32.086 55.484-36.17 66.84.292z"/>
 <path fill="#FFF" stroke-width=".814" stroke-linejoin="round" stroke="#313131" d="M64.171 70.913s-2.993-22.224 9.043-15.096c7.512 4.449.116 17.595-.854 21.128"/>
 <radialGradient id="h" cx="68.513" cy="73.519" r="32.77" gradientUnits="userSpaceOnUse" gradientTransform="rotate(-84.464 68.513 73.52)">
  <stop offset=".036" stop-color="#E4E4E4" stop-opacity=".996"/>
  <stop offset=".199" stop-color="#F1A074" stop-opacity=".996"/>
  <stop offset="1" stop-color="#FF5D04" stop-opacity=".996"/>
 </radialGradient>
 <path fill="url(#h)" stroke-width=".814" stroke-linejoin="round" stroke="#B03500" d="M65.484 71.913s-.73-17.263 5.451-15.133c7.22 2.487.798 17.065.164 19.326"/>
 <path fill="#FFF" stroke-width=".814" stroke-linejoin="round" stroke="#313131" d="M37.12 70.913s2.993-22.224-9.043-15.096c-7.511 4.449-.115 17.595.855 21.128"/>
 <radialGradient id="i" cx="32.779" cy="73.519" r="32.77" gradientUnits="userSpaceOnUse" gradientTransform="rotate(264.464 32.779 73.52)">
  <stop offset=".036" stop-color="#E4E4E4" stop-opacity=".996"/>
  <stop offset=".199" stop-color="#F1A074" stop-opacity=".996"/>
  <stop offset="1" stop-color="#FF5D04" stop-opacity=".996"/>
 </radialGradient>
 <path fill="url(#i)" stroke-width=".814" stroke-linejoin="round" stroke="#B03500" d="M35.808 71.913s.729-17.263-5.452-15.133c-7.22 2.487-.798 17.065-.164 19.326"/>
 <path fill="#FFF" d="M26.996 79.154c.06.151 10.61-10.173 22.535-9.845 11.924.328 17.885 3.883 23.847 10.064-7.22-6.016-13.29-8.937-24.066-8.937-8.97 0-17.722 5.218-22.316 8.718z"/>
</svg>
