<svg xmlns="http://www.w3.org/2000/svg" baseProfile="full" width="101" height="171">
 <linearGradient id="a" gradientUnits="objectBoundingBox" x1=".401" y1=".996" x2="1.393" y2=".996" gradientTransform="rotate(-90 .401 .996)">
  <stop offset=".266"/>
  <stop offset=".326" stop-color="#642E22"/>
  <stop offset="1" stop-color="#C95D45"/>
 </linearGradient>
 <path fill="#B37238" stroke-linejoin="round" stroke="url(#a)" d="M5.5 50.5h90a5 5 0 015 5v110a5 5 0 01-5 5h-90a5 5 0 01-5-5v-110a5 5 0 015-5z"/>
 <linearGradient id="b" gradientUnits="objectBoundingBox" x1=".911" y1="1.001" x2="1.911" y2="1.001" gradientTransform="rotate(-90 .911 1)">
  <stop offset=".453" stop-color="#7F5E41" stop-opacity=".612"/>
  <stop offset=".831" stop-color="#A69687" stop-opacity=".31"/>
  <stop offset="1" stop-color="#CECECE" stop-opacity="0"/>
 </linearGradient>
 <path fill="url(#b)" d="M99.089 53.389a1 1 0 011 1v85.333a1 1 0 01-2 0l-9.922-4.111c3.722-.389 9.922 2.142 9.922-8.223v-73a1 1 0 011-1z"/>
 <linearGradient id="c" gradientUnits="objectBoundingBox" x1=".508" y1="1.004" x2="1.499" y2="1.004" gradientTransform="rotate(-90 .508 1.004)">
  <stop offset=".832" stop-color="#955F2F"/>
  <stop offset=".948" stop-color="#A26329" stop-opacity=".502"/>
  <stop offset="1" stop-color="#B06724" stop-opacity="0"/>
 </linearGradient>
 <path fill="url(#c)" d="M5.917 126.5h89.166a5 5 0 015 5v33.666a5 5 0 01-5 5H5.918a5 5 0 01-5-5V131.5a5 5 0 015-5z"/>
 <linearGradient id="d" gradientUnits="objectBoundingBox" x1=".042" y1=".995" x2="1.035" y2=".995" gradientTransform="rotate(-90 .042 .995)">
  <stop offset="0" stop-color="#B06724" stop-opacity=".659"/>
  <stop offset=".692" stop-color="#C87C37" stop-opacity=".659"/>
  <stop offset="1" stop-color="#E1924A" stop-opacity=".659"/>
 </linearGradient>
 <path fill="none" stroke-width="2" stroke-linecap="round" stroke-linejoin="round" stroke="url(#d)" d="M95.111 52.555H5.226c-1.366 0-2.449 1.19-2.449 3v71.953"/>
 <radialGradient id="e" cx="48.312" cy="144.284" r="35.609" gradientUnits="userSpaceOnUse">
  <stop offset=".703" stop-opacity=".2"/>
  <stop offset="1" stop-opacity="0"/>
 </radialGradient>
 <path fill="none" stroke-linejoin="round" stroke="url(#e)" d="M13.203 144.284h70.218"/>
 <radialGradient id="f" cx="24.287" cy="114.951" r="14.204" gradientUnits="userSpaceOnUse">
  <stop offset=".703" stop-opacity=".2"/>
  <stop offset="1" stop-opacity="0"/>
 </radialGradient>
 <path fill="none" stroke-linejoin="round" stroke="url(#f)" d="M10.282 114.951h28.01"/>
 <radialGradient id="g" cx="79.176" cy="116.284" r="14.204" gradientUnits="userSpaceOnUse">
  <stop offset=".703" stop-opacity=".2"/>
  <stop offset="1" stop-opacity="0"/>
 </radialGradient>
 <path fill="none" stroke-linejoin="round" stroke="url(#g)" d="M65.171 116.284H93.18"/>
 <radialGradient id="h" cx="57.234" cy="117.395" r="31.721" gradientUnits="userSpaceOnUse">
  <stop offset=".703" stop-color="#FFEFBD" stop-opacity=".098"/>
  <stop offset="1" stop-color="#FFE89F" stop-opacity="0"/>
 </radialGradient>
 <path fill="none" stroke-linejoin="round" stroke="url(#h)" d="M25.958 117.395H88.51"/>
 <radialGradient id="i" cx="56.755" cy="92.478" r="16.486" gradientUnits="userSpaceOnUse">
  <stop offset=".703" stop-color="#FFEFBD" stop-opacity=".2"/>
  <stop offset="1" stop-color="#FFE89F" stop-opacity="0"/>
 </radialGradient>
 <path fill="none" stroke-linejoin="round" stroke="url(#i)" d="M40.5 92.478h32.51"/>
 <radialGradient id="j" cx="69.505" cy="77.562" r="19.276" gradientUnits="userSpaceOnUse">
  <stop offset=".703" stop-color="#FFEFBD" stop-opacity=".094"/>
  <stop offset="1" stop-color="#FFE89F" stop-opacity="0"/>
 </radialGradient>
 <path fill="none" stroke-linejoin="round" stroke="url(#j)" d="M50.5 77.562h38.01"/>
 <radialGradient id="k" cx="26.495" cy="67.062" r="14.204" gradientUnits="userSpaceOnUse">
  <stop offset=".703" stop-color="#FFEFBD" stop-opacity=".2"/>
  <stop offset="1" stop-color="#FFE89F" stop-opacity="0"/>
 </radialGradient>
 <path fill="none" stroke-linejoin="round" stroke="url(#k)" d="M12.49 67.062H40.5"/>
 <radialGradient id="l" cx="56.495" cy="55.062" r="14.204" gradientUnits="userSpaceOnUse">
  <stop offset=".703" stop-color="#FFEFBD" stop-opacity=".094"/>
  <stop offset="1" stop-color="#FFE89F" stop-opacity="0"/>
 </radialGradient>
 <path fill="none" stroke-linejoin="round" stroke="url(#l)" d="M42.49 55.062H70.5"/>
 <radialGradient id="m" cx="45.609" cy="85.84" r="35.609" gradientUnits="userSpaceOnUse">
  <stop offset=".703" stop-opacity=".2"/>
  <stop offset="1" stop-opacity="0"/>
 </radialGradient>
 <path fill="none" stroke-linejoin="round" stroke="url(#m)" d="M10.5 85.84h70.218"/>
 <radialGradient id="n" cx="55.609" cy="70.5" r="35.609" gradientUnits="userSpaceOnUse">
  <stop offset=".703" stop-opacity=".2"/>
  <stop offset="1" stop-opacity="0"/>
 </radialGradient>
 <path fill="none" stroke-linejoin="round" stroke="url(#n)" d="M20.5 70.5h70.218"/>
 <radialGradient id="o" cx="41.609" cy="60.5" r="35.609" gradientUnits="userSpaceOnUse">
  <stop offset=".703" stop-opacity=".2"/>
  <stop offset="1" stop-opacity="0"/>
 </radialGradient>
 <path fill="none" stroke-linejoin="round" stroke="url(#o)" d="M6.5 60.5h70.218"/>
 <radialGradient id="p" cx="55.391" cy="75.611" r="35.609" gradientUnits="userSpaceOnUse">
  <stop offset=".703" stop-opacity=".2"/>
  <stop offset="1" stop-opacity="0"/>
 </radialGradient>
 <path fill="none" stroke-linejoin="round" stroke="url(#p)" d="M20.282 75.611H90.5"/>
 <radialGradient id="q" cx="41.613" cy="100.5" r="35.609" gradientUnits="userSpaceOnUse">
  <stop offset=".703" stop-opacity=".2"/>
  <stop offset="1" stop-opacity="0"/>
 </radialGradient>
 <path fill="none" stroke-linejoin="round" stroke="url(#q)" d="M6.504 100.5h70.218"/>
 <radialGradient id="r" cx="41.703" cy="120.5" r="21.727" gradientUnits="userSpaceOnUse">
  <stop offset=".703" stop-opacity=".2"/>
  <stop offset="1" stop-opacity="0"/>
 </radialGradient>
 <path fill="none" stroke-linejoin="round" stroke="url(#r)" d="M20.282 120.5h42.843"/>
 <radialGradient id="s" cx="61.922" cy="110.5" r="21.727" gradientUnits="userSpaceOnUse">
  <stop offset=".703" stop-opacity=".2"/>
  <stop offset="1" stop-opacity="0"/>
 </radialGradient>
 <path fill="none" stroke-linejoin="round" stroke="url(#s)" d="M40.5 110.5h42.843"/>
 <radialGradient id="t" cx="61.922" cy="91.5" r="21.727" gradientUnits="userSpaceOnUse">
  <stop offset=".703" stop-opacity=".2"/>
  <stop offset="1" stop-opacity="0"/>
 </radialGradient>
 <path fill="none" stroke-linejoin="round" stroke="url(#t)" d="M40.5 91.5h42.843"/>
 <radialGradient id="u" cx="33.366" cy="80.5" r="21.727" gradientUnits="userSpaceOnUse">
  <stop offset=".703" stop-opacity=".102"/>
  <stop offset="1" stop-opacity="0"/>
 </radialGradient>
 <path fill="none" stroke-linejoin="round" stroke="url(#u)" d="M11.945 80.5h42.843"/>
 <radialGradient id="v" cx="26.477" cy="94.611" r="21.727" gradientUnits="userSpaceOnUse">
  <stop offset=".703" stop-opacity=".102"/>
  <stop offset="1" stop-opacity="0"/>
 </radialGradient>
 <path fill="none" stroke-linejoin="round" stroke="url(#v)" d="M5.056 94.611h42.843"/>
 <radialGradient id="w" cx="29.079" cy="105.944" r="21.727" gradientUnits="userSpaceOnUse">
  <stop offset=".703" stop-opacity=".102"/>
  <stop offset="1" stop-opacity="0"/>
 </radialGradient>
 <path fill="none" stroke-linejoin="round" stroke="url(#w)" d="M7.657 105.944H50.5"/>
 <radialGradient id="x" cx="71.921" cy="125.944" r="21.727" gradientUnits="userSpaceOnUse">
  <stop offset=".703" stop-opacity=".102"/>
  <stop offset="1" stop-opacity="0"/>
 </radialGradient>
 <path fill="none" stroke-linejoin="round" stroke="url(#x)" d="M50.5 125.944h42.843"/>
 <radialGradient id="y" cx="89.366" cy="95.722" r="8.992" gradientUnits="userSpaceOnUse">
  <stop offset=".703" stop-opacity=".102"/>
  <stop offset="1" stop-opacity="0"/>
 </radialGradient>
 <path fill="none" stroke-linejoin="round" stroke="url(#y)" d="M80.5 95.722h17.732"/>
 <radialGradient id="z" cx="81.634" cy="64.722" r="8.992" gradientUnits="userSpaceOnUse">
  <stop offset=".703" stop-opacity=".102"/>
  <stop offset="1" stop-opacity="0"/>
 </radialGradient>
 <path fill="none" stroke-linejoin="round" stroke="url(#z)" d="M72.768 64.722H90.5"/>
 <radialGradient id="A" cx="87.19" cy="55.389" r="8.992" gradientUnits="userSpaceOnUse">
  <stop offset=".703" stop-opacity=".102"/>
  <stop offset="1" stop-opacity="0"/>
 </radialGradient>
 <path fill="none" stroke-linejoin="round" stroke="url(#A)" d="M78.324 55.389h17.732"/>
 <radialGradient id="B" cx="17.19" cy="65.166" r="8.992" gradientUnits="userSpaceOnUse">
  <stop offset=".703" stop-opacity=".102"/>
  <stop offset="1" stop-opacity="0"/>
 </radialGradient>
 <path fill="none" stroke-linejoin="round" stroke="url(#B)" d="M8.324 65.166h17.732"/>
 <radialGradient id="C" cx="71.634" cy="106.5" r="8.992" gradientUnits="userSpaceOnUse">
  <stop offset=".703" stop-opacity=".102"/>
  <stop offset="1" stop-opacity="0"/>
 </radialGradient>
 <path fill="none" stroke-linejoin="round" stroke="url(#C)" d="M62.768 106.5H80.5"/>
 <radialGradient id="D" cx="57.146" cy="154.173" r="35.609" gradientUnits="userSpaceOnUse">
  <stop offset=".703" stop-opacity=".2"/>
  <stop offset="1" stop-opacity="0"/>
 </radialGradient>
 <path fill="none" stroke-linejoin="round" stroke="url(#D)" d="M22.037 154.173h70.218"/>
 <radialGradient id="E" cx="27.768" cy="161.173" r="23.055" gradientUnits="userSpaceOnUse">
  <stop offset=".703" stop-opacity=".2"/>
  <stop offset="1" stop-opacity="0"/>
 </radialGradient>
 <path fill="none" stroke-linejoin="round" stroke="url(#E)" d="M5.037 161.173H50.5"/>
 <radialGradient id="F" cx="70.435" cy="166.673" r="23.055" gradientUnits="userSpaceOnUse">
  <stop offset=".703" stop-opacity=".2"/>
  <stop offset="1" stop-opacity="0"/>
 </radialGradient>
 <path fill="none" stroke-linejoin="round" stroke="url(#F)" d="M47.704 166.673h45.463"/>
 <radialGradient id="G" cx="27.768" cy="138.173" r="23.055" gradientUnits="userSpaceOnUse">
  <stop offset=".703" stop-opacity=".2"/>
  <stop offset="1" stop-opacity="0"/>
 </radialGradient>
 <path fill="none" stroke-linejoin="round" stroke="url(#G)" d="M5.037 138.173H50.5"/>
 <path fill="none" stroke-width="1.38" stroke-linejoin="round" stroke="#FFFEFD" stroke-opacity=".306" d="M10.5 121.5h80"/>
 <path fill="none" stroke-width="1.38" stroke-linejoin="round" stroke="#2C2C2C" stroke-opacity=".451" d="M10.5 59.355h80"/>
 <radialGradient id="H" cx="85.364" cy="140.5" r="10.751" gradientUnits="userSpaceOnUse">
  <stop offset=".703" stop-opacity=".2"/>
  <stop offset="1" stop-opacity="0"/>
 </radialGradient>
 <path fill="none" stroke-linejoin="round" stroke="url(#H)" d="M74.764 140.5h21.199"/>
 <radialGradient id="I" cx="73.697" cy="158" r="10.751" gradientUnits="userSpaceOnUse">
  <stop offset=".703" stop-opacity=".2"/>
  <stop offset="1" stop-opacity="0"/>
 </radialGradient>
 <path fill="none" stroke-linejoin="round" stroke="url(#I)" d="M63.097 158h21.199"/>
 <radialGradient id="J" cx="51.099" cy="150.5" r="10.751" gradientUnits="userSpaceOnUse">
  <stop offset=".703" stop-opacity=".125"/>
  <stop offset="1" stop-opacity="0"/>
 </radialGradient>
 <path fill="none" stroke-linejoin="round" stroke="url(#J)" d="M40.5 150.5h21.199"/>
 <radialGradient id="K" cx="44.901" cy="141.5" r="10.751" gradientUnits="userSpaceOnUse">
  <stop offset=".703" stop-opacity=".125"/>
  <stop offset="1" stop-opacity="0"/>
 </radialGradient>
 <path fill="none" stroke-linejoin="round" stroke="url(#K)" d="M34.301 141.5H55.5"/>
 <radialGradient id="L" cx="74.813" cy="162.5" r="20.137" gradientUnits="userSpaceOnUse">
  <stop offset=".703" stop-opacity=".125"/>
  <stop offset="1" stop-opacity="0"/>
 </radialGradient>
 <path fill="none" stroke-linejoin="round" stroke="url(#L)" d="M54.958 162.5h39.709"/>
 <radialGradient id="M" cx="34.146" cy="157.166" r="20.475" gradientUnits="userSpaceOnUse">
  <stop offset=".703" stop-opacity=".086"/>
  <stop offset="1" stop-opacity="0"/>
 </radialGradient>
 <path fill="none" stroke-linejoin="round" stroke="url(#M)" d="M13.958 157.166h40.375"/>
 <radialGradient id="N" cx="77.646" cy="147.5" r="20.475" gradientUnits="userSpaceOnUse">
  <stop offset=".703" stop-opacity=".086"/>
  <stop offset="1" stop-opacity="0"/>
 </radialGradient>
 <path fill="none" stroke-linejoin="round" stroke="url(#N)" d="M57.458 147.5h40.375"/>
 <radialGradient id="O" cx="70.313" cy="137" r="20.475" gradientUnits="userSpaceOnUse">
  <stop offset=".703" stop-opacity=".086"/>
  <stop offset="1" stop-opacity="0"/>
 </radialGradient>
 <path fill="none" stroke-linejoin="round" stroke="url(#O)" d="M50.125 137H90.5"/>
 <radialGradient id="P" cx="32.208" cy="168.5" r="12.255" gradientUnits="userSpaceOnUse">
  <stop offset=".703" stop-opacity=".086"/>
  <stop offset="1" stop-opacity="0"/>
 </radialGradient>
 <path fill="none" stroke-linejoin="round" stroke="url(#P)" d="M20.125 168.5h24.167"/>
 <radialGradient id="Q" cx="21.099" cy="165.666" r="10.751" gradientUnits="userSpaceOnUse">
  <stop offset=".703" stop-opacity=".2"/>
  <stop offset="1" stop-opacity="0"/>
 </radialGradient>
 <path fill="none" stroke-linejoin="round" stroke="url(#Q)" d="M10.5 165.666h21.199"/>
 <radialGradient id="R" cx="14.766" cy="150.5" r="10.751" gradientUnits="userSpaceOnUse">
  <stop offset=".703" stop-opacity=".2"/>
  <stop offset="1" stop-opacity="0"/>
 </radialGradient>
 <path fill="none" stroke-linejoin="round" stroke="url(#R)" d="M4.167 150.5h21.199"/>
 <path fill="#FBFFB7" fill-opacity=".208" d="M2.84 53.09a1.84 1.84 0 011.84 1.84v71.26a1.84 1.84 0 11-3.68 0V54.93a1.84 1.84 0 011.84-1.84z"/>
 <path fill="#FBFFB7" fill-opacity=".125" d="M1.92 127.393c.455 0 .824.37.824.825v37.559a.825.825 0 11-1.65 0v-37.559c0-.455.37-.825.825-.825z"/>
 <radialGradient id="S" cx="4.125" cy="111.179" r="1.754" gradientUnits="userSpaceOnUse" gradientTransform="rotate(228.406 4.125 111.18)">
  <stop offset="0" stop-color="#FFE183" stop-opacity=".518"/>
  <stop offset=".537" stop-color="#FFE183" stop-opacity=".259"/>
  <stop offset="1" stop-color="#FFE183" stop-opacity="0"/>
 </radialGradient>
 <path fill="url(#S)" d="M1.188 113.143c-.436-.651.526-2.059 2.148-3.144s3.29-1.436 3.727-.784c.436.652-.526 2.06-2.148 3.145-1.622 1.084-3.29 1.435-3.727.783z"/>
 <radialGradient id="T" cx="3.494" cy="83.062" r=".881" gradientUnits="userSpaceOnUse" gradientTransform="rotate(225.868 3.494 83.062)">
  <stop offset="0" stop-color="#FFE183" stop-opacity=".267"/>
  <stop offset=".537" stop-color="#FFE183" stop-opacity=".133"/>
  <stop offset="1" stop-color="#FFE183" stop-opacity="0"/>
 </radialGradient>
 <path fill="url(#T)" d="M.557 85.026c-.204-.305.946-1.431 2.568-2.516s3.102-1.717 3.306-1.413c.204.305-.946 1.432-2.568 2.516C2.24 84.698.76 85.331.557 85.026z"/>
 <radialGradient id="U" cx="2.17" cy="66.957" r="1.492" gradientUnits="userSpaceOnUse" gradientTransform="rotate(234.355 2.17 66.957)">
  <stop offset="0" stop-color="#FFE183" stop-opacity=".141"/>
  <stop offset=".537" stop-color="#FFE183" stop-opacity=".071"/>
  <stop offset="1" stop-color="#FFE183" stop-opacity="0"/>
 </radialGradient>
 <path fill="url(#U)" d="M1.612 68.447c-.436-.651-1.854-1.585-.231-2.67 1.622-1.085 3.29-1.436 3.726-.784.436.652-.526 2.06-2.148 3.144-1.622 1.085-.911.962-1.347.31z"/>
 <path fill-opacity=".216" d="M100.1 73.5v7s1.014-5.716-6.32-5.716c2.507.062 5.75-.028 6.32-1.284zm-.144 40v7s1.514-5.716-5.82-5.716c2.508.062 5.25-.028 5.82-1.284zm.164-20.195v12.849s1.86-10.492-11.6-10.492c4.601.115 10.554-.05 11.6-2.357zM.58 105.138v12.85s-1.86-10.492 11.6-10.492c-4.601.114-10.554-.051-11.6-2.358zM.545 80.5v6.32s-1.042-5.16 6.497-5.16c-2.578.056-5.911-.026-6.497-1.16zm0-16.322V70.5s-1.042-5.162 6.497-5.162c-2.578.057-5.911-.025-6.497-1.16zm.376 83.939v12.569s-2.814-10.263 17.539-10.263c-6.958.112-15.958-.05-17.539-2.306zM.665 136.7v4.8s-2.813-3.919 17.54-3.919c-6.958.043-15.96-.019-17.54-.881zm99.388 16.612v4.509s1.861-3.682-11.6-3.682c4.602.04 10.554-.018 11.6-.827z"/>
 <path fill="#222" fill-opacity=".271" d="M100.5 135.31v29.5s.359 5.69-4.82 5.69h-91s4.512-2.857 10.166-3.023c5.654-.167 77-.167 79.667-.334 2.666-.166 3.666-.689 3.833-4.166.167-3.477 2.154-27.667 2.154-27.667z"/>
 <path fill="#694B32" stroke-linejoin="round" stroke="#000" stroke-opacity=".431" d="M10.5 60.5h80v60h-80z"/>
 <linearGradient id="W" gradientUnits="objectBoundingBox" x1=".534" y1=".072" x2="1.445" y2=".072" gradientTransform="rotate(90 .534 .072)">
  <stop offset="0" stop-color="#823A2A"/>
  <stop offset=".732"/>
 </linearGradient>
 <linearGradient id="V" gradientUnits="objectBoundingBox" x1=".535" y1=".058" x2="1.476" y2=".058" gradientTransform="rotate(90 .535 .058)">
  <stop offset="0" stop-color="#A18238"/>
  <stop offset=".255" stop-color="#B0874D"/>
  <stop offset=".308" stop-color="#A6813D"/>
  <stop offset=".522" stop-color="#9D7B2D"/>
  <stop offset=".882" stop-color="#A9841D"/>
  <stop offset="1" stop-color="#B58D0E"/>
 </linearGradient>
 <path fill="url(#V)" stroke-width="1.032" stroke-linejoin="round" stroke="url(#W)" d="M38.436 118.6H66.5a4 4 0 014 4v23.9a4 4 0 01-4 4H38.436a4 4 0 01-4-4v-23.9a4 4 0 014-4z"/>
 <linearGradient id="X" gradientUnits="objectBoundingBox" x1=".486" y1=".037" x2="1.424" y2=".037" gradientTransform="rotate(90 .486 .037)">
  <stop offset="0" stop-color="#82682A"/>
  <stop offset=".72" stop-color="#413415"/>
  <stop offset="1"/>
 </linearGradient>
 <path fill="#E6D290" stroke-linejoin="round" stroke="url(#X)" d="M45.5 133.501h14.889a4 4 0 014 4v16.14a4 4 0 01-4 4H45.5a4 4 0 01-4-4v-16.14a4 4 0 014-4z"/>
 <linearGradient id="Y" gradientUnits="objectBoundingBox" x1="0" y1=".5" x2="1" y2=".5">
  <stop offset="0" stop-color="#C1AD6B"/>
  <stop offset=".168" stop-color="#A7955D"/>
  <stop offset=".21" stop-color="#8E7E50"/>
  <stop offset=".664" stop-color="#9F8846"/>
  <stop offset="1" stop-color="#B0933D"/>
 </linearGradient>
 <path fill="url(#Y)" stroke-linejoin="round" stroke="#423E34" d="M100.456 150.9l.044 15.555s-1.075 4.045-4.933 4.045c-5.116 0-12.39-.045-12.39-.045l-.033-14.889s10.445.156 12.89-.066c2.444-.223 3.977-1.712 4.422-4.6z"/>
 <path fill="#BCAB74" d="M99.856 153.7l.044 1.555s-1.411 2.245-4.333 2.245c-5.116 0-11.89-.045-11.89-.045l-.033-1.389s9.945.156 12.39-.066c2.444-.223 3.527-1.42 3.822-2.3z"/>
 <radialGradient id="Z" cx="84.211" cy="162.858" r="23.933" gradientUnits="userSpaceOnUse" gradientTransform="rotate(90 84.211 162.858)">
  <stop offset=".695" stop-color="#DCC098" stop-opacity=".322"/>
  <stop offset=".952" stop-color="#EDDFCB" stop-opacity=".161"/>
  <stop offset=".991" stop-color="#FFF" stop-opacity="0"/>
 </radialGradient>
 <path fill="none" stroke-linecap="round" stroke-linejoin="round" stroke="url(#Z)" d="M84.211 168.469v-11.222"/>
 <linearGradient id="aa" gradientUnits="objectBoundingBox" x1="0" y1=".5" x2="1" y2=".5">
  <stop offset="0" stop-color="#C1AD6B"/>
  <stop offset=".168" stop-color="#A7955D"/>
  <stop offset=".21" stop-color="#8E7E50"/>
  <stop offset=".664" stop-color="#9F8846"/>
  <stop offset="1" stop-color="#B0933D"/>
 </linearGradient>
 <path fill="url(#aa)" stroke-linejoin="round" stroke="#423E34" d="M100.456 124.677l.044 15.556s-1.075 4.044-4.933 4.044c-5.116 0-12.39-.044-12.39-.044l-.033-14.889s10.445.156 12.89-.067c2.444-.222 3.977-1.711 4.422-4.6z"/>
 <path fill="#BCAB74" d="M99.856 127.478l.044 1.555s-1.411 2.244-4.333 2.244c-5.116 0-11.89-.044-11.89-.044l-.033-1.389s9.945.156 12.39-.066c2.444-.223 3.527-1.42 3.822-2.3z"/>
 <radialGradient id="ab" cx="84.211" cy="136.636" r="23.933" gradientUnits="userSpaceOnUse" gradientTransform="rotate(90 84.211 136.636)">
  <stop offset=".695" stop-color="#DCC098" stop-opacity=".322"/>
  <stop offset=".952" stop-color="#EDDFCB" stop-opacity=".161"/>
  <stop offset=".991" stop-color="#FFF" stop-opacity="0"/>
 </radialGradient>
 <path fill="none" stroke-linecap="round" stroke-linejoin="round" stroke="url(#ab)" d="M84.211 142.247v-11.222"/>
 <linearGradient id="ac" gradientUnits="objectBoundingBox" x1="-.001" y1=".58" x2=".998" y2=".58" gradientTransform="rotate(-.622 0 .58)">
  <stop offset="0" stop-color="#C1AD6B"/>
  <stop offset=".168" stop-color="#A7955D"/>
  <stop offset=".21" stop-color="#8E7E50"/>
  <stop offset=".664" stop-color="#9F8846"/>
  <stop offset="1" stop-color="#B0933D"/>
 </linearGradient>
 <path fill="url(#ac)" stroke-linejoin="round" stroke="#423E34" d="M.544 124.011L.5 139.566s1.075 4.045 4.933 4.045c5.116 0 12.39-.045 12.39-.045l.032-14.889s-10.444.156-12.888-.066c-2.445-.222-3.978-1.712-4.423-4.6z"/>
 <path fill="#BCAB74" d="M1.144 126.811l-.044 1.556s1.411 2.244 4.333 2.244c5.116 0 11.89-.045 11.89-.045l.033-1.389s-9.945.156-12.39-.066c-2.444-.222-3.527-1.42-3.822-2.3z"/>
 <radialGradient id="ad" cx="16.789" cy="136.865" r="27.441" gradientUnits="userSpaceOnUse" gradientTransform="rotate(90 16.789 136.865)">
  <stop offset=".695" stop-color="#31281C" stop-opacity=".322"/>
  <stop offset=".952" stop-color="#98938D" stop-opacity=".161"/>
  <stop offset=".991" stop-color="#FFF" stop-opacity="0"/>
 </radialGradient>
 <path fill="none" stroke-linecap="round" stroke-linejoin="round" stroke="url(#ad)" d="M16.789 143.372v-13.014"/>
 <path fill-opacity=".196" d="M46.5 133.5h14.811a5 5 0 015 5v15.909a5 5 0 01-5 5H46.5a5 5 0 01-5-5V138.5a5 5 0 015-5z"/>
 <linearGradient id="ae" gradientUnits="objectBoundingBox" x1=".499" y1=".014" x2="1.488" y2=".014" gradientTransform="rotate(90 .499 .014)">
  <stop offset="0" stop-color="#C1AD6B"/>
  <stop offset=".168" stop-color="#A7955D"/>
  <stop offset=".21" stop-color="#8E7E50"/>
  <stop offset=".664" stop-color="#9F8846"/>
  <stop offset="1" stop-color="#B0933D"/>
 </linearGradient>
 <path fill="url(#ae)" d="M45.05 134.906h15.789a3 3 0 013 3v16.166a3 3 0 01-3 3H45.05a3 3 0 01-3-3v-16.166a3 3 0 013-3z"/>
 <path stroke-linejoin="round" stroke="#423E34" d="M53.047 143.18c1.657 0 3 1.253 3 2.799 0 1.127-.714 2.098-1.743 2.542v4.694c0 .729-.6 1.32-1.338 1.32a1.329 1.329 0 01-1.338-1.32v-4.77c-.94-.472-1.58-1.399-1.58-2.466 0-1.546 1.342-2.799 3-2.799z"/>
 <linearGradient id="af" gradientUnits="objectBoundingBox" x1="-.001" y1=".58" x2=".998" y2=".58" gradientTransform="rotate(-.622 0 .58)">
  <stop offset="0" stop-color="#C1AD6B"/>
  <stop offset=".168" stop-color="#A7955D"/>
  <stop offset=".21" stop-color="#8E7E50"/>
  <stop offset=".664" stop-color="#9F8846"/>
  <stop offset="1" stop-color="#B0933D"/>
 </linearGradient>
 <path fill="url(#af)" stroke-linejoin="round" stroke="#423E34" d="M.544 150.9L.5 166.455s1.075 4.045 4.933 4.045c5.116 0 12.39-.045 12.39-.045l.032-14.889s-10.444.156-12.888-.066c-2.445-.223-3.978-1.712-4.423-4.6z"/>
 <path fill="#BCAB74" d="M1.144 153.7l-.044 1.555s1.411 2.245 4.333 2.245c5.116 0 11.89-.045 11.89-.045l.033-1.389s-9.945.156-12.39-.066c-2.444-.223-3.527-1.42-3.822-2.3z"/>
 <radialGradient id="ag" cx="16.789" cy="163.754" r="27.441" gradientUnits="userSpaceOnUse" gradientTransform="rotate(90 16.789 163.754)">
  <stop offset=".695" stop-color="#31281C" stop-opacity=".322"/>
  <stop offset=".952" stop-color="#98938D" stop-opacity=".161"/>
  <stop offset=".991" stop-color="#FFF" stop-opacity="0"/>
 </radialGradient>
 <path fill="none" stroke-linecap="round" stroke-linejoin="round" stroke="url(#ag)" d="M16.789 170.261v-13.014"/>
 <path fill="#291F17" d="M10.5 60.5h80v40h-80z"/>
 <linearGradient id="ah" gradientUnits="objectBoundingBox" x1=".5" y1=".006" x2="1.5" y2=".006" gradientTransform="rotate(90 .5 .006)">
  <stop offset=".068" stop-opacity=".008"/>
  <stop offset=".21" stop-opacity=".49"/>
  <stop offset=".757" stop-opacity=".247"/>
  <stop offset="1" stop-opacity="0"/>
 </linearGradient>
 <path fill="url(#ah)" d="M10.5 90.5h80v24.711h-80z"/>
 <linearGradient id="ai" gradientUnits="objectBoundingBox" x1=".006" y1=".5" x2="1.006" y2=".5">
  <stop offset="0" stop-opacity=".49"/>
  <stop offset=".453" stop-opacity=".247"/>
  <stop offset="1" stop-opacity="0"/>
 </linearGradient>
 <path fill="url(#ai)" d="M10.5 60.5h20v60h-20z"/>
</svg>
