<svg xmlns="http://www.w3.org/2000/svg" baseProfile="full" width="101" height="171">
 <radialGradient id="a" cx="50%" cy="50%" r="50%">
  <stop offset="0"/>
  <stop offset=".648" stop-opacity=".502"/>
  <stop offset="1" stop-opacity="0"/>
 </radialGradient>
 <ellipse fill="url(#a)" cx="48.601" cy="126.246" rx="48.131" ry="27.667"/>
 <path fill="#282935" stroke-width=".737" stroke-linejoin="round" stroke="#000" d="M66.209 126.424c1.452 0 2.63 2.579 2.63 5.761 0 3.181.64 5.728-.813 5.728-1.453 0-4.448-2.547-4.448-5.728 0-3.182 1.178-5.761 2.63-5.761zm5.888-2.222c1.453 0 2.63 2.579 2.63 5.761 0 3.181.64 5.728-.812 5.728-1.453 0-4.448-2.547-4.448-5.728 0-3.182 1.178-5.761 2.63-5.761z"/>
 <ellipse fill="#282935" stroke-width=".737" stroke-linejoin="round" stroke="#000" cx="42.391" cy="136.736" rx="16.236" ry="5.761"/>
 <linearGradient id="b" gradientUnits="objectBoundingBox" x1=".982" y1=".397" x2="1.957" y2=".397" gradientTransform="rotate(174.127 .982 .397)">
  <stop offset="0" stop-color="#B53106" stop-opacity=".996"/>
  <stop offset=".716" stop-color="#822203" stop-opacity=".996"/>
  <stop offset=".996" stop-color="#501400" stop-opacity=".996"/>
 </linearGradient>
 <path fill="url(#b)" stroke-width=".737" stroke-linejoin="round" stroke="#4A2323" d="M1.976 107.818c0-19.242 23.519-29.035 38.373-29.726 14.855-.692 29.203.754 35.898 4.493 3.404 1.901 4.023 3.111 4.023 5.185 0 1.471.219 24.309.219 36.013 0 4.778-1.327 5.865-3.004 6.56-6.395 2.65-75.51 31.341-75.51-22.525z"/>
 <path fill="#292A36" stroke-width=".737" stroke-linejoin="round" stroke="#000" d="M80.064 90.247s-.516-3.917 1.96-3.917 9.8 4.609 13.513 12.098c3.714 7.489 3.068 19.278.565 20.476-2.167 1.037-11.777 8.906-12.943 8.559-1.548-.461-2.992-1.613-2.992-5.185 0-6.683.206-32.146-.103-32.03z"/>
 <path stroke-width=".737" stroke-linejoin="round" stroke="#000" d="M87.847 112.509c1.956-.959 4.03-.497 4.63 1.033.602 1.53-.497 3.547-2.454 4.506-1.956.959-4.029.496-4.63-1.033-.6-1.53.498-3.547 2.454-4.506z"/>
 <path fill="none" stroke-width=".737" stroke-linejoin="round" stroke="#000" stroke-opacity=".325" d="M79.497 95.374c0-2.938-.62-7.143-11.76-8.18s-40.234-1.644-51.577 5.3C5.43 99.06 3.048 106.693 2.89 112.895"/>
 <path fill="#FF5E1A" fill-opacity=".38" d="M78.465 96.883c0-3.098-.908-7.472-11.805-8.565-10.897-1.093-39.353-1.734-50.448 5.588-10.493 6.925-12.688 13.169-12.637 18.636.05 5.467 12.271 6.629 22.384 6.106 22.282-1.152 48.549-8.377 50.134-8.756 1.444-.346 2.888-3.687 2.681-5.646-.206-1.959 0-7.374-.309-7.363z"/>
 <path fill="#B6502E" fill-opacity=".922" d="M79.651 90.996c.516-5.185-.103-7.604-13.358-10.802-10.722-2.586-36.91-1.993-48.07 5.185-10.883 7-12.121 12.184-13.256 16.332 3.817-5.07 10.006-11.406 18.259-13.02 22.013-4.302 36.413-2.764 42.087-2.534 10.424.423 11.398 2.87 14.338 4.84z"/>
 <path fill="#3B3D5A" fill-opacity=".922" d="M83.107 87.482c1.365.924 10.287 4.922 12.763 14.341.632 2.406-2.919-2.36-9.05-2.416-2.32-.021-4.447 2.119-4.622.401-.31-3.024-1.393-13.134.909-12.326z"/>
 <radialGradient id="c" cx="50%" cy="50%" r="50%" gradientTransform="rotate(-23) translate(-0.1, 0.1)">
  <stop offset="0" stop-color="#F8FF96" stop-opacity=".486"/>
  <stop offset=".358" stop-color="#FBFFCA" stop-opacity=".247"/>
  <stop offset="1" stop-color="#FFF" stop-opacity="0"/>
 </radialGradient>
 <path fill="url(#c)" d="M68.53 83.148c19.982 2.279 25.134 9.873 24.718 15.931-.416 6.059-6.243 8.289-26.223 6.01-19.981-2.279-35.842-9.038-35.426-15.097.416-6.059 16.951-9.123 36.932-6.844z"/>
 <path fill="#DD4F35" fill-opacity=".922" d="M78.207 85.754c-1.29-1.44-8.097-5.243-15.989-5.588-7.891-.346-30.07-1.901-42.397 5.07-5.746 3.249-10.16 7.143-13.513 13.019C8.99 95.72 17.294 84.14 41.561 83.363c11.935-.383 17.227-.26 21.43-.26 4.41 0 11.657.98 15.216 2.65z"/>
 <path fill="#400F3E" fill-opacity=".247" d="M79.537 120.476c-.567-.173 1.084 8.469-2.475 9.333-3.347.812-26.614 9.678-42.552 9.505-15.937-.173-24.602-7.95-26.923-11.406-2.321-3.457 10.625 3.341 31.256 2.535 21.757-.851 36.362-4.609 37.755-6.683 1.392-2.074 1.856-5.012 2.94-3.284z"/>
 <linearGradient id="d" gradientUnits="objectBoundingBox" x1="-.036" y1=".38" x2="1.054" y2=".38" gradientTransform="rotate(-.357 -.036 .38)">
  <stop offset="0" stop-color="#823117" stop-opacity=".478"/>
  <stop offset=".59" stop-color="#C04D0B" stop-opacity=".478"/>
  <stop offset=".996" stop-color="#FF6900" stop-opacity=".478"/>
 </linearGradient>
 <path fill="url(#d)" d="M77.61 129.135c-1.16 1.579-7.468 3.291-15.072 5.679-12.545 3.939-32.377 6.959-45.245 1.289-6-2.643-9.65-6.173-2.35-4.385 5.5 3.167 15.858 5.671 24.114 5.188 11.923-.697 29.302-4.688 38.552-7.771z"/>
 <path fill="#FFF" fill-opacity=".922" d="M88.108 113.751c.599 0 1.083.541 1.083 1.21 0 .668-.484 1.209-1.083 1.209-.598 0-1.083-.541-1.083-1.209 0-.669.485-1.21 1.083-1.21z"/>
 <radialGradient id="e" cx="87.548" cy="91.97" r="4.381" gradientUnits="userSpaceOnUse" gradientTransform="rotate(-20.625 87.548 91.97)">
  <stop offset="0" stop-color="#8F96FF" stop-opacity=".486"/>
  <stop offset="1" stop-color="#8087FF" stop-opacity="0"/>
 </radialGradient>
 <path fill="url(#e)" d="M88.115 91.021c2.12 1.581 3.583 3.288 3.27 3.812-.314.525-2.286-.332-4.405-1.913-2.12-1.582-3.583-3.288-3.27-3.813.315-.524 2.287.333 4.405 1.914z"/>
 <radialGradient id="f" cx="86.97" cy="123.059" r="6.833" gradientUnits="userSpaceOnUse" gradientTransform="rotate(-80.443 86.97 123.059)">
  <stop offset=".017" stop-color="#6576FF" stop-opacity=".427"/>
  <stop offset="1" stop-color="#6C72C7" stop-opacity="0"/>
 </radialGradient>
 <path fill="url(#f)" d="M86.369 121.61c2.977-1.541 5.66-2.141 5.991-1.342.332.8-1.812 2.698-4.79 4.239-2.977 1.542-5.66 2.142-5.991 1.342-.332-.8 1.812-2.697 4.79-4.239z"/>
 <radialGradient id="g" cx="70.074" cy="82.243" r="4.272" gradientUnits="userSpaceOnUse" gradientTransform="rotate(-21.81 70.074 82.243)">
  <stop offset="0" stop-color="#FEFFEF" stop-opacity=".486"/>
  <stop offset="1" stop-color="#FFF" stop-opacity="0"/>
 </radialGradient>
 <path fill="url(#g)" d="M70.24 81.376c2.492.591 4.439 1.46 4.348 1.938-.092.48-2.186.389-4.679-.203-2.493-.591-4.44-1.46-4.348-1.939.09-.48 2.185-.388 4.678.204z"/>
 <radialGradient id="h" cx="10.881" cy="104.005" r="13.797" gradientUnits="userSpaceOnUse" gradientTransform="rotate(-96.82 10.88 104.005)">
  <stop offset="0" stop-color="#FFA95D" stop-opacity=".486"/>
  <stop offset=".384" stop-color="#FFA95D" stop-opacity=".247"/>
  <stop offset="1" stop-color="#FFA95D" stop-opacity="0"/>
 </radialGradient>
 <path fill="url(#h)" d="M3.42 100.018c3.53-7.581 9.732-11.942 13.853-9.74s4.6 10.133 1.07 17.714c-3.531 7.581-9.734 11.941-13.855 9.739-4.12-2.202-4.599-10.133-1.069-17.713z"/>
 <radialGradient id="i" cx="9.639" cy="126.411" r="9.518" gradientUnits="userSpaceOnUse" gradientTransform="rotate(208.728 9.64 126.411)">
  <stop offset="0" stop-color="#FFA95D" stop-opacity=".306"/>
  <stop offset=".542" stop-color="#FFA95D" stop-opacity=".157"/>
  <stop offset="1" stop-color="#FFA95D" stop-opacity="0"/>
 </radialGradient>
 <path fill="url(#i)" d="M6.915 127.802c-3.934-6.256-4.445-12.445-1.667-14 3.8-2.129 7.356 2.527 11.29 8.783 3.934 6.255 8.298 10.77 4.488 12.883-3.81 2.113-10.178-1.411-14.111-7.666z"/>
 <radialGradient id="j" cx="37.724" cy="138.228" r="9.115" gradientUnits="userSpaceOnUse" gradientTransform="rotate(-24.658 37.723 138.228)">
  <stop offset="0" stop-color="#FEFFEF" stop-opacity=".2"/>
  <stop offset="1" stop-color="#FFF" stop-opacity="0"/>
 </radialGradient>
 <path fill="url(#j)" d="M37.711 137.341c4.806-.083 8.708.247 8.714.737.007.49-3.883.954-8.69 1.037-4.805.083-8.707-.247-8.713-.737-.007-.49 3.883-.954 8.69-1.037z"/>
 <path fill="#5B4B87" d="M92.176 114.024s.207 1.959-1.134 3.111c-1.341 1.152-3.404.691-3.404.691s1.96.115 2.888-1.152c.928-1.267 1.754-2.65 1.65-2.65z"/>
 <ellipse fill-opacity=".251" cx="22.976" cy="107.758" rx="5.467" ry="4.263"/>
 <ellipse fill-opacity=".376" cx="21.738" cy="122.16" rx="5.467" ry="4.263"/>
 <path fill-opacity=".376" d="M13.447 111.099c1.858 0 3.365 1.341 3.365 2.996 0 1.654-1.507 2.996-3.365 2.996-1.859 0-3.365-1.342-3.365-2.996 0-1.655 1.506-2.996 3.365-2.996z"/>
 <ellipse fill-opacity=".376" cx="12.089" cy="104.359" rx="3.039" ry="3.053"/>
 <ellipse fill="#693422" fill-opacity=".706" cx="18.691" cy="98.656" rx="2.583" ry="2.014"/>
 <ellipse fill="#693422" fill-opacity=".624" cx="30.915" cy="101.421" rx="2.583" ry="2.014"/>
 <ellipse fill="#693422" fill-opacity=".514" cx="37.582" cy="96.421" rx="2.583" ry="2.014"/>
 <path fill="#693422" fill-opacity=".514" d="M37.915 106.24c1.427 0 2.583.902 2.583 2.014 0 1.113-1.156 2.014-2.583 2.014-1.427 0-2.583-.901-2.583-2.014 0-1.112 1.156-2.014 2.583-2.014z"/>
 <ellipse fill="#693422" fill-opacity=".514" cx="38.082" cy="121.421" rx="2.583" ry="2.014"/>
 <ellipse fill="#693422" fill-opacity=".514" cx="37.582" cy="131.921" rx="2.583" ry="2.014"/>
 <ellipse fill="#693422" fill-opacity=".302" cx="45.915" cy="126.421" rx="2.583" ry="2.014"/>
 <ellipse fill="#693422" fill-opacity=".302" cx="45.415" cy="115.088" rx="2.583" ry="2.014"/>
 <ellipse fill="#693422" fill-opacity=".302" cx="44.582" cy="101.921" rx="2.583" ry="2.014"/>
 <ellipse fill="#693422" fill-opacity=".102" cx="46.471" cy="94.032" rx="2.583" ry="2.014"/>
 <ellipse fill="#693422" fill-opacity=".102" cx="52.693" cy="107.365" rx="2.583" ry="2.014"/>
 <path fill="#693422" fill-opacity=".102" d="M54.026 120.684c1.427 0 2.583.902 2.583 2.015 0 1.112-1.156 2.014-2.583 2.014-1.427 0-2.583-.902-2.583-2.014 0-1.113 1.157-2.015 2.583-2.015z"/>
 <path fill="#693422" fill-opacity=".424" d="M31.518 80.087c1.417-.164 2.67.6 2.796 1.705.128 1.105-.918 2.133-2.335 2.296-1.418.163-2.67-.6-2.797-1.705-.127-1.105.919-2.133 2.336-2.296z"/>
 <ellipse fill="#693422" fill-opacity=".204" cx="38.978" cy="80.86" rx="2.583" ry="1.525"/>
 <path fill-opacity=".251" d="M30.582 112.74c1.426 0 2.583.902 2.583 2.014 0 1.113-1.157 2.014-2.583 2.014-1.427 0-2.584-.901-2.584-2.014 0-1.112 1.157-2.014 2.584-2.014z"/>
 <ellipse fill-opacity=".251" cx="30.415" cy="127.754" rx="2.583" ry="2.014"/>
 <ellipse fill-opacity=".251" cx="18.082" cy="129.088" rx="2.583" ry="2.014"/>
 <ellipse fill="#693422" fill-opacity=".424" cx="26.415" cy="95.088" rx="2.583" ry="2.014"/>
 <path fill="#693422" fill-opacity=".722" d="M24.174 82.929c1.403-.26 2.648.113 2.78.83.133.72-.896 1.511-2.299 1.77-1.403.26-2.648-.112-2.78-.83-.133-.719.897-1.511 2.3-1.77z"/>
 <path fill="#693422" fill-opacity=".922" d="M17.654 87.052c1.237-.433 2.357-.367 2.502.147.145.515-.74 1.284-1.978 1.718-1.237.433-2.357.368-2.501-.147-.145-.515.74-1.284 1.977-1.718zm-6.771 4.493c1.02-.8 2.064-1.105 2.33-.68.268.424-.343 1.417-1.363 2.217s-2.063 1.105-2.33.68c-.267-.424.344-1.417 1.364-2.217z"/>
 <ellipse fill-opacity=".557" cx="6.312" cy="110.35" rx="1.913" ry="2.014"/>
 <path fill="#693422" fill-opacity=".922" d="M6.127 96.29c.59-.259 1.177-.157 1.312.227.135.383-.233.904-.823 1.163s-1.176.157-1.311-.227c-.135-.383.233-.904.822-1.163z"/>
 <ellipse fill-opacity=".345" cx="11.058" cy="121.296" rx="1.913" ry="2.014"/>
</svg>
