<svg xmlns="http://www.w3.org/2000/svg" baseProfile="full" width="101" height="171">
 <radialGradient id="a" cx="50.028" cy="130.722" r="50.314" gradientUnits="userSpaceOnUse">
  <stop offset=".532" stop-color="#9A2E00" stop-opacity=".714"/>
  <stop offset=".835" stop-color="#9A2E00" stop-opacity=".357"/>
  <stop offset="1" stop-color="#9A2E00" stop-opacity="0"/>
 </radialGradient>
 <ellipse fill="url(#a)" cx="50.028" cy="130.722" rx="50.222" ry="38.667"/>
 <radialGradient id="b" cx="50.514" cy="85.849" r="30.684" gradientUnits="userSpaceOnUse">
  <stop offset="0" stop-color="#4972F2"/>
  <stop offset=".511" stop-color="#7698F8"/>
  <stop offset="1" stop-color="#A3BFFF"/>
 </radialGradient>
 <path fill="url(#b)" stroke-width="3" stroke-linejoin="round" stroke="#C7D8FF" d="M32.858 68.314H68.17v27.66H32.858z"/>
 <linearGradient id="c" gradientUnits="objectBoundingBox" x1=".546" y1=".056" x2="1.539" y2=".056" gradientTransform="rotate(90 .546 .056)">
  <stop offset="0" stop-color="#598AFF"/>
  <stop offset=".168" stop-color="#366EF2"/>
  <stop offset=".744" stop-color="#4B8BF4"/>
  <stop offset="1" stop-color="#61A8F7"/>
 </linearGradient>
 <path fill="url(#c)" stroke-linejoin="round" stroke="#A1C2FF" stroke-opacity=".396" d="M32.858 68.314H68.17l4.1-9.397H28.556l4.3 9.397z"/>
 <linearGradient id="d" gradientUnits="objectBoundingBox" x1=".513" y1=".005" x2="1.523" y2=".005" gradientTransform="rotate(90 .513 .005)">
  <stop offset="0" stop-color="#5981FF"/>
  <stop offset=".168" stop-color="#3663F2"/>
  <stop offset=".816" stop-color="#7F9CF7"/>
  <stop offset=".969" stop-color="#C9D5FC"/>
 </linearGradient>
 <path fill="url(#d)" stroke-linejoin="round" stroke="#A1B2FF" stroke-opacity=".396" d="M28.284 139.778H72.27v22H28.284v-22z"/>
 <linearGradient id="e" gradientUnits="objectBoundingBox" x1=".001" y1="-.002" x2=".994" y2="-.002" gradientTransform="rotate(71.302 0 -.002)">
  <stop offset="0" stop-color="#FFFAF2"/>
  <stop offset=".664" stop-color="#5B9FFF"/>
  <stop offset=".896" stop-color="#78ADFF"/>
  <stop offset="1" stop-color="#96BBFF"/>
 </linearGradient>
 <path fill="url(#e)" stroke-width="2" stroke-linejoin="bevel" stroke="#D7E5FF" d="M72.27 139.778l25.175-19.14L68.17 95.974l4.1 43.804z"/>
 <linearGradient id="f" gradientUnits="objectBoundingBox" x1="-.017" y1=".5" x2="1.017" y2=".5">
  <stop offset=".005" stop-color="#A3B4FF"/>
  <stop offset=".168" stop-color="#3658F2"/>
  <stop offset=".753" stop-color="#7491F8"/>
  <stop offset=".932" stop-color="#B3CAFF"/>
 </linearGradient>
 <path fill="url(#f)" stroke-linejoin="round" stroke="#A1ADFF" stroke-opacity=".396" d="M97.445 79.526L68.17 68.314v27.66l29.275 24.664V79.526z"/>
 <linearGradient id="g" gradientUnits="objectBoundingBox" x1="-.017" y1=".5" x2="1.017" y2=".5">
  <stop offset="0" stop-color="#3663F2"/>
  <stop offset=".692" stop-color="#4B7CF4"/>
  <stop offset="1" stop-color="#6196F7"/>
 </linearGradient>
 <path fill="url(#g)" stroke-linejoin="round" stroke="#A1ADFF" stroke-opacity=".396" d="M72.27 58.917l25.175 20.61L68.17 68.313l4.1-9.397z"/>
 <linearGradient id="h" gradientUnits="objectBoundingBox" x1="1" y1="-.002" x2="1.987" y2="-.002" gradientTransform="rotate(108.892 1 -.002)">
  <stop offset="0" stop-color="#5981FF"/>
  <stop offset=".199" stop-color="#3663F2"/>
  <stop offset=".753" stop-color="#4B78F4"/>
  <stop offset="1" stop-color="#618EF7"/>
 </linearGradient>
 <path fill="url(#h)" stroke-width="2" stroke-linejoin="bevel" stroke="#A1C2FF" d="M28.284 139.778l-24.839-19.14 29.413-24.664-4.574 43.804z"/>
 <linearGradient id="i" gradientUnits="objectBoundingBox" x1=".498" y1="-.002" x2="1.495" y2="-.002" gradientTransform="rotate(90 .498 -.002)">
  <stop offset="0" stop-color="#5889FC"/>
  <stop offset=".113" stop-color="#4770F7"/>
  <stop offset=".447" stop-color="#3658F2"/>
  <stop offset=".808" stop-color="#6983F8"/>
  <stop offset=".969" stop-color="#9DAFFF"/>
 </linearGradient>
 <path fill="url(#i)" stroke-linejoin="round" stroke="#A1A2FF" stroke-opacity=".396" d="M32.858 95.974H68.17l4.1 43.804H28.283l4.574-43.804z"/>
 <linearGradient id="j" gradientUnits="objectBoundingBox" x1=".309" y1=".162" x2=".894" y2=".162" gradientTransform="rotate(63.067 .309 .162)">
  <stop offset="0" stop-color="#D5DFFF"/>
  <stop offset=".556" stop-color="#1842FF"/>
  <stop offset=".863" stop-color="#7990FF"/>
  <stop offset="1" stop-color="#DBDFFF"/>
 </linearGradient>
 <path fill="url(#j)" stroke-linejoin="round" stroke="#A6A1FF" stroke-opacity=".396" d="M97.445 138.891l-25.176 22.887v-22l25.176-19.14v18.253z"/>
 <linearGradient id="k" gradientUnits="objectBoundingBox" x1="1" y1=".234" x2="1.997" y2=".234" gradientTransform="rotate(180 1 .234)">
  <stop offset="0" stop-color="#85A9FF"/>
  <stop offset=".184" stop-color="#3663F2"/>
  <stop offset=".748" stop-color="#688BF8"/>
  <stop offset="1" stop-color="#9BB3FF"/>
 </linearGradient>
 <path fill="url(#k)" stroke-linejoin="round" stroke="#A1D8FF" stroke-opacity=".396" d="M3.445 79.526l29.413-11.212v27.66L3.445 120.638V79.526z"/>
 <linearGradient id="l" gradientUnits="objectBoundingBox" x1=".603" y1=".284" x2="1.065" y2=".284" gradientTransform="rotate(111.583 .603 .284)">
  <stop offset="0" stop-color="#3643F2"/>
  <stop offset=".692" stop-color="#4B5BF4"/>
  <stop offset="1" stop-color="#6174F7"/>
 </linearGradient>
 <path fill="url(#l)" stroke-linejoin="round" stroke="#FFEEA1" stroke-opacity=".396" d="M3.445 138.891l24.84 22.887v-22l-24.84-19.14v18.253z"/>
 <linearGradient id="m" gradientUnits="objectBoundingBox" x1=".706" y1=".22" x2="1.073" y2=".22" gradientTransform="rotate(27.96 .706 .22)">
  <stop offset="0" stop-color="#96BBFF"/>
  <stop offset=".692" stop-color="#CADDFF"/>
  <stop offset="1" stop-color="#FFF"/>
 </linearGradient>
 <path fill="url(#m)" stroke-linejoin="round" stroke="#FFEEA1" stroke-opacity=".396" d="M28.557 58.917L3.445 79.527l29.413-11.213-4.3-9.397z"/>
 <radialGradient id="n" cx="50.913" cy="116.256" r="45.087" gradientUnits="userSpaceOnUse">
  <stop offset=".21" stop-color="#0025CB" stop-opacity=".38"/>
  <stop offset=".722" stop-color="#1730E5" stop-opacity=".192"/>
  <stop offset="1" stop-color="#2E3CFF" stop-opacity="0"/>
 </radialGradient>
 <ellipse fill="url(#n)" cx="50.913" cy="116.256" rx="45.005" ry="30.033"/>
 <radialGradient id="o" cx="38.752" cy="78.718" r="40.796" gradientUnits="userSpaceOnUse">
  <stop offset="0" stop-color="#A1FFC4" stop-opacity=".427"/>
  <stop offset=".648" stop-color="#C9FFA5" stop-opacity=".216"/>
  <stop offset="1" stop-color="#F2FF86" stop-opacity="0"/>
 </radialGradient>
 <path fill="url(#o)" d="M40.875 59.21c22.49 0 38.599.826 38.599 19.508 0 18.68-18.232 33.825-40.722 33.825-22.49 0-34.877 3.016-34.877-15.666 0-18.68 14.51-37.666 37-37.666z"/>
 <linearGradient id="p" gradientUnits="objectBoundingBox" x1=".506" y1=".917" x2="1.506" y2=".917" gradientTransform="rotate(-90 .506 .917)">
  <stop offset="0" stop-color="#AFC2FF" stop-opacity=".478"/>
  <stop offset=".648" stop-color="#AFC2FF" stop-opacity=".239"/>
  <stop offset="1" stop-color="#AFC2FF" stop-opacity="0"/>
 </linearGradient>
 <path fill="url(#p)" d="M34.21 97.89h32.166a4.167 4.167 0 000-8.333H34.21a4.167 4.167 0 100 8.333z"/>
 <linearGradient id="q" gradientUnits="objectBoundingBox" x1=".917" y1=".401" x2="1.942" y2=".401" gradientTransform="rotate(180 .917 .401)">
  <stop offset="0" stop-color="#FFF" stop-opacity=".902"/>
  <stop offset=".421" stop-color="#FFFED7" stop-opacity=".455"/>
  <stop offset="1" stop-color="#FFFEAF" stop-opacity="0"/>
 </linearGradient>
 <path fill="url(#q)" d="M97.918 139.75v-18.649l-8.333 5.398v18.649l8.333-5.398z"/>
 <path fill="none" stroke-linejoin="round" stroke="#002DBC" d="M72.27 161.778H28.283L3.445 138.891V79.526l25.112-20.609H72.27l25.176 20.61v59.364L72.27 161.778z"/>
</svg>
