<svg xmlns="http://www.w3.org/2000/svg" baseProfile="full" width="101" height="171">
 <path fill="#D2D2C8" stroke-linejoin="round" stroke="#505050" d="M5.5 50.5h90a5 5 0 015 5v110a5 5 0 01-5 5h-90a5 5 0 01-5-5v-110a5 5 0 015-5z"/>
 <linearGradient id="a" gradientUnits="objectBoundingBox" x1=".911" y1="1.001" x2="1.911" y2="1.001" gradientTransform="rotate(-90 .911 1)">
  <stop offset=".853" stop-color="#7A7A7A" stop-opacity=".612"/>
  <stop offset=".955" stop-color="#A4A4A4" stop-opacity=".31"/>
  <stop offset="1" stop-color="#CECECE" stop-opacity="0"/>
 </linearGradient>
 <path fill="url(#a)" d="M99.089 53.389a1 1 0 011 1v85.333a1 1 0 01-2 0l-9.922-4.111c3.722-.389 9.922 2.143 9.922-8.222v-73a1 1 0 011-1z"/>
 <linearGradient id="b" gradientUnits="objectBoundingBox" x1=".508" y1="1.004" x2="1.499" y2="1.004" gradientTransform="rotate(-90 .508 1.004)">
  <stop offset=".832" stop-color="#7A7A7A"/>
  <stop offset=".948" stop-color="#A4A4A4" stop-opacity=".502"/>
  <stop offset="1" stop-color="#CECECE" stop-opacity="0"/>
 </linearGradient>
 <path fill="url(#b)" d="M5.917 126.5h89.166a5 5 0 015 5v33.667a5 5 0 01-5 5H5.917a5 5 0 01-5-5V131.5a5 5 0 015-5z"/>
 <linearGradient id="c" gradientUnits="objectBoundingBox" x1=".042" y1=".995" x2="1.035" y2=".995" gradientTransform="rotate(-90 .042 .995)">
  <stop offset="0" stop-color="#CECECE" stop-opacity=".659"/>
  <stop offset=".692" stop-color="#E6E6E6" stop-opacity=".659"/>
  <stop offset="1" stop-color="#FFF" stop-opacity=".659"/>
 </linearGradient>
 <path fill="none" stroke-width="2" stroke-linecap="round" stroke-linejoin="round" stroke="url(#c)" d="M95.111 52.556H5.226c-1.366 0-2.449 1.189-2.449 3v71.953"/>
</svg>
