<svg xmlns="http://www.w3.org/2000/svg" baseProfile="full" width="101" height="171">
 <radialGradient id="a" cx="50.778" cy="124.907" r="48.867" gradientUnits="userSpaceOnUse">
  <stop offset=".674" stop-color="#1D1B47" stop-opacity=".478"/>
  <stop offset=".885" stop-color="#14133A" stop-opacity=".239"/>
  <stop offset="1" stop-color="#0C0B2E" stop-opacity="0"/>
 </radialGradient>
 <ellipse fill="url(#a)" cx="50.778" cy="124.907" rx="48.778" ry="38.889"/>
 <linearGradient id="c" gradientUnits="objectBoundingBox" x1=".495" y1=".356" x2="1.069" y2=".356" gradientTransform="rotate(90.657 .495 .356)">
  <stop offset="0" stop-color="#676767"/>
  <stop offset=".347" stop-color="#333" stop-opacity=".502"/>
  <stop offset="1" stop-opacity="0"/>
 </linearGradient>
 <radialGradient id="b" cx="50.555" cy="99.74" r="64.278" gradientUnits="userSpaceOnUse" gradientTransform="rotate(90.657 50.555 99.74)">
  <stop offset=".885" stop-color="#A6A6A6"/>
  <stop offset=".978" stop-color="#A6A6A6" stop-opacity=".502"/>
  <stop offset="1" stop-color="#A6A6A6" stop-opacity="0"/>
 </radialGradient>
 <path fill="url(#b)" stroke-linecap="round" stroke-linejoin="round" stroke="url(#c)" d="M93.5 119.704l-11.666 32-38.334 7.667-34.75-22.937-.25-31.396 22.667-32.334 12-2 10.667-3.666 25.666 9 14 43.666z"/>
 <radialGradient id="d" cx="52.722" cy="106.629" r="176.724" gradientUnits="userSpaceOnUse" gradientTransform="rotate(90.483 52.722 106.629)">
  <stop offset=".885" stop-color="#898989"/>
  <stop offset=".978" stop-color="#979797" stop-opacity=".502"/>
  <stop offset="1" stop-color="#A6A6A6" stop-opacity="0"/>
 </radialGradient>
 <path fill="url(#d)" d="M92.88 119.69L81.5 151.26l-6.833-45.944 2.528-25.306 15.686 39.68z"/>
 <radialGradient id="e" cx="55.055" cy="104.296" r="67.825" gradientUnits="userSpaceOnUse" gradientTransform="rotate(91.408 55.055 104.296)">
  <stop offset=".885" stop-color="#B5B4B2"/>
  <stop offset=".978" stop-color="#ADADAC" stop-opacity=".502"/>
  <stop offset="1" stop-color="#A6A6A6" stop-opacity="0"/>
 </radialGradient>
 <path fill="url(#e)" d="M43.334 157.038l-1.556-40.945-20.777-7.333-11.834 30.444 34.167 17.834z"/>
 <path fill="#CBC5BC" d="M77.167 80.038l-.333-.334-22.667-10.333-10.333 4L32.5 74.704l-21.666 31.334 7.389 9.944 23.889 3.334L74.5 105.704l2.666-25.666z"/>
 <path fill="#DFDCCF" d="M54.084 71.816l17.666 33-27.666 11.333 2.222-40.945 7.778-3.388zm-41.111 33.722l5.833 8.5 13.139-25.667-6.222 1.333-12.75 15.834zm18.055-3.167l-4.333 1.333-2.5 5.5 2.833 3.334 4-10.167z"/>
 <path fill="#EDEADC" d="M55.458 80.804l-2.319-7.1-5.94 4.583-.46 3.8 8.72-1.283z"/>
 <path fill="#535353" fill-opacity=".161" d="M58.378 133.838c1.35-.38 2.88.857 3.416 2.762s-.125 3.757-1.476 4.137c-1.351.38-2.881-.856-3.417-2.761-.536-1.905.125-3.758 1.477-4.138zm5.186-5.934c1.156-.325 2.411.54 2.803 1.933.392 1.393-.228 2.785-1.384 3.11-1.156.326-2.411-.54-2.803-1.933-.392-1.392.228-2.785 1.384-3.11zm-32.883-3.283a1.875 1.875 0 110 3.75 1.875 1.875 0 010-3.75zm-10-3.833a2.542 2.542 0 110 5.083 2.542 2.542 0 010-5.083zm-6.646-10.768c.878.404 1.114 1.765.527 3.04-.586 1.276-1.774 1.982-2.652 1.578-.878-.404-1.114-1.765-.527-3.041.587-1.275 1.774-1.981 2.652-1.577zm65.348 4.261c.64-.234 1.553.654 2.038 1.983.485 1.329.358 2.596-.282 2.83-.641.233-1.554-.654-2.038-1.983-.485-1.329-.359-2.596.282-2.83zm5.227-3.054c.9-.328 2.11.72 2.701 2.341.592 1.621.341 3.202-.559 3.531-.9.328-2.11-.72-2.701-2.341-.592-1.622-.341-3.202.559-3.531z"/>
 <path fill="#B7B1A9" d="M25.722 141.345v.068l-.01.375.334-.178-.324-.265zm51.312-.82l-.099-.032.084.064.015-.032zM8.869 123.386a3.753 3.753 0 01-.369-1.222v1.345c.121-.045.244-.086.369-.123zm13.604 24.027l.01-.376a6.188 6.188 0 01-.692.342l.69.382a6.597 6.597 0 01-.008-.348zm10.007 5.308c-.153.107-.31.208-.472.302l.526.291a6.576 6.576 0 01-.054-.593zm39.45.421a3.924 3.924 0 01-.944.732l1.327-.265a6.609 6.609 0 01-.383-.467z"/>
 <radialGradient id="f" cx="50.111" cy="120.093" r="72.037" gradientUnits="userSpaceOnUse" gradientTransform="rotate(86.974 50.111 120.093)">
  <stop offset=".4" stop-opacity=".039"/>
  <stop offset=".657" stop-opacity=".2"/>
  <stop offset=".88" stop-opacity=".357"/>
  <stop offset="1" stop-opacity="0"/>
 </radialGradient>
 <path fill="url(#f)" d="M58.64 146.038c0-2.117-1.754-3.834-3.917-3.834l-.772.075.022-.408c0-2.117-1.754-3.833-3.917-3.833s-3.917 1.716-3.917 3.833c0 1.571.966 2.921 2.347 3.513l-.094.352a3.97 3.97 0 00-1.67-.365l-.834.087a6.475 6.475 0 00-2.757-5.198 3.75 3.75 0 00.508-1.889c0-2.117-1.753-3.833-3.916-3.833-2.163 0-3.917 1.716-3.917 3.833 0 .606.144 1.178.399 1.687a6.464 6.464 0 00-2.59 3.068 6.385 6.385 0 00-2.565-1.776 3.785 3.785 0 001.256-2.812c0-1.594-.994-2.961-2.408-3.539a2.542 2.542 0 10-3.745.391 3.833 3.833 0 00-1.587 2.312 6.44 6.44 0 00-2.146-1.95c.453-.625.72-1.389.72-2.214 0-2.117-1.754-3.834-3.917-3.834-.822 0-1.585.248-2.215.672l.048-.797a6.479 6.479 0 00-2.21-4.889 3.797 3.797 0 001.46-2.986c0-2.117-1.754-3.833-3.917-3.833-2.004 0-3.657 1.474-3.889 3.374v.919c.053.433.18.845.369 1.222a5.808 5.808 0 00-.369.123l.583 12.925 12.708 10.945c.239-.1.47-.214.692-.342l-.01.376c0 .116.003.233.009.348l9.526 5.262c.162-.094.32-.195.472-.302.01.2.027.398.054.593l10.967 6.057 27.485-5.497c.352-.196.67-.443.944-.732a6.6 6.6 0 00.383.467l9.52-1.905 11.668-32-1.09-3.399c-2.685.538-4.754 3.161-4.927 6.38l-.722.324-.117-.358c-.592-1.621-1.801-2.669-2.702-2.341-.9.329-1.15 1.91-.559 3.531.19.522.445.984.732 1.36-.5-.448-1.044-.643-1.506-.474-.689.251-.997 1.234-.84 2.408l-.88-.097c-2.164 0-3.917 1.716-3.917 3.833 0 .82.263 1.58.71 2.203a3.918 3.918 0 00-2.89 1.946 3.966 3.966 0 00-1.904-.482c-2.163 0-3.916 1.716-3.916 3.833 0 .956.357 1.831.949 2.502-1.802.059-3.295 1.31-3.684 2.973a3.925 3.925 0 00-3.515-2.142c-2.163 0-3.917 1.717-3.917 3.834 0 .407.065.799.185 1.167l-.416.028.064-.695zm18.379-5.481l-.084-.064.1.032-.016.032zm-51.307 1.231l.01-.375v-.068l.324.265-.334.178z"/>
</svg>
