<svg xmlns="http://www.w3.org/2000/svg" xmlns:xlink="http://www.w3.org/1999/xlink" baseProfile="full" width="101" height="171">
 <linearGradient id="a" gradientUnits="objectBoundingBox" x1=".501" y1=".007" x2=".946" y2=".007" gradientTransform="rotate(90 .501 .007)">
  <stop offset=".453" stop-color="#585858"/>
  <stop offset=".831" stop-color="#7F7D7D"/>
  <stop offset="1" stop-color="#A6A2A2"/>
 </linearGradient>
 <path fill="#D7873D" stroke-linejoin="round" stroke="url(#a)" d="M95.504 90.5h-90a5 5 0 00-5 5v69.999a5 5 0 005 5h90a5 5 0 005-5v-70a5 5 0 00-5-5z"/>
 <linearGradient id="b" gradientUnits="objectBoundingBox" x1=".492" y1="1.004" x2="1.484" y2="1.004" gradientTransform="rotate(-90 .492 1.004)">
  <stop offset=".832" stop-color="#7F5E41"/>
  <stop offset=".948" stop-color="#A8703F" stop-opacity=".502"/>
  <stop offset=".999" stop-color="#D1833D" stop-opacity="0"/>
 </linearGradient>
 <path fill="url(#b)" d="M95.087 126.499H5.921a5 5 0 00-5 5v33.667a5 5 0 005 5h89.166a5 5 0 005-5v-33.667a5 5 0 00-5-5z"/>
 <linearGradient id="c" gradientUnits="objectBoundingBox" x1=".005" y1=".387" x2=".985" y2=".387" gradientTransform="rotate(-5.46 .005 .387)">
  <stop offset="0" stop-color="#B78356"/>
  <stop offset=".075" stop-color="#BB804E"/>
  <stop offset=".272" stop-color="#BF7E46"/>
  <stop offset="1" stop-color="#904604"/>
 </linearGradient>
 <path fill="url(#c)" d="M67.215 103.401l.141-9.266c1.318-1.525 2.873-3.02 5.946-3.096 7.853-.193 21.29-.103 27.199.372l-.141 11.99H67.215z"/>
 <linearGradient id="d" gradientUnits="objectBoundingBox" x1=".596" y1=".007" x2="1.616" y2=".007" gradientTransform="rotate(90 .596 .007)">
  <stop offset="0" stop-color="#B78356" stop-opacity="0"/>
  <stop offset=".539" stop-color="#B3733B" stop-opacity=".502"/>
  <stop offset="1" stop-color="#B06421"/>
 </linearGradient>
 <path fill="url(#d)" d="M100.501 103.401v-9.413c-2.032-1.385-25.976-3.051-33.286-2.577l.141 11.99h33.145z"/>
 <path fill="none" stroke-width="1.639" stroke-linecap="round" stroke-linejoin="round" stroke="#78512F" d="M99.9 94.326c-.413-1.16-1.36-3.128-4.514-3.176-7.305-.11-27.666-.213-28.17.26"/>
 <linearGradient id="e" gradientUnits="objectBoundingBox" x1=".005" y1=".385" x2=".985" y2=".385" gradientTransform="rotate(-5.445 .005 .385)">
  <stop offset="0" stop-color="#B78356"/>
  <stop offset=".075" stop-color="#BB804E"/>
  <stop offset=".272" stop-color="#BF7E46"/>
  <stop offset="1" stop-color="#904604"/>
 </linearGradient>
 <path fill="url(#e)" d="M67.215 114.078l.141-11.99c1.781-.481 24.923-.661 33.145 0l-.141 11.99H67.215z"/>
 <linearGradient id="f" gradientUnits="objectBoundingBox" x1=".596" y1=".033" x2="1.551" y2=".033" gradientTransform="rotate(90 .596 .033)">
  <stop offset="0" stop-color="#B78356" stop-opacity="0"/>
  <stop offset=".539" stop-color="#BE7C41" stop-opacity=".502"/>
  <stop offset="1" stop-color="#C6752D"/>
 </linearGradient>
 <path fill="url(#f)" d="M100.501 114.601l-.141-12.513c-1.781-.481-24.923-.661-33.145 0l.141 11.99 33.145.523z"/>
 <path fill="none" stroke-width="1.639" stroke-linecap="round" stroke-linejoin="round" stroke="#82562F" d="M100.06 102.088c-1.781-.481-24.623-.661-32.845 0"/>
 <linearGradient id="g" gradientUnits="objectBoundingBox" x1=".995" y1=".385" x2="1.975" y2=".385" gradientTransform="rotate(185.445 .995 .385)">
  <stop offset="0" stop-color="#B78356"/>
  <stop offset=".075" stop-color="#BB804E"/>
  <stop offset=".272" stop-color="#BF7E46"/>
  <stop offset="1" stop-color="#904604"/>
 </linearGradient>
 <path fill="url(#g)" d="M100.504 126.726l-.141-11.99c-1.78-.481-24.922-.662-33.144 0l.14 11.99h33.145z"/>
 <linearGradient id="h" gradientUnits="objectBoundingBox" x1=".596" y1=".035" x2="1.589" y2=".035" gradientTransform="rotate(90 .596 .035)">
  <stop offset="0" stop-color="#B78356" stop-opacity="0"/>
  <stop offset=".539" stop-color="#C8854B" stop-opacity=".502"/>
  <stop offset="1" stop-color="#DA8840"/>
 </linearGradient>
 <path fill="url(#h)" d="M100.504 126.726l-.141-11.99c-1.78-.481-24.922-.662-33.144 0l.14 11.99h33.145z"/>
 <path fill="none" stroke-width="1.639" stroke-linecap="round" stroke-linejoin="round" stroke="#82562F" d="M100.063 114.736c-1.78-.481-24.623-.662-32.844 0"/>
 <linearGradient id="i" gradientUnits="objectBoundingBox" x1=".005" y1=".385" x2=".985" y2=".385" gradientTransform="rotate(-5.445 .005 .385)">
  <stop offset="0" stop-color="#B78356"/>
  <stop offset=".075" stop-color="#BB804E"/>
  <stop offset=".272" stop-color="#BF7E46"/>
  <stop offset="1" stop-color="#904604"/>
 </linearGradient>
 <path fill="url(#i)" d="M33.88 103.355l.14-11.99c1.781-.481 24.923-.661 33.145 0l-.141 11.99H33.879z"/>
 <linearGradient id="j" gradientUnits="objectBoundingBox" x1=".596" y1=".035" x2="1.589" y2=".035" gradientTransform="rotate(90 .596 .035)">
  <stop offset="0" stop-color="#B78356" stop-opacity="0"/>
  <stop offset=".539" stop-color="#B3733B" stop-opacity=".502"/>
  <stop offset="1" stop-color="#B06421"/>
 </linearGradient>
 <path fill="url(#j)" d="M67.165 103.355l-.141-11.99c-1.781-.481-24.923-.661-33.145 0l.141 11.99h33.145z"/>
 <path fill="none" stroke-width="1.639" stroke-linecap="round" stroke-linejoin="round" stroke="#78512F" d="M67.024 91.365c-1.781-.481-24.923-.661-33.145 0"/>
 <linearGradient id="k" gradientUnits="objectBoundingBox" x1=".005" y1=".385" x2=".985" y2=".385" gradientTransform="rotate(-5.445 .005 .385)">
  <stop offset="0" stop-color="#B78356"/>
  <stop offset=".075" stop-color="#BB804E"/>
  <stop offset=".272" stop-color="#BF7E46"/>
  <stop offset="1" stop-color="#904604"/>
 </linearGradient>
 <path fill="url(#k)" d="M33.88 114.032l.14-11.99c1.781-.481 24.923-.662 33.145 0l-.141 11.99H33.879z"/>
 <linearGradient id="l" gradientUnits="objectBoundingBox" x1=".596" y1=".035" x2="1.589" y2=".035" gradientTransform="rotate(90 .596 .035)">
  <stop offset="0" stop-color="#B78356" stop-opacity="0"/>
  <stop offset=".539" stop-color="#BE7C41" stop-opacity=".502"/>
  <stop offset="1" stop-color="#C6752D"/>
 </linearGradient>
 <path fill="url(#l)" d="M67.165 114.032l-.141-11.99c-1.781-.481-24.923-.662-33.145 0l.141 11.99h33.145z"/>
 <path fill="none" stroke-width="1.639" stroke-linecap="round" stroke-linejoin="round" stroke="#82562F" d="M67.024 102.042c-1.781-.481-24.923-.662-33.145 0"/>
 <linearGradient id="m" gradientUnits="objectBoundingBox" x1=".995" y1=".385" x2="1.975" y2=".385" gradientTransform="rotate(185.445 .995 .385)">
  <stop offset="0" stop-color="#B78356"/>
  <stop offset=".075" stop-color="#BB804E"/>
  <stop offset=".272" stop-color="#BF7E46"/>
  <stop offset="1" stop-color="#904604"/>
 </linearGradient>
 <path fill="url(#m)" d="M67.168 126.68l-.141-11.99c-1.781-.481-24.923-.662-33.145 0l.141 11.99h33.145z"/>
 <linearGradient id="n" gradientUnits="objectBoundingBox" x1=".596" y1=".035" x2="1.589" y2=".035" gradientTransform="rotate(90 .596 .035)">
  <stop offset="0" stop-color="#B78356" stop-opacity="0"/>
  <stop offset=".539" stop-color="#C8854B" stop-opacity=".502"/>
  <stop offset="1" stop-color="#DA8840"/>
 </linearGradient>
 <path fill="url(#n)" d="M67.168 126.68l-.141-11.99c-1.781-.481-24.923-.662-33.145 0l.141 11.99h33.145z"/>
 <path fill="none" stroke-width="1.639" stroke-linecap="round" stroke-linejoin="round" stroke="#82562E" d="M67.027 114.69c-1.781-.481-24.923-.662-33.145 0"/>
 <linearGradient id="o" gradientUnits="objectBoundingBox" x1=".995" y1=".381" x2="1.978" y2=".381" gradientTransform="rotate(185.421 .995 .38)">
  <stop offset="0" stop-color="#B78356"/>
  <stop offset=".075" stop-color="#BB804E"/>
  <stop offset=".272" stop-color="#BF7E46"/>
  <stop offset="1" stop-color="#904604"/>
 </linearGradient>
 <path fill="url(#o)" d="M33.88 103.355l-.142-11.99c-1.663-.45-21.882-.475-31.239.062-.659.038-1.415 1.794-1.806 2.223l.042 9.705h33.144z"/>
 <linearGradient id="p" gradientUnits="objectBoundingBox" x1=".595" y1=".027" x2="1.595" y2=".027" gradientTransform="rotate(90 .595 .027)">
  <stop offset="0" stop-color="#B78356" stop-opacity="0"/>
  <stop offset=".539" stop-color="#B3733B" stop-opacity=".502"/>
  <stop offset="1" stop-color="#B06421"/>
 </linearGradient>
 <path fill="url(#p)" d="M33.88 103.355l-.142-11.99c-1.651-.446-21.5-.475-30.933.05-.74.042-1.82 2.256-2.11 2.834l.04 9.106h33.144z"/>
 <path fill="none" stroke-width="1.639" stroke-linecap="round" stroke-linejoin="round" stroke="#78512F" d="M33.738 91.365c-1.558-.42-19.421-.243-29.432-.21C2.866 91.16.93 94.083.9 94.915"/>
 <linearGradient id="q" gradientUnits="objectBoundingBox" x1=".995" y1=".385" x2="1.975" y2=".385" gradientTransform="rotate(185.445 .995 .385)">
  <stop offset="0" stop-color="#B78356"/>
  <stop offset=".075" stop-color="#BB804E"/>
  <stop offset=".272" stop-color="#BF7E46"/>
  <stop offset="1" stop-color="#904604"/>
 </linearGradient>
 <path fill="url(#q)" d="M33.88 114.032l-.142-11.99c-1.78-.481-24.922-.662-33.144 0l.14 11.99H33.88z"/>
 <linearGradient id="r" gradientUnits="objectBoundingBox" x1=".596" y1=".033" x2="1.549" y2=".033" gradientTransform="rotate(90 .596 .033)">
  <stop offset="0" stop-color="#B78356" stop-opacity="0"/>
  <stop offset=".539" stop-color="#BE7C41" stop-opacity=".502"/>
  <stop offset="1" stop-color="#C6752D"/>
 </linearGradient>
 <path fill="url(#r)" d="M33.88 114.032l-.142-11.99c-1.78-.481-24.922-.662-33.144 0l.14 12.543 33.145-.553z"/>
 <path fill="none" stroke-width="1.639" stroke-linecap="round" stroke-linejoin="round" stroke="#82562F" d="M33.738 102.042c-1.78-.481-24.522-.662-32.744 0"/>
 <linearGradient id="s" gradientUnits="objectBoundingBox" x1=".995" y1=".385" x2="1.975" y2=".385" gradientTransform="rotate(185.445 .995 .385)">
  <stop offset="0" stop-color="#B78356"/>
  <stop offset=".075" stop-color="#BB804E"/>
  <stop offset=".272" stop-color="#BF7E46"/>
  <stop offset="1" stop-color="#904604"/>
 </linearGradient>
 <path fill="url(#s)" d="M33.882 126.68l-.14-11.99c-1.781-.481-24.923-.662-33.145 0l.14 11.99h33.145z"/>
 <linearGradient id="t" gradientUnits="objectBoundingBox" x1=".596" y1=".035" x2="1.589" y2=".035" gradientTransform="rotate(90 .596 .035)">
  <stop offset="0" stop-color="#B78356" stop-opacity="0"/>
  <stop offset=".539" stop-color="#C8854B" stop-opacity=".502"/>
  <stop offset="1" stop-color="#DA8840"/>
 </linearGradient>
 <path fill="url(#t)" d="M33.882 126.68l-.14-11.99c-1.781-.481-24.923-.662-33.145 0l.14 11.99h33.145z"/>
 <path fill="none" stroke-width="1.639" stroke-linecap="round" stroke-linejoin="round" stroke="#82562F" d="M33.741 114.69c-1.78-.481-24.522-.662-32.744 0"/>
 <radialGradient id="u" cx="50.462" cy="115.499" r="12.833" gradientUnits="userSpaceOnUse" gradientTransform="rotate(90 50.462 115.5)">
  <stop offset="0" stop-color="#FFF1B3" stop-opacity=".369"/>
  <stop offset=".996" stop-color="#FFF1B3" stop-opacity="0"/>
 </radialGradient>
 <ellipse fill="url(#u)" cx="50.462" cy="115.499" rx="12.833" ry="1.625"/>
 <radialGradient id="v" cx="17.671" cy="102.833" r="12.833" gradientUnits="userSpaceOnUse" gradientTransform="rotate(90 17.67 102.833)">
  <stop offset="0" stop-color="#FFF1B3" stop-opacity=".369"/>
  <stop offset=".996" stop-color="#FFF1B3" stop-opacity="0"/>
 </radialGradient>
 <ellipse fill="url(#v)" cx="17.671" cy="102.833" rx="12.833" ry="1.625"/>
 <radialGradient id="w" cx="83.504" cy="92.499" r="12.833" gradientUnits="userSpaceOnUse" gradientTransform="rotate(90 83.504 92.5)">
  <stop offset="0" stop-color="#FFF1B3" stop-opacity=".369"/>
  <stop offset=".996" stop-color="#FFF1B3" stop-opacity="0"/>
 </radialGradient>
 <path fill="url(#w)" d="M70.67 92.5c0 .897 5.746 1.624 12.834 1.624 7.088 0 12.833-.727 12.833-1.625 0-.897-5.745-1.624-12.833-1.624s-12.833.727-12.833 1.624z"/>
 <path fill-opacity=".09" d="M.504 138.833a3 3 0 003 3h94a3 3 0 100-6h-94a3 3 0 00-3 3z"/>
 <defs>
  <path id="x" d="M.504 93.5l2.056-2.178 97.944 39.177v40h-100v-77z"/>
 </defs>
 <clipPath id="y">
  <use xlink:href="#x" overflow="visible"/>
 </clipPath>
 <g clip-path="url(#y)">
  <linearGradient id="z" gradientUnits="objectBoundingBox" x1=".401" y1=".156" x2="1.308" y2=".156" gradientTransform="rotate(70.73 .4 .156)">
   <stop offset="0" stop-color="#B06722" stop-opacity=".867"/>
   <stop offset="1"/>
  </linearGradient>
  <path fill="#AF641F" stroke-linejoin="round" stroke="url(#z)" d="M95.504 50.5l-90 35c-1.139.36-5 2.238-5 5v72.999a5 5 0 005 5h90a5 5 0 005-5v-108a5 5 0 00-5-5z"/>
  <linearGradient id="A" gradientUnits="objectBoundingBox" x1=".089" y1=".65" x2="1.214" y2=".65" gradientTransform="rotate(-90 .089 .65)">
   <stop offset=".453" stop-color="#7A7A7A" stop-opacity=".325"/>
   <stop offset=".831" stop-color="#A4A4A4" stop-opacity=".165"/>
   <stop offset="1" stop-color="#CECECE" stop-opacity="0"/>
  </linearGradient>
  <path fill="url(#A)" d="M1.915 88.388a1 1 0 00-1 1v76.334c0 .552 2 .552 11.922-4.112-3.722-.388-9.922 2.143-9.922-8.222v-64a1 1 0 00-1-1z"/>
  <linearGradient id="B" gradientUnits="objectBoundingBox" x1=".948" y1="1.039" x2="1.994" y2="1.039" gradientTransform="rotate(228.069 .948 1.04)">
   <stop offset=".827" stop-color="#7F5E41"/>
   <stop offset=".947" stop-color="#97612F" stop-opacity=".502"/>
   <stop offset="1" stop-color="#AF641E" stop-opacity="0"/>
  </linearGradient>
  <path fill="url(#B)" d="M96.254 131.811L5.92 157.499a5 5 0 00-5 5v.667a5 5 0 005 5h89.166a5 5 0 005-5v-30.667c0-2.761-1.072-.688-3.833-.688z"/>
  <linearGradient id="C" gradientUnits="objectBoundingBox" x1=".385" y1=".119" x2="1.174" y2=".119" gradientTransform="rotate(83.778 .385 .12)">
   <stop offset="0" stop-color="#B78356"/>
   <stop offset=".075" stop-color="#BB884E"/>
   <stop offset=".272" stop-color="#BF8D46"/>
   <stop offset="1" stop-color="#B32E04"/>
  </linearGradient>
  <path fill="url(#C)" d="M33.262 75.5L1.63 81.717c-1.269 1.726-1.744 21.059 0 27.559l31.632-6.219V75.499z"/>
  <linearGradient id="D" gradientUnits="objectBoundingBox" x1=".035" y1=".512" x2="1.002" y2=".512">
   <stop offset="0" stop-color="#B78356" stop-opacity="0"/>
   <stop offset=".539" stop-color="#B3733B" stop-opacity=".502"/>
   <stop offset="1" stop-color="#B06421"/>
  </linearGradient>
  <path fill="url(#D)" d="M33.262 75.5L1.63 81.717c-1.269 1.726-1.744 21.059 0 27.559l31.632-6.219V75.499z"/>
  <path fill="none" stroke-linecap="round" stroke-linejoin="round" stroke="#624225" d="M1.63 81.718c-1.269 1.726-1.744 21.059 0 27.559"/>
  <linearGradient id="E" gradientUnits="objectBoundingBox" x1=".385" y1=".119" x2="1.174" y2=".119" gradientTransform="rotate(83.778 .385 .12)">
   <stop offset="0" stop-color="#B78356"/>
   <stop offset=".075" stop-color="#BB804E"/>
   <stop offset=".272" stop-color="#BF7E46"/>
   <stop offset="1" stop-color="#904604"/>
  </linearGradient>
  <path fill="url(#E)" d="M64.085 63.5l-31.632 6.218c-1.268 1.726-1.744 21.059 0 27.559l31.632-6.219V63.5z"/>
  <linearGradient id="F" gradientUnits="objectBoundingBox" x1=".035" y1=".512" x2="1.002" y2=".512">
   <stop offset="0" stop-color="#B78356" stop-opacity="0"/>
   <stop offset=".539" stop-color="#AD7748" stop-opacity=".502"/>
   <stop offset="1" stop-color="#A46C3B"/>
  </linearGradient>
  <path fill="url(#F)" d="M64.085 63.5l-31.632 6.218c-1.268 1.726-1.744 21.059 0 27.559l31.632-6.219V63.5z"/>
  <path fill="none" stroke-linecap="round" stroke-linejoin="round" stroke="#624225" d="M32.453 69.718c-1.268 1.726-1.744 21.059 0 27.559"/>
  <linearGradient id="G" gradientUnits="objectBoundingBox" x1=".385" y1=".119" x2="1.174" y2=".119" gradientTransform="rotate(83.778 .385 .12)">
   <stop offset="0" stop-color="#B78356"/>
   <stop offset=".075" stop-color="#BB804E"/>
   <stop offset=".272" stop-color="#BF7E46"/>
   <stop offset="1" stop-color="#904604"/>
  </linearGradient>
  <path fill="url(#G)" d="M33.262 101.632L1.63 107.851c-1.269 1.725-1.744 21.059 0 27.559l31.632-6.219v-27.559z"/>
  <linearGradient id="H" gradientUnits="objectBoundingBox" x1=".035" y1=".512" x2="1.002" y2=".512">
   <stop offset="0" stop-color="#B78356" stop-opacity="0"/>
   <stop offset=".539" stop-color="#C07D43" stop-opacity=".502"/>
   <stop offset="1" stop-color="#C97831"/>
  </linearGradient>
  <path fill="url(#H)" d="M33.262 101.632L1.63 107.851c-1.269 1.725-1.744 21.059 0 27.559l31.632-6.219v-27.559z"/>
  <path fill="none" stroke-linecap="round" stroke-linejoin="round" stroke="#624225" d="M1.63 107.851c-1.269 1.725-1.744 21.059 0 27.559"/>
  <linearGradient id="I" gradientUnits="objectBoundingBox" x1=".385" y1=".119" x2="1.174" y2=".119" gradientTransform="rotate(83.778 .385 .12)">
   <stop offset="0" stop-color="#B78356"/>
   <stop offset=".075" stop-color="#C68650"/>
   <stop offset=".272" stop-color="#D58A4A"/>
   <stop offset="1" stop-color="#73550D"/>
  </linearGradient>
  <path fill="url(#I)" d="M64.085 89.632L32.453 95.85c-1.268 1.725-1.744 21.059 0 27.559l31.632-6.219V89.63z"/>
  <linearGradient id="J" gradientUnits="objectBoundingBox" x1=".035" y1=".512" x2="1.002" y2=".512">
   <stop offset="0" stop-color="#B78356" stop-opacity="0"/>
   <stop offset=".539" stop-color="#AC703C" stop-opacity=".502"/>
   <stop offset="1" stop-color="#A15D22"/>
  </linearGradient>
  <path fill="url(#J)" d="M64.085 89.632L32.453 95.85c-1.268 1.725-1.744 21.059 0 27.559l31.632-6.219V89.63z"/>
  <path fill="none" stroke-linecap="round" stroke-linejoin="round" stroke="#624225" d="M32.453 95.85c-1.268 1.726-1.744 21.06 0 27.56"/>
  <linearGradient id="K" gradientUnits="objectBoundingBox" x1=".385" y1=".114" x2="1.141" y2=".114" gradientTransform="rotate(84.04 .385 .114)">
   <stop offset="0" stop-color="#B78356"/>
   <stop offset=".075" stop-color="#BB804E"/>
   <stop offset=".272" stop-color="#BF7E46"/>
   <stop offset="1" stop-color="#904604"/>
  </linearGradient>
  <path fill="url(#K)" d="M33.262 127.854L1.63 134.073c-1.269 1.726-1.744 22.558 0 29.058l31.632-6.218v-29.059z"/>
  <linearGradient id="L" gradientUnits="objectBoundingBox" x1=".035" y1=".486" x2="1.002" y2=".486">
   <stop offset="0" stop-color="#B78356" stop-opacity="0"/>
   <stop offset=".539" stop-color="#C5844A" stop-opacity=".502"/>
   <stop offset="1" stop-color="#D3853E"/>
  </linearGradient>
  <path fill="url(#L)" d="M33.262 127.854L1.63 134.073c-1.269 1.726-1.744 22.859 0 29.359l31.632-7.219v-28.359z"/>
  <path fill="none" stroke-linecap="round" stroke-linejoin="round" stroke="#624225" d="M1.63 134.073c-1.269 1.726-1.744 23.059 0 29.559"/>
  <linearGradient id="M" gradientUnits="objectBoundingBox" x1=".381" y1=".111" x2="1.113" y2=".111" gradientTransform="rotate(84.274 .38 .11)">
   <stop offset="0" stop-color="#B78356"/>
   <stop offset=".075" stop-color="#BB804E"/>
   <stop offset=".272" stop-color="#BF7E46"/>
   <stop offset="1" stop-color="#904604"/>
  </linearGradient>
  <path fill="url(#M)" d="M64.085 115.854l-31.632 6.219c-1.268 1.726-1.231 23.726.513 30.226l31.12-7.087v-29.358z"/>
  <linearGradient id="N" gradientUnits="objectBoundingBox" x1=".027" y1=".475" x2="1.002" y2=".475">
   <stop offset="0" stop-color="#B78356" stop-opacity="0"/>
   <stop offset=".539" stop-color="#BB814E" stop-opacity=".502"/>
   <stop offset="1" stop-color="#C07F46"/>
  </linearGradient>
  <path fill="url(#N)" d="M64.085 115.854l-31.632 6.219c-1.268 1.726-1.231 23.626.513 30.126l31.12-7.086v-29.259z"/>
  <path fill="none" stroke-linecap="round" stroke-linejoin="round" stroke="#624225" d="M32.453 122.073c-1.268 1.726-1.744 21.059 0 27.559"/>
  <path fill="#624224" d="M64.004 145.233l-1.195-6.111s2.5-2.25 3.417 8c.14 1.573-33.177 8.184-33.177 8.184l-.583-3.107 31.538-6.966z"/>
  <path fill="#624224" fill-opacity=".416" d="M94.67 132.027l5.834-1.194v4.478c0 1.579-35.445 9.917-35.445 9.917l-1.777-7.972 31.389-5.229z"/>
  <path fill="#624224" fill-opacity=".416" d="M64.004 145.867l-.056-6.556s1.028-3 1.945 7.25c.14 1.573-32.084 9.833-32.084 9.833l-1.95-5.161 32.145-5.366z"/>
  <path fill="#624224" d="M32.648 157.302l-.194-6.911s1.5-2.25 2.417 8c.14 1.573-33.434 8.717-33.434 8.717l-.933-3.34 32.145-6.466z"/>
  <path fill-opacity=".251" d="M31.2 75.444a1.6 1.6 0 00-1.6 1.6v78.023a1.6 1.6 0 103.199 0V77.044a1.6 1.6 0 00-1.6-1.6z"/>
  <path fill="#624224" fill-opacity=".416" d="M32.648 157.135l-.2-6.268s1.278-3.723 2.195 6.527c.14 1.573-32.084 9.75-32.084 9.75l-2.055-4.643 32.145-5.366z"/>
  <linearGradient id="O" gradientUnits="objectBoundingBox" x1=".385" y1=".119" x2="1.174" y2=".119" gradientTransform="rotate(83.778 .385 .12)">
   <stop offset="0" stop-color="#B78356"/>
   <stop offset=".075" stop-color="#BB804E"/>
   <stop offset=".272" stop-color="#BF7E46"/>
   <stop offset="1" stop-color="#844B19"/>
  </linearGradient>
  <path fill="url(#O)" d="M94.945 51.5l-31.632 6.218c-1.269 1.726-1.745 21.059 0 27.559l31.632-6.219V51.5z"/>
  <linearGradient id="P" gradientUnits="objectBoundingBox" x1=".035" y1=".512" x2="1.002" y2=".512">
   <stop offset="0" stop-color="#B78356" stop-opacity="0"/>
   <stop offset=".539" stop-color="#B3733B" stop-opacity=".502"/>
   <stop offset="1" stop-color="#B06421"/>
  </linearGradient>
  <path fill="url(#P)" d="M94.945 51.5l-31.632 6.218c-1.269 1.726-1.745 21.059 0 27.559l31.632-6.219V51.5z"/>
  <path fill="none" stroke-linecap="round" stroke-linejoin="round" stroke="#624225" d="M63.313 57.718c-1.269 1.726-1.745 21.059 0 27.559"/>
  <linearGradient id="Q" gradientUnits="objectBoundingBox" x1=".385" y1=".119" x2="1.174" y2=".119" gradientTransform="rotate(83.778 .385 .12)">
   <stop offset="0" stop-color="#B78356"/>
   <stop offset=".075" stop-color="#BB804E"/>
   <stop offset=".272" stop-color="#BF7E46"/>
   <stop offset="1" stop-color="#904604"/>
  </linearGradient>
  <path fill="url(#Q)" d="M94.945 77.632L63.313 83.85c-1.269 1.725-1.745 21.059 0 27.559l31.632-6.219V77.63z"/>
  <linearGradient id="R" gradientUnits="objectBoundingBox" x1=".035" y1=".526" x2="1.003" y2=".526">
   <stop offset="0" stop-color="#B78356" stop-opacity="0"/>
   <stop offset=".539" stop-color="#B3733B" stop-opacity=".502"/>
   <stop offset="1" stop-color="#B06421"/>
  </linearGradient>
  <path fill="url(#R)" d="M100.504 76.539l-37 7.274c-1.483 1.768-2.04 21.117 0 27.559l37-7.274v-27.56z"/>
  <path fill="none" stroke-linecap="round" stroke-linejoin="round" stroke="#624225" d="M63.313 83.85c-1.269 1.726-1.745 21.06 0 27.56"/>
  <linearGradient id="S" gradientUnits="objectBoundingBox" x1=".378" y1=".11" x2="1.106" y2=".11" gradientTransform="rotate(84.333 .378 .11)">
   <stop offset="0" stop-color="#B78356"/>
   <stop offset=".075" stop-color="#BB804E"/>
   <stop offset=".272" stop-color="#BF7E46"/>
   <stop offset="1" stop-color="#A05B1D"/>
  </linearGradient>
  <path fill="url(#S)" d="M94.945 103.854l-31.632 6.219c-1.269 1.726-.817 23.926.928 30.426l30.704-9.086v-27.559z"/>
  <path fill="none" stroke-linecap="round" stroke-linejoin="round" stroke="#624225" d="M63.313 110.073c-1.269 1.726-1.745 22.359 0 28.859"/>
  <path fill="#624224" d="M94.685 132.44l5.819-1.941v2.701c0 1.579-36.538 8.573-36.538 8.573l-.337-2.778 31.056-6.555z"/>
  <path fill-opacity=".251" d="M62.078 63.389c-1.013 0-1.834 1.343-1.834 3v77.222c0 1.657.821 3 1.834 3v-1c1.012 0 1.833-.343 1.833-2V66.389c0-1.657-.82-3-1.833-3z"/>
 </g>
 <path fill-opacity=".188" d="M40.114 102.162l-4.433-3.857-22.843-10.639C-1.544 88.827 1.067 100.54.503 105.972c3.257 1.277 18.76 5.873 25 8.139l14.61-11.949z"/>
 <linearGradient id="U" gradientUnits="objectBoundingBox" x1="-.66" y1=".206" x2=".01" y2=".206" gradientTransform="rotate(-58.636 -.66 .206)">
  <stop offset=".284" stop-color="#5D340D"/>
  <stop offset=".779" stop-color="#864D17" stop-opacity=".933"/>
  <stop offset="1" stop-color="#B06722" stop-opacity=".867"/>
 </linearGradient>
 <linearGradient id="T" gradientUnits="objectBoundingBox" x1="-.691" y1=".193" x2=".005" y2=".193" gradientTransform="rotate(-58.179 -.69 .193)">
  <stop offset="0" stop-color="#90633A"/>
  <stop offset=".361" stop-color="#9C5F25"/>
  <stop offset=".521" stop-color="#A95B11"/>
  <stop offset="1" stop-color="#BC7F4B"/>
 </linearGradient>
 <path fill="url(#T)" stroke-width="1.152" stroke-linejoin="round" stroke="url(#U)" d="M43.347 100.505l-.043 7.483-1.814 2.142-14.222 3-26.572-9.925c.198-4.409-1.475-7.873 2.35-12.02 3.824-4.147 9.556-3.61 10.723-2.996l29.578 12.316z"/>
 <linearGradient id="W" gradientUnits="objectBoundingBox" x1="-1.981" y1="-.958" x2="1.515" y2="-.958" gradientTransform="rotate(35.095 -1.981 -.958)">
  <stop offset="0" stop-color="#B06722" stop-opacity=".122"/>
  <stop offset="1" stop-color="#5D340D" stop-opacity=".141"/>
 </linearGradient>
 <linearGradient id="V" gradientUnits="objectBoundingBox" x1="-2.048" y1="-1.025" x2="1.561" y2="-1.025" gradientTransform="rotate(34.608 -2.048 -1.025)">
  <stop offset="0" stop-opacity=".067"/>
  <stop offset="1" stop-color="#FFF" stop-opacity=".141"/>
 </linearGradient>
 <path fill="url(#V)" stroke-width="1.152" stroke-linejoin="round" stroke="url(#W)" d="M43.097 100.505l.207 7.483-2.036 2.364-13.889 2.556-26.683-9.703c1.861-4.186.074-9.222 4.739-13.034 4.665-3.812 7.389-1.986 8.334-1.982l29.328 12.316z"/>
 <path fill-opacity=".188" d="M66.225 112.496l-4.239-4.635-23.037-9.862c-14.381 1.162-14.918 10.571-15.482 16.003 3.256 1.277 21.909 8.176 28.148 10.442l14.61-11.948z"/>
 <linearGradient id="Y" gradientUnits="objectBoundingBox" x1="-.548" y1=".234" x2=".091" y2=".234" gradientTransform="rotate(-57.774 -.548 .234)">
  <stop offset=".284" stop-color="#5D340D"/>
  <stop offset=".779" stop-color="#864D17" stop-opacity=".933"/>
  <stop offset="1" stop-color="#B06722" stop-opacity=".867"/>
 </linearGradient>
 <linearGradient id="X" gradientUnits="objectBoundingBox" x1="-.574" y1=".222" x2=".089" y2=".222" gradientTransform="rotate(-57.305 -.574 .222)">
  <stop offset="0" stop-color="#90633A"/>
  <stop offset=".361" stop-color="#9C5F25"/>
  <stop offset=".521" stop-color="#A95B11"/>
  <stop offset="1" stop-color="#BC7F4B"/>
 </linearGradient>
 <path fill="url(#X)" stroke-width="1.152" stroke-linejoin="round" stroke="url(#Y)" d="M69.097 110.505l.318 7.816-1.814 2.142-14.222 3-29.972-10.924c.198-4.409 1.925-6.873 5.75-11.02 3.824-4.147 10.18-4.795 11.347-4.18l28.593 13.166z"/>
 <linearGradient id="aa" gradientUnits="objectBoundingBox" x1="-1.766" y1="-.914" x2="1.526" y2="-.914" gradientTransform="rotate(33.706 -1.766 -.914)">
  <stop offset="0" stop-color="#B06722" stop-opacity=".122"/>
  <stop offset="1" stop-color="#5D340D" stop-opacity=".141"/>
 </linearGradient>
 <linearGradient id="Z" gradientUnits="objectBoundingBox" x1="-1.823" y1="-.977" x2="1.57" y2="-.977" gradientTransform="rotate(33.205 -1.823 -.977)">
  <stop offset="0" stop-opacity=".067"/>
  <stop offset="1" stop-color="#FFF" stop-opacity=".141"/>
 </linearGradient>
 <path fill="url(#Z)" stroke-width="1.152" stroke-linejoin="round" stroke="url(#aa)" d="M69.097 110.505l.318 7.816-2.036 2.364-13.889 2.556-30.083-10.702c1.861-4.187 3.474-8.222 8.139-12.034 4.665-3.812 8.013-2.948 8.958-2.944l28.593 12.944z"/>
 <path fill-opacity=".188" d="M97.123 124.496l-3.803-3.997-23.473-10.5c-14.38 1.162-14.816 10.237-15.38 15.669 3.256 1.277 21.808 8.51 28.047 10.776l14.61-11.948z"/>
 <linearGradient id="ac" gradientUnits="objectBoundingBox" x1="-.545" y1=".236" x2=".077" y2=".236" gradientTransform="rotate(-58.63 -.545 .236)">
  <stop offset=".284" stop-color="#5D340D"/>
  <stop offset=".779" stop-color="#864D17" stop-opacity=".933"/>
  <stop offset="1" stop-color="#B06722" stop-opacity=".867"/>
 </linearGradient>
 <linearGradient id="ab" gradientUnits="objectBoundingBox" x1="-.572" y1=".225" x2=".073" y2=".225" gradientTransform="rotate(-58.206 -.572 .225)">
  <stop offset="0" stop-color="#90633A"/>
  <stop offset=".361" stop-color="#9C5F25"/>
  <stop offset=".521" stop-color="#A95B11"/>
  <stop offset="1" stop-color="#BC7F4B"/>
 </linearGradient>
 <path fill="url(#ab)" stroke-width="1.152" stroke-linejoin="round" stroke="url(#ac)" d="M100.504 121.866l-.19 8.455-1.814 2.142c-3.481 3.668-7.996 4.585-14.222 3-2.259-.415-19.981-7.283-29.972-10.924.198-4.409 1.925-6.873 5.75-11.02 3.824-4.147 9.28-5.129 10.448-4.514l30 12.861z"/>
 <linearGradient id="ae" gradientUnits="objectBoundingBox" x1="-1.759" y1="-.863" x2="1.485" y2="-.863" gradientTransform="rotate(34.715 -1.76 -.863)">
  <stop offset="0" stop-color="#B06722" stop-opacity=".122"/>
  <stop offset="1" stop-color="#5D340D" stop-opacity=".141"/>
 </linearGradient>
 <linearGradient id="ad" gradientUnits="objectBoundingBox" x1="-1.815" y1="-.922" x2="1.525" y2="-.922" gradientTransform="rotate(34.253 -1.815 -.922)">
  <stop offset="0" stop-opacity=".067"/>
  <stop offset="1" stop-color="#FFF" stop-opacity=".141"/>
 </linearGradient>
 <path fill="url(#ad)" stroke-width="1.152" stroke-linejoin="round" stroke="url(#ae)" d="M100.504 121.977l-.19 8.344-2.036 2.364c-1.176 1.446-5.926 4.863-13.889 2.556-1.953-.61-20.055-7.135-30.083-10.702 1.86-4.187 3.473-8.222 8.139-12.034 4.665-3.812 7.114-3.392 8.06-3.389l29.999 12.861z"/>
 <radialGradient id="af" cx="61.002" cy="115.145" r="1.645" gradientUnits="userSpaceOnUse" gradientTransform="rotate(45.09 61.003 115.145)">
  <stop offset="0" stop-color="#FFF1B3" stop-opacity=".369"/>
  <stop offset=".996" stop-color="#FFF1B3" stop-opacity="0"/>
 </radialGradient>
 <path fill="url(#af)" d="M56.291 119.729c.626.644 3.243-.888 5.845-3.42s4.204-5.106 3.578-5.749c-.626-.643-3.243.888-5.845 3.42s-4.204 5.106-3.578 5.749z"/>
 <radialGradient id="ag" cx="30.225" cy="102.922" r="1.645" gradientUnits="userSpaceOnUse" gradientTransform="rotate(45.09 30.225 102.922)">
  <stop offset="0" stop-color="#FFF1B3" stop-opacity=".369"/>
  <stop offset=".996" stop-color="#FFF1B3" stop-opacity="0"/>
 </radialGradient>
 <path fill="url(#ag)" d="M25.513 107.507c.626.643 3.243-.888 5.845-3.42s4.204-5.106 3.578-5.75c-.626-.642-3.243.889-5.845 3.421s-4.204 5.106-3.578 5.749z"/>
 <radialGradient id="ah" cx="5.225" cy="91.922" r="1.645" gradientUnits="userSpaceOnUse" gradientTransform="rotate(45.09 5.225 91.922)">
  <stop offset="0" stop-color="#FFF1B3" stop-opacity=".369"/>
  <stop offset=".996" stop-color="#FFF1B3" stop-opacity="0"/>
 </radialGradient>
 <path fill="url(#ah)" d="M.513 96.507c.626.643 3.243-.888 5.845-3.42s4.204-5.106 3.578-5.75c-.626-.642-3.243.889-5.845 3.42C1.49 93.29-.112 95.865.513 96.508z"/>
 <radialGradient id="ai" cx="32.232" cy="102.759" r="23.685" gradientUnits="userSpaceOnUse" gradientTransform="rotate(12.83 32.232 102.759)">
  <stop offset="0" stop-color="#FFF1B3" stop-opacity=".369"/>
  <stop offset=".996" stop-color="#FFF1B3" stop-opacity="0"/>
 </radialGradient>
 <path fill="url(#ai)" d="M30.746 106.204c9.854 3.526 19.004 6.37 19.825 4.467.821-1.903-8.426-6.616-16.852-11.358-.752-.423-3.487.564-4.308 2.466-.82 1.903-3.889 2.556 1.335 4.425z"/>
 <radialGradient id="aj" cx="63.566" cy="115.314" r="23.685" gradientUnits="userSpaceOnUse" gradientTransform="rotate(12.83 63.565 115.314)">
  <stop offset="0" stop-color="#FFF1B3" stop-opacity=".369"/>
  <stop offset=".996" stop-color="#FFF1B3" stop-opacity="0"/>
 </radialGradient>
 <path fill="url(#aj)" d="M62.08 118.759c9.853 3.526 19.004 6.37 19.825 4.467.82-1.902-8.427-6.615-16.853-11.357-.752-.423-3.487.563-4.308 2.466-.82 1.903-3.888 2.555 1.335 4.424z"/>
 <radialGradient id="ak" cx="6.899" cy="93.092" r="23.685" gradientUnits="userSpaceOnUse" gradientTransform="rotate(12.83 6.899 93.092)">
  <stop offset="0" stop-color="#FFF1B3" stop-opacity=".369"/>
  <stop offset=".996" stop-color="#FFF1B3" stop-opacity="0"/>
 </radialGradient>
 <path fill="url(#ak)" d="M5.412 96.537c9.855 3.526 19.005 6.37 19.826 4.467.82-1.902-8.427-6.616-16.853-11.357-.752-.423-3.486.563-4.307 2.466-.821 1.902-3.889 2.555 1.334 4.424z"/>
</svg>
