<svg xmlns="http://www.w3.org/2000/svg" baseProfile="full" width="101" height="171">
 <path fill="#AE6320" stroke-linejoin="round" stroke="#505050" d="M5.503 50.5h90a5 5 0 015 5v110a5 5 0 01-5 5h-90a5 5 0 01-5-5v-110a5 5 0 015-5z"/>
 <linearGradient id="a" gradientUnits="objectBoundingBox" x1=".909" y1=".745" x2="1.654" y2=".745" gradientTransform="rotate(-90 .91 .745)">
  <stop offset=".453" stop-color="#7A7A7A" stop-opacity=".612"/>
  <stop offset=".831" stop-color="#A4A4A4" stop-opacity=".31"/>
  <stop offset="1" stop-color="#CECECE" stop-opacity="0"/>
 </linearGradient>
 <path fill="url(#a)" d="M99.092 53.388a1 1 0 011 1v111.334c0 .552-.783 6.09-11.617 4.778 3.723-.389 9.617-1.104 9.617-11.112v-105a1 1 0 011-1z"/>
 <linearGradient id="b" gradientUnits="objectBoundingBox" x1=".507" y1="4.012" x2="4.219" y2="4.012" gradientTransform="rotate(-90 .507 4.012)">
  <stop offset=".832" stop-color="#7A7A7A"/>
  <stop offset=".948" stop-color="#A4A4A4" stop-opacity=".502"/>
  <stop offset="1" stop-color="#CECECE" stop-opacity="0"/>
 </linearGradient>
 <path fill="url(#b)" d="M5.92 158.5h89.167a5 5 0 015 5v1.666c.416 3.012-2.239 5-5 5H5.92a5 5 0 01-5-5V163.5a5 5 0 015-5z"/>
 <linearGradient id="c" gradientUnits="objectBoundingBox" x1=".005" y1=".613" x2=".985" y2=".613" gradientTransform="rotate(5.46 .005 .613)">
  <stop offset="0" stop-color="#B78356"/>
  <stop offset=".075" stop-color="#BB804E"/>
  <stop offset=".272" stop-color="#BF7E46"/>
  <stop offset="1" stop-color="#904604"/>
 </linearGradient>
 <path fill="url(#c)" d="M.503 129.985l.141 36.621c1.39 2.171 2.873 3.314 5.946 3.56 7.853.628 21.289.336 27.199-1.208l-.141-38.973H.503z"/>
 <linearGradient id="d" gradientUnits="objectBoundingBox" x1=".404" y1=".967" x2="1.398" y2=".967" gradientTransform="rotate(-90 .404 .967)">
  <stop offset="0" stop-color="#B78356" stop-opacity="0"/>
  <stop offset=".539" stop-color="#B3733B" stop-opacity=".502"/>
  <stop offset="1" stop-color="#B06421"/>
 </linearGradient>
 <path fill="url(#d)" d="M.503 129.985v37.098c2.031 4.5 25.976 3.417 33.286 1.875l-.141-38.973H.503z"/>
 <path fill="none" stroke-width="1.639" stroke-linecap="round" stroke-linejoin="round" stroke="#624225" d="M1.103 165.983c.282 1.41 1.361 3.666 4.515 3.822 7.305.361 27.666.695 28.17-.847"/>
 <linearGradient id="e" gradientUnits="objectBoundingBox" x1=".005" y1=".615" x2=".985" y2=".615" gradientTransform="rotate(5.445 .005 .615)">
  <stop offset="0" stop-color="#B78356"/>
  <stop offset=".075" stop-color="#BB804E"/>
  <stop offset=".272" stop-color="#BF7E46"/>
  <stop offset="1" stop-color="#904604"/>
 </linearGradient>
 <path fill="url(#e)" d="M.503 95.281l.141 38.973c1.781 1.563 24.923 2.149 33.145 0l-.141-38.973H.503z"/>
 <linearGradient id="f" gradientUnits="objectBoundingBox" x1=".404" y1=".967" x2="1.358" y2=".967" gradientTransform="rotate(-90 .404 .967)">
  <stop offset="0" stop-color="#B78356" stop-opacity="0"/>
  <stop offset=".539" stop-color="#B3733B" stop-opacity=".502"/>
  <stop offset="1" stop-color="#B06421"/>
 </linearGradient>
 <path fill="url(#f)" d="M.503 93.58l.141 40.674c1.781 1.563 24.923 2.149 33.145 0l-.141-38.973-33.145-1.7z"/>
 <path fill="none" stroke-width="1.639" stroke-linecap="round" stroke-linejoin="round" stroke="#624225" d="M.944 134.254c1.781 1.563 24.623 2.149 32.845 0"/>
 <linearGradient id="g" gradientUnits="objectBoundingBox" x1=".005" y1=".615" x2=".985" y2=".615" gradientTransform="rotate(5.445 .005 .615)">
  <stop offset="0" stop-color="#B78356"/>
  <stop offset=".075" stop-color="#BB804E"/>
  <stop offset=".272" stop-color="#BF7E46"/>
  <stop offset="1" stop-color="#904604"/>
 </linearGradient>
 <path fill="url(#g)" d="M.5 54.17l.141 38.973c1.78 1.563 24.922 2.149 33.145 0l-.142-38.973H.5z"/>
 <linearGradient id="h" gradientUnits="objectBoundingBox" x1=".404" y1=".965" x2="1.396" y2=".965" gradientTransform="rotate(-90 .404 .965)">
  <stop offset="0" stop-color="#B78356" stop-opacity="0"/>
  <stop offset=".539" stop-color="#B3733B" stop-opacity=".502"/>
  <stop offset="1" stop-color="#B06421"/>
 </linearGradient>
 <path fill="url(#h)" d="M.5 54.17l.141 38.973c1.78 1.563 24.922 2.149 33.145 0l-.142-38.973H.5z"/>
 <path fill="none" stroke-width="1.639" stroke-linecap="round" stroke-linejoin="round" stroke="#624225" d="M.941 93.143c1.78 1.563 24.623 2.149 32.844 0"/>
 <linearGradient id="i" gradientUnits="objectBoundingBox" x1=".005" y1=".615" x2=".985" y2=".615" gradientTransform="rotate(5.445 .005 .615)">
  <stop offset="0" stop-color="#B78356"/>
  <stop offset=".075" stop-color="#BB804E"/>
  <stop offset=".272" stop-color="#BF7E46"/>
  <stop offset="1" stop-color="#904604"/>
 </linearGradient>
 <path fill="url(#i)" d="M33.836 54.32l.141 38.973c1.781 1.562 24.923 2.148 33.145 0L66.98 54.32H33.836z"/>
 <linearGradient id="j" gradientUnits="objectBoundingBox" x1=".404" y1=".965" x2="1.396" y2=".965" gradientTransform="rotate(-90 .404 .965)">
  <stop offset="0" stop-color="#B78356" stop-opacity="0"/>
  <stop offset=".539" stop-color="#B3733B" stop-opacity=".502"/>
  <stop offset="1" stop-color="#B06421"/>
 </linearGradient>
 <path fill="url(#j)" d="M33.836 54.32l.141 38.973c1.781 1.562 24.923 2.148 33.145 0L66.98 54.32H33.836z"/>
 <path fill="none" stroke-width="1.639" stroke-linecap="round" stroke-linejoin="round" stroke="#624225" d="M33.977 93.293c1.781 1.562 24.923 2.148 33.145 0"/>
 <linearGradient id="k" gradientUnits="objectBoundingBox" x1=".005" y1=".615" x2=".985" y2=".615" gradientTransform="rotate(5.445 .005 .615)">
  <stop offset="0" stop-color="#B78356"/>
  <stop offset=".075" stop-color="#BB804E"/>
  <stop offset=".272" stop-color="#BF7E46"/>
  <stop offset="1" stop-color="#904604"/>
 </linearGradient>
 <path fill="url(#k)" d="M33.84 130.135l.14 38.973c1.781 1.562 24.923 2.149 33.145 0l-.141-38.973H33.839z"/>
 <linearGradient id="l" gradientUnits="objectBoundingBox" x1=".404" y1=".965" x2="1.396" y2=".965" gradientTransform="rotate(-90 .404 .965)">
  <stop offset="0" stop-color="#B78356" stop-opacity="0"/>
  <stop offset=".539" stop-color="#B3733B" stop-opacity=".502"/>
  <stop offset="1" stop-color="#B06421"/>
 </linearGradient>
 <path fill="url(#l)" d="M33.84 130.135l.14 38.973c1.781 1.562 24.923 2.149 33.145 0l-.141-38.973H33.839z"/>
 <path fill="none" stroke-width="1.639" stroke-linecap="round" stroke-linejoin="round" stroke="#624225" d="M33.98 169.108c1.781 1.562 24.923 2.149 33.145 0"/>
 <linearGradient id="m" gradientUnits="objectBoundingBox" x1=".005" y1=".615" x2=".985" y2=".615" gradientTransform="rotate(5.445 .005 .615)">
  <stop offset="0" stop-color="#B78356"/>
  <stop offset=".075" stop-color="#BB804E"/>
  <stop offset=".272" stop-color="#BF7E46"/>
  <stop offset="1" stop-color="#904604"/>
 </linearGradient>
 <path fill="url(#m)" d="M33.84 95.43l.14 38.974c1.781 1.562 24.923 2.149 33.145 0l-.141-38.973H33.839z"/>
 <linearGradient id="n" gradientUnits="objectBoundingBox" x1=".404" y1=".965" x2="1.396" y2=".965" gradientTransform="rotate(-90 .404 .965)">
  <stop offset="0" stop-color="#B78356" stop-opacity="0"/>
  <stop offset=".539" stop-color="#B3733B" stop-opacity=".502"/>
  <stop offset="1" stop-color="#B06421"/>
 </linearGradient>
 <path fill="url(#n)" d="M33.84 95.43l.14 38.974c1.781 1.562 24.923 2.149 33.145 0l-.141-38.973H33.839z"/>
 <path fill="none" stroke-width="1.639" stroke-linecap="round" stroke-linejoin="round" stroke="#624225" d="M33.98 134.404c1.781 1.562 24.923 2.149 33.145 0"/>
 <linearGradient id="o" gradientUnits="objectBoundingBox" x1=".005" y1=".619" x2=".988" y2=".619" gradientTransform="rotate(5.421 .005 .62)">
  <stop offset="0" stop-color="#B78356"/>
  <stop offset=".075" stop-color="#BB804E"/>
  <stop offset=".272" stop-color="#BF7E46"/>
  <stop offset="1" stop-color="#904604"/>
 </linearGradient>
 <path fill="url(#o)" d="M67.125 130.135l.14 38.973c1.781 1.562 24.823 1.548 33.045-.6l-.041-38.373H67.125z"/>
 <linearGradient id="p" gradientUnits="objectBoundingBox" x1=".406" y1=".973" x2="1.405" y2=".973" gradientTransform="rotate(-90 .406 .973)">
  <stop offset="0" stop-color="#B78356" stop-opacity="0"/>
  <stop offset=".539" stop-color="#B3733B" stop-opacity=".502"/>
  <stop offset="1" stop-color="#B06421"/>
 </linearGradient>
 <path fill="url(#p)" d="M67.125 130.135l.14 38.973c1.781 1.562 24.723 1.548 32.945-.6l.059-38.373H67.125z"/>
 <path fill="none" stroke-width="1.639" stroke-linecap="round" stroke-linejoin="round" stroke="#624225" d="M67.266 169.108c1.558 1.367 19.421.789 29.432.681 1.44-.016 3.405-1.498 3.405-2.47"/>
 <linearGradient id="q" gradientUnits="objectBoundingBox" x1=".005" y1=".615" x2=".985" y2=".615" gradientTransform="rotate(5.445 .005 .615)">
  <stop offset="0" stop-color="#B78356"/>
  <stop offset=".075" stop-color="#BB804E"/>
  <stop offset=".272" stop-color="#BF7E46"/>
  <stop offset="1" stop-color="#904604"/>
 </linearGradient>
 <path fill="url(#q)" d="M67.125 95.43l.14 38.974c1.782 1.562 24.923 2.149 33.145 0l-.141-38.973H67.125z"/>
 <linearGradient id="r" gradientUnits="objectBoundingBox" x1=".404" y1=".967" x2="1.356" y2=".967" gradientTransform="rotate(-90 .404 .967)">
  <stop offset="0" stop-color="#B78356" stop-opacity="0"/>
  <stop offset=".539" stop-color="#B3733B" stop-opacity=".502"/>
  <stop offset="1" stop-color="#B06421"/>
 </linearGradient>
 <path fill="url(#r)" d="M67.125 95.43l.14 38.974c1.782 1.562 24.923 2.149 33.145 0l-.141-40.773-33.144 1.8z"/>
 <path fill="none" stroke-width="1.639" stroke-linecap="round" stroke-linejoin="round" stroke="#624225" d="M67.266 134.404c1.78 1.562 24.522 2.149 32.744 0"/>
 <linearGradient id="s" gradientUnits="objectBoundingBox" x1=".005" y1=".615" x2=".985" y2=".615" gradientTransform="rotate(5.445 .005 .615)">
  <stop offset="0" stop-color="#B78356"/>
  <stop offset=".075" stop-color="#BB804E"/>
  <stop offset=".272" stop-color="#BF7E46"/>
  <stop offset="1" stop-color="#904604"/>
 </linearGradient>
 <path fill="url(#s)" d="M67.122 54.32l.14 38.973c1.781 1.562 24.923 2.148 33.145 0l-.141-38.973H67.122z"/>
 <linearGradient id="t" gradientUnits="objectBoundingBox" x1=".404" y1=".965" x2="1.396" y2=".965" gradientTransform="rotate(-90 .404 .965)">
  <stop offset="0" stop-color="#B78356" stop-opacity="0"/>
  <stop offset=".539" stop-color="#B3733B" stop-opacity=".502"/>
  <stop offset="1" stop-color="#B06421"/>
 </linearGradient>
 <path fill="url(#t)" d="M67.122 54.32l.14 38.973c1.781 1.562 24.923 2.148 33.145 0l-.141-38.973H67.122z"/>
 <path fill="none" stroke-width="1.639" stroke-linecap="round" stroke-linejoin="round" stroke="#624225" d="M67.263 93.293c1.78 1.562 24.522 2.148 32.744 0"/>
 <path fill-opacity=".251" d="M100.503 95.5a3 3 0 01-3 3h-94a3 3 0 010-6h94a3 3 0 013 3zm0 41a3 3 0 01-3 3h-94a3 3 0 110-6h94a3 3 0 013 3z"/>
</svg>
