<svg xmlns="http://www.w3.org/2000/svg" xmlns:xlink="http://www.w3.org/1999/xlink" baseProfile="full" width="101" height="171">
 <linearGradient id="a" gradientUnits="objectBoundingBox" x1=".499" y1=".007" x2=".943" y2=".007" gradientTransform="rotate(90 .499 .007)">
  <stop offset=".453" stop-color="#585858"/>
  <stop offset=".831" stop-color="#514439"/>
  <stop offset="1" stop-color="#4A301A"/>
 </linearGradient>
 <path fill="#D7873D" stroke-linejoin="round" stroke="url(#a)" d="M5.504 90.5h90a5 5 0 015 5v69.999a5 5 0 01-5 5h-90a5 5 0 01-5-5v-70a5 5 0 015-5z"/>
 <linearGradient id="b" gradientUnits="objectBoundingBox" x1=".508" y1="1.004" x2="1.499" y2="1.004" gradientTransform="rotate(-90 .508 1.004)">
  <stop offset=".832" stop-color="#7F5E41"/>
  <stop offset=".948" stop-color="#A8703F" stop-opacity=".502"/>
  <stop offset=".999" stop-color="#D1833D" stop-opacity="0"/>
 </linearGradient>
 <path fill="url(#b)" d="M5.92 126.499h89.168a5 5 0 014.999 5v33.667a5 5 0 01-5 5H5.922a5 5 0 01-5-5v-33.667a5 5 0 015-5z"/>
 <linearGradient id="c" gradientUnits="objectBoundingBox" x1=".005" y1=".387" x2=".985" y2=".387" gradientTransform="rotate(-5.46 .005 .387)">
  <stop offset="0" stop-color="#B78356"/>
  <stop offset=".075" stop-color="#BB804E"/>
  <stop offset=".272" stop-color="#BF7E46"/>
  <stop offset="1" stop-color="#904604"/>
 </linearGradient>
 <path fill="url(#c)" d="M.507 103.401l.141-9.266c1.318-1.525 2.873-3.02 5.946-3.096 7.853-.193 21.289-.103 27.199.372l-.141 11.99H.507z"/>
 <linearGradient id="d" gradientUnits="objectBoundingBox" x1=".404" y1=".007" x2="1.424" y2=".007" gradientTransform="rotate(90 .404 .007)">
  <stop offset="0" stop-color="#B78356" stop-opacity="0"/>
  <stop offset=".539" stop-color="#B3733B" stop-opacity=".502"/>
  <stop offset="1" stop-color="#B06421"/>
 </linearGradient>
 <path fill="url(#d)" d="M.507 103.401v-9.413c2.031-1.385 25.976-3.051 33.286-2.577l-.141 11.99H.507z"/>
 <path fill="none" stroke-width="1.639" stroke-linecap="round" stroke-linejoin="round" stroke="#78512F" d="M1.107 94.326c.414-1.16 1.361-3.128 4.515-3.176 7.305-.11 27.666-.213 28.17.26"/>
 <linearGradient id="e" gradientUnits="objectBoundingBox" x1=".005" y1=".385" x2=".985" y2=".385" gradientTransform="rotate(-5.445 .005 .385)">
  <stop offset="0" stop-color="#B78356"/>
  <stop offset=".075" stop-color="#BB804E"/>
  <stop offset=".272" stop-color="#BF7E46"/>
  <stop offset="1" stop-color="#904604"/>
 </linearGradient>
 <path fill="url(#e)" d="M.507 114.078l.141-11.99c1.781-.481 24.922-.661 33.145 0l-.141 11.99H.507z"/>
 <linearGradient id="f" gradientUnits="objectBoundingBox" x1=".404" y1=".033" x2="1.358" y2=".033" gradientTransform="rotate(90 .404 .033)">
  <stop offset="0" stop-color="#B78356" stop-opacity="0"/>
  <stop offset=".539" stop-color="#BE7C41" stop-opacity=".502"/>
  <stop offset="1" stop-color="#C6752D"/>
 </linearGradient>
 <path fill="url(#f)" d="M.507 114.601l.141-12.513c1.781-.481 24.922-.661 33.145 0l-.141 11.99-33.145.523z"/>
 <path fill="none" stroke-width="1.639" stroke-linecap="round" stroke-linejoin="round" stroke="#82562F" d="M.948 102.088c1.78-.481 24.622-.661 32.845 0"/>
 <linearGradient id="g" gradientUnits="objectBoundingBox" x1=".005" y1=".385" x2=".985" y2=".385" gradientTransform="rotate(-5.445 .005 .385)">
  <stop offset="0" stop-color="#B78356"/>
  <stop offset=".075" stop-color="#BB804E"/>
  <stop offset=".272" stop-color="#BF7E46"/>
  <stop offset="1" stop-color="#904604"/>
 </linearGradient>
 <path fill="url(#g)" d="M.504 126.726l.141-11.99c1.78-.481 24.922-.662 33.145 0l-.142 11.99H.505z"/>
 <linearGradient id="h" gradientUnits="objectBoundingBox" x1=".404" y1=".035" x2="1.396" y2=".035" gradientTransform="rotate(90 .404 .035)">
  <stop offset="0" stop-color="#B78356" stop-opacity="0"/>
  <stop offset=".539" stop-color="#C8854B" stop-opacity=".502"/>
  <stop offset="1" stop-color="#DA8840"/>
 </linearGradient>
 <path fill="url(#h)" d="M.504 126.726l.141-11.99c1.78-.481 24.922-.662 33.145 0l-.142 11.99H.505z"/>
 <path fill="none" stroke-width="1.639" stroke-linecap="round" stroke-linejoin="round" stroke="#82562F" d="M.945 114.736c1.78-.481 24.622-.662 32.844 0"/>
 <linearGradient id="i" gradientUnits="objectBoundingBox" x1=".005" y1=".385" x2=".985" y2=".385" gradientTransform="rotate(-5.445 .005 .385)">
  <stop offset="0" stop-color="#B78356"/>
  <stop offset=".075" stop-color="#BB804E"/>
  <stop offset=".272" stop-color="#BF7E46"/>
  <stop offset="1" stop-color="#904604"/>
 </linearGradient>
 <path fill="url(#i)" d="M33.843 103.355l.141-11.99c1.781-.481 24.923-.661 33.145 0l-.141 11.99H33.843z"/>
 <linearGradient id="j" gradientUnits="objectBoundingBox" x1=".404" y1=".035" x2="1.396" y2=".035" gradientTransform="rotate(90 .404 .035)">
  <stop offset="0" stop-color="#B78356" stop-opacity="0"/>
  <stop offset=".539" stop-color="#B3733B" stop-opacity=".502"/>
  <stop offset="1" stop-color="#B06421"/>
 </linearGradient>
 <path fill="url(#j)" d="M33.843 103.355l.141-11.99c1.781-.481 24.923-.661 33.145 0l-.141 11.99H33.843z"/>
 <path fill="none" stroke-width="1.639" stroke-linecap="round" stroke-linejoin="round" stroke="#78512F" d="M33.984 91.365c1.781-.481 24.923-.661 33.145 0"/>
 <linearGradient id="k" gradientUnits="objectBoundingBox" x1=".005" y1=".385" x2=".985" y2=".385" gradientTransform="rotate(-5.445 .005 .385)">
  <stop offset="0" stop-color="#B78356"/>
  <stop offset=".075" stop-color="#BB804E"/>
  <stop offset=".272" stop-color="#BF7E46"/>
  <stop offset="1" stop-color="#904604"/>
 </linearGradient>
 <path fill="url(#k)" d="M33.843 114.032l.141-11.99c1.781-.481 24.923-.662 33.145 0l-.141 11.99H33.843z"/>
 <linearGradient id="l" gradientUnits="objectBoundingBox" x1=".404" y1=".035" x2="1.396" y2=".035" gradientTransform="rotate(90 .404 .035)">
  <stop offset="0" stop-color="#B78356" stop-opacity="0"/>
  <stop offset=".539" stop-color="#BE7C41" stop-opacity=".502"/>
  <stop offset="1" stop-color="#C6752D"/>
 </linearGradient>
 <path fill="url(#l)" d="M33.843 114.032l.141-11.99c1.781-.481 24.923-.662 33.145 0l-.141 11.99H33.843z"/>
 <path fill="none" stroke-width="1.639" stroke-linecap="round" stroke-linejoin="round" stroke="#82562F" d="M33.984 102.042c1.781-.481 24.923-.662 33.145 0"/>
 <linearGradient id="m" gradientUnits="objectBoundingBox" x1=".005" y1=".385" x2=".985" y2=".385" gradientTransform="rotate(-5.445 .005 .385)">
  <stop offset="0" stop-color="#B78356"/>
  <stop offset=".075" stop-color="#BB804E"/>
  <stop offset=".272" stop-color="#BF7E46"/>
  <stop offset="1" stop-color="#904604"/>
 </linearGradient>
 <path fill="url(#m)" d="M33.84 126.68l.141-11.99c1.781-.481 24.922-.662 33.145 0l-.141 11.99H33.84z"/>
 <linearGradient id="n" gradientUnits="objectBoundingBox" x1=".404" y1=".035" x2="1.396" y2=".035" gradientTransform="rotate(90 .404 .035)">
  <stop offset="0" stop-color="#B78356" stop-opacity="0"/>
  <stop offset=".539" stop-color="#C8854B" stop-opacity=".502"/>
  <stop offset="1" stop-color="#DA8840"/>
 </linearGradient>
 <path fill="url(#n)" d="M33.84 126.68l.141-11.99c1.781-.481 24.922-.662 33.145 0l-.141 11.99H33.84z"/>
 <path fill="none" stroke-width="1.639" stroke-linecap="round" stroke-linejoin="round" stroke="#82562E" d="M33.981 114.69c1.781-.481 24.922-.662 33.145 0"/>
 <linearGradient id="o" gradientUnits="objectBoundingBox" x1=".005" y1=".381" x2=".988" y2=".381" gradientTransform="rotate(-5.421 .005 .38)">
  <stop offset="0" stop-color="#B78356"/>
  <stop offset=".075" stop-color="#BB804E"/>
  <stop offset=".272" stop-color="#BF7E46"/>
  <stop offset="1" stop-color="#904604"/>
 </linearGradient>
 <path fill="url(#o)" d="M67.129 103.355l.14-11.99c1.664-.45 21.883-.475 31.24.062.659.038 1.415 1.794 1.806 2.223l-.042 9.705H67.129z"/>
 <linearGradient id="p" gradientUnits="objectBoundingBox" x1=".405" y1=".027" x2="1.405" y2=".027" gradientTransform="rotate(90 .405 .027)">
  <stop offset="0" stop-color="#B78356" stop-opacity="0"/>
  <stop offset=".539" stop-color="#B3733B" stop-opacity=".502"/>
  <stop offset="1" stop-color="#B06421"/>
 </linearGradient>
 <path fill="url(#p)" d="M67.129 103.355l.14-11.99c1.652-.446 21.502-.475 30.934.05.739.042 1.821 2.256 2.111 2.834l-.041 9.106H67.129z"/>
 <path fill="none" stroke-width="1.639" stroke-linecap="round" stroke-linejoin="round" stroke="#78512F" d="M67.27 91.365c1.558-.42 19.421-.243 29.432-.21 1.44.005 3.375 2.928 3.405 3.76"/>
 <linearGradient id="q" gradientUnits="objectBoundingBox" x1=".005" y1=".385" x2=".985" y2=".385" gradientTransform="rotate(-5.445 .005 .385)">
  <stop offset="0" stop-color="#B78356"/>
  <stop offset=".075" stop-color="#BB804E"/>
  <stop offset=".272" stop-color="#BF7E46"/>
  <stop offset="1" stop-color="#904604"/>
 </linearGradient>
 <path fill="url(#q)" d="M67.129 114.032l.14-11.99c1.782-.481 24.923-.662 33.145 0l-.141 11.99H67.129z"/>
 <linearGradient id="r" gradientUnits="objectBoundingBox" x1=".404" y1=".033" x2="1.356" y2=".033" gradientTransform="rotate(90 .404 .033)">
  <stop offset="0" stop-color="#B78356" stop-opacity="0"/>
  <stop offset=".539" stop-color="#BE7C41" stop-opacity=".502"/>
  <stop offset="1" stop-color="#C6752D"/>
 </linearGradient>
 <path fill="url(#r)" d="M67.129 114.032l.14-11.99c1.782-.481 24.923-.662 33.145 0l-.141 12.543-33.144-.553z"/>
 <path fill="none" stroke-width="1.639" stroke-linecap="round" stroke-linejoin="round" stroke="#82562F" d="M67.27 102.042c1.78-.481 24.522-.662 32.744 0"/>
 <linearGradient id="s" gradientUnits="objectBoundingBox" x1=".005" y1=".385" x2=".985" y2=".385" gradientTransform="rotate(-5.445 .005 .385)">
  <stop offset="0" stop-color="#B78356"/>
  <stop offset=".075" stop-color="#BB804E"/>
  <stop offset=".272" stop-color="#BF7E46"/>
  <stop offset="1" stop-color="#904604"/>
 </linearGradient>
 <path fill="url(#s)" d="M67.126 126.68l.14-11.99c1.781-.481 24.923-.662 33.145 0l-.141 11.99H67.126z"/>
 <linearGradient id="t" gradientUnits="objectBoundingBox" x1=".404" y1=".035" x2="1.396" y2=".035" gradientTransform="rotate(90 .404 .035)">
  <stop offset="0" stop-color="#B78356" stop-opacity="0"/>
  <stop offset=".539" stop-color="#C8854B" stop-opacity=".502"/>
  <stop offset="1" stop-color="#DA8840"/>
 </linearGradient>
 <path fill="url(#t)" d="M67.126 126.68l.14-11.99c1.781-.481 24.923-.662 33.145 0l-.141 11.99H67.126z"/>
 <path fill="none" stroke-width="1.639" stroke-linecap="round" stroke-linejoin="round" stroke="#82562F" d="M67.267 114.69c1.78-.481 24.522-.662 32.744 0"/>
 <radialGradient id="u" cx="50.546" cy="115.499" r="12.833" gradientUnits="userSpaceOnUse" gradientTransform="rotate(90 50.546 115.5)">
  <stop offset="0" stop-color="#FFF1B3" stop-opacity=".369"/>
  <stop offset=".996" stop-color="#FFF1B3" stop-opacity="0"/>
 </radialGradient>
 <ellipse fill="url(#u)" cx="50.546" cy="115.499" rx="12.833" ry="1.625"/>
 <radialGradient id="v" cx="83.337" cy="102.833" r="12.833" gradientUnits="userSpaceOnUse" gradientTransform="rotate(90 83.337 102.833)">
  <stop offset="0" stop-color="#FFF1B3" stop-opacity=".369"/>
  <stop offset=".996" stop-color="#FFF1B3" stop-opacity="0"/>
 </radialGradient>
 <ellipse fill="url(#v)" cx="83.337" cy="102.833" rx="12.833" ry="1.625"/>
 <radialGradient id="w" cx="17.504" cy="92.499" r="12.833" gradientUnits="userSpaceOnUse" gradientTransform="rotate(90 17.504 92.5)">
  <stop offset="0" stop-color="#FFF1B3" stop-opacity=".369"/>
  <stop offset=".996" stop-color="#FFF1B3" stop-opacity="0"/>
 </radialGradient>
 <path fill="url(#w)" d="M30.337 92.5c0 .897-5.745 1.624-12.833 1.624S4.671 93.397 4.671 92.5c0-.897 5.745-1.624 12.833-1.624s12.833.727 12.833 1.624z"/>
 <path fill-opacity=".09" d="M100.504 138.833a3 3 0 01-3 3h-94a3 3 0 110-6h94a3 3 0 013 3z"/>
 <defs>
  <path id="x" d="M100.504 93.5l-2.056-2.178L.504 130.499v40h100v-77z"/>
 </defs>
 <clipPath id="y">
  <use xlink:href="#x" overflow="visible"/>
 </clipPath>
 <g clip-path="url(#y)">
  <linearGradient id="z" gradientUnits="objectBoundingBox" x1=".599" y1=".154" x2="1.497" y2=".154" gradientTransform="rotate(109.047 .6 .154)">
   <stop offset="0" stop-color="#B06722" stop-opacity=".867"/>
   <stop offset="1"/>
  </linearGradient>
  <path fill="#AF641F" stroke-linejoin="round" stroke="url(#z)" d="M5.504 50.5l90 35c1.139.36 5 2.238 5 5v74.499a5 5 0 01-5 5h-90a5 5 0 01-5-5v-109.5a5 5 0 015-5z"/>
  <linearGradient id="A" gradientUnits="objectBoundingBox" x1=".911" y1=".65" x2="2.037" y2=".65" gradientTransform="rotate(-90 .911 .65)">
   <stop offset=".453" stop-color="#7A7A7A" stop-opacity=".325"/>
   <stop offset=".831" stop-color="#A4A4A4" stop-opacity=".165"/>
   <stop offset="1" stop-color="#CECECE" stop-opacity="0"/>
  </linearGradient>
  <path fill="url(#A)" d="M99.093 88.388a1 1 0 011 1v76.334c0 .552-2 .552-11.922-4.112 3.722-.388 9.922 2.143 9.922-8.222v-64a1 1 0 011-1z"/>
  <linearGradient id="B" gradientUnits="objectBoundingBox" x1=".052" y1=".999" x2="1.058" y2=".999" gradientTransform="rotate(-49.195 .052 .999)">
   <stop offset=".827" stop-color="#7F5E41"/>
   <stop offset=".947" stop-color="#97612F" stop-opacity=".502"/>
   <stop offset="1" stop-color="#AF641E" stop-opacity="0"/>
  </linearGradient>
  <path fill="url(#B)" d="M4.754 131.811l90.334 25.688a5 5 0 014.999 5v2.167a5 5 0 01-5 5H5.922a5 5 0 01-5-5v-32.167c0-2.761 1.072-.688 3.833-.688z"/>
  <linearGradient id="C" gradientUnits="objectBoundingBox" x1=".615" y1=".119" x2="1.403" y2=".119" gradientTransform="rotate(96.222 .615 .12)">
   <stop offset="0" stop-color="#B78356"/>
   <stop offset=".075" stop-color="#BB884E"/>
   <stop offset=".272" stop-color="#BF8D46"/>
   <stop offset="1" stop-color="#B32E04"/>
  </linearGradient>
  <path fill="url(#C)" d="M67.746 75.5l31.632 6.218c1.269 1.726 1.744 21.059 0 27.559l-31.632-6.219V75.499z"/>
  <linearGradient id="D" gradientUnits="objectBoundingBox" x1=".965" y1=".512" x2="1.933" y2=".512" gradientTransform="rotate(180 .965 .512)">
   <stop offset="0" stop-color="#B78356" stop-opacity="0"/>
   <stop offset=".539" stop-color="#B3733B" stop-opacity=".502"/>
   <stop offset="1" stop-color="#B06421"/>
  </linearGradient>
  <path fill="url(#D)" d="M67.746 75.5l31.632 6.218c1.269 1.726 1.744 21.059 0 27.559l-31.632-6.219V75.499z"/>
  <path fill="none" stroke-linecap="round" stroke-linejoin="round" stroke="#624225" d="M99.378 81.718c1.269 1.726 1.744 21.059 0 27.559"/>
  <linearGradient id="E" gradientUnits="objectBoundingBox" x1=".615" y1=".119" x2="1.403" y2=".119" gradientTransform="rotate(96.222 .615 .12)">
   <stop offset="0" stop-color="#B78356"/>
   <stop offset=".075" stop-color="#BB804E"/>
   <stop offset=".272" stop-color="#BF7E46"/>
   <stop offset="1" stop-color="#904604"/>
  </linearGradient>
  <path fill="url(#E)" d="M36.923 63.5l31.632 6.218c1.268 1.726 1.744 21.059 0 27.559l-31.632-6.219V63.5z"/>
  <linearGradient id="F" gradientUnits="objectBoundingBox" x1=".965" y1=".512" x2="1.933" y2=".512" gradientTransform="rotate(180 .965 .512)">
   <stop offset="0" stop-color="#B78356" stop-opacity="0"/>
   <stop offset=".539" stop-color="#AD7748" stop-opacity=".502"/>
   <stop offset="1" stop-color="#A46C3B"/>
  </linearGradient>
  <path fill="url(#F)" d="M36.923 63.5l31.632 6.218c1.268 1.726 1.744 21.059 0 27.559l-31.632-6.219V63.5z"/>
  <path fill="none" stroke-linecap="round" stroke-linejoin="round" stroke="#624225" d="M68.555 69.718c1.268 1.726 1.744 21.059 0 27.559"/>
  <linearGradient id="G" gradientUnits="objectBoundingBox" x1=".615" y1=".119" x2="1.403" y2=".119" gradientTransform="rotate(96.222 .615 .12)">
   <stop offset="0" stop-color="#B78356"/>
   <stop offset=".075" stop-color="#BB804E"/>
   <stop offset=".272" stop-color="#BF7E46"/>
   <stop offset="1" stop-color="#904604"/>
  </linearGradient>
  <path fill="url(#G)" d="M67.746 101.632l31.632 6.219c1.269 1.725 1.744 21.059 0 27.559l-31.632-6.219v-27.559z"/>
  <linearGradient id="H" gradientUnits="objectBoundingBox" x1=".965" y1=".512" x2="1.933" y2=".512" gradientTransform="rotate(180 .965 .512)">
   <stop offset="0" stop-color="#B78356" stop-opacity="0"/>
   <stop offset=".539" stop-color="#B3733B" stop-opacity=".502"/>
   <stop offset="1" stop-color="#B06421"/>
  </linearGradient>
  <path fill="url(#H)" d="M67.746 101.632l31.632 6.219c1.269 1.725 1.744 21.059 0 27.559l-31.632-6.219v-27.559z"/>
  <path fill="none" stroke-linecap="round" stroke-linejoin="round" stroke="#624225" d="M99.378 107.851c1.269 1.725 1.744 21.059 0 27.559"/>
  <linearGradient id="I" gradientUnits="objectBoundingBox" x1=".615" y1=".119" x2="1.403" y2=".119" gradientTransform="rotate(96.222 .615 .12)">
   <stop offset="0" stop-color="#B78356"/>
   <stop offset=".075" stop-color="#C68650"/>
   <stop offset=".272" stop-color="#D58A4A"/>
   <stop offset="1" stop-color="#73550D"/>
  </linearGradient>
  <path fill="url(#I)" d="M36.923 89.632l31.632 6.219c1.268 1.725 1.744 21.059 0 27.559l-31.632-6.219v-27.56z"/>
  <linearGradient id="J" gradientUnits="objectBoundingBox" x1=".965" y1=".512" x2="1.933" y2=".512" gradientTransform="rotate(180 .965 .512)">
   <stop offset="0" stop-color="#B78356" stop-opacity="0"/>
   <stop offset=".539" stop-color="#AC703C" stop-opacity=".502"/>
   <stop offset="1" stop-color="#A15D22"/>
  </linearGradient>
  <path fill="url(#J)" d="M36.923 89.632l31.632 6.219c1.268 1.725 1.744 21.059 0 27.559l-31.632-6.219v-27.56z"/>
  <path fill="none" stroke-linecap="round" stroke-linejoin="round" stroke="#624225" d="M68.555 95.85c1.268 1.726 1.744 21.06 0 27.56"/>
  <linearGradient id="K" gradientUnits="objectBoundingBox" x1=".615" y1=".114" x2="1.37" y2=".114" gradientTransform="rotate(95.96 .615 .114)">
   <stop offset="0" stop-color="#B78356"/>
   <stop offset=".075" stop-color="#BB804E"/>
   <stop offset=".272" stop-color="#BF7E46"/>
   <stop offset="1" stop-color="#904604"/>
  </linearGradient>
  <path fill="url(#K)" d="M67.746 127.854l31.632 6.219c1.269 1.726 1.744 22.558 0 29.058l-31.632-6.218v-29.059z"/>
  <linearGradient id="L" gradientUnits="objectBoundingBox" x1=".965" y1=".486" x2="1.933" y2=".486" gradientTransform="rotate(180 .965 .486)">
   <stop offset="0" stop-color="#B78356" stop-opacity="0"/>
   <stop offset=".539" stop-color="#A87548" stop-opacity=".502"/>
   <stop offset="1" stop-color="#9A683B"/>
  </linearGradient>
  <path fill="url(#L)" d="M67.746 127.854l31.632 6.219c1.269 1.726 1.744 22.859 0 29.359l-31.632-7.219v-28.359z"/>
  <path fill="none" stroke-linecap="round" stroke-linejoin="round" stroke="#624225" d="M99.378 134.073c1.269 1.726 1.744 23.059 0 29.559"/>
  <linearGradient id="M" gradientUnits="objectBoundingBox" x1=".619" y1=".111" x2="1.351" y2=".111" gradientTransform="rotate(95.726 .62 .11)">
   <stop offset="0" stop-color="#B78356"/>
   <stop offset=".075" stop-color="#BB804E"/>
   <stop offset=".272" stop-color="#BF7E46"/>
   <stop offset="1" stop-color="#904604"/>
  </linearGradient>
  <path fill="url(#M)" d="M36.923 115.854l31.632 6.219c1.268 1.726 1.231 23.726-.513 30.226l-31.12-7.087v-29.358z"/>
  <linearGradient id="N" gradientUnits="objectBoundingBox" x1=".973" y1=".475" x2="1.948" y2=".475" gradientTransform="rotate(180 .973 .475)">
   <stop offset="0" stop-color="#B78356" stop-opacity="0"/>
   <stop offset=".539" stop-color="#B3733B" stop-opacity=".502"/>
   <stop offset="1" stop-color="#B06421"/>
  </linearGradient>
  <path fill="url(#N)" d="M36.923 115.854l31.632 6.219c1.268 1.726 1.231 23.626-.513 30.126l-31.12-7.086v-29.259z"/>
  <path fill="none" stroke-linecap="round" stroke-linejoin="round" stroke="#624225" d="M68.555 122.073c1.268 1.726 1.744 21.059 0 27.559"/>
  <path fill="#624224" d="M37.004 145.233l1.195-6.111s-2.5-2.25-3.417 8c-.14 1.573 33.177 8.184 33.177 8.184l.583-3.107-31.538-6.966z"/>
  <path fill="#624224" fill-opacity=".416" d="M6.337 132.027l-5.833-1.194v4.478c0 1.579 35.445 9.917 35.445 9.917l1.777-7.972-31.389-5.229z"/>
  <path fill="#624224" fill-opacity=".416" d="M37.004 145.867l.056-6.556s-1.028-3-1.945 7.25c-.14 1.573 32.084 9.833 32.084 9.833l1.95-5.161-32.145-5.366z"/>
  <path fill="#624224" d="M68.36 157.302l.194-6.911s-1.5-2.25-2.417 8c-.14 1.573 33.434 8.717 33.434 8.717l.933-3.34-32.145-6.466z"/>
  <path fill-opacity=".251" d="M70.31 75.444a3 3 0 013 3v75.222a3 3 0 11-6 0V78.445a3 3 0 013-3z"/>
  <path fill="#624224" fill-opacity=".416" d="M68.36 157.135l.2-6.268s-1.278-3.723-2.195 6.527c-.14 1.573 32.084 9.75 32.084 9.75l2.055-4.643-32.145-5.366z"/>
  <linearGradient id="O" gradientUnits="objectBoundingBox" x1=".615" y1=".119" x2="1.403" y2=".119" gradientTransform="rotate(96.222 .615 .12)">
   <stop offset="0" stop-color="#B78356"/>
   <stop offset=".075" stop-color="#BB804E"/>
   <stop offset=".272" stop-color="#BF7E46"/>
   <stop offset="1" stop-color="#844B19"/>
  </linearGradient>
  <path fill="url(#O)" d="M6.063 51.5l31.633 6.218c1.268 1.726 1.744 21.059 0 27.559L6.063 79.058V51.5z"/>
  <linearGradient id="P" gradientUnits="objectBoundingBox" x1=".965" y1=".512" x2="1.933" y2=".512" gradientTransform="rotate(180 .965 .512)">
   <stop offset="0" stop-color="#B78356" stop-opacity="0"/>
   <stop offset=".539" stop-color="#B3733B" stop-opacity=".502"/>
   <stop offset="1" stop-color="#B06421"/>
  </linearGradient>
  <path fill="url(#P)" d="M6.063 51.5l31.633 6.218c1.268 1.726 1.744 21.059 0 27.559L6.063 79.058V51.5z"/>
  <path fill="none" stroke-linecap="round" stroke-linejoin="round" stroke="#624225" d="M37.696 57.718c1.268 1.726 1.744 21.059 0 27.559"/>
  <linearGradient id="Q" gradientUnits="objectBoundingBox" x1=".615" y1=".119" x2="1.403" y2=".119" gradientTransform="rotate(96.222 .615 .12)">
   <stop offset="0" stop-color="#B78356"/>
   <stop offset=".075" stop-color="#BB804E"/>
   <stop offset=".272" stop-color="#BF7E46"/>
   <stop offset="1" stop-color="#904604"/>
  </linearGradient>
  <path fill="url(#Q)" d="M6.063 77.632l31.633 6.219c1.268 1.725 1.744 21.059 0 27.559l-31.633-6.219v-27.56z"/>
  <linearGradient id="R" gradientUnits="objectBoundingBox" x1=".965" y1=".526" x2="1.934" y2=".526" gradientTransform="rotate(180 .965 .526)">
   <stop offset="0" stop-color="#B78356" stop-opacity="0"/>
   <stop offset=".539" stop-color="#B3733B" stop-opacity=".502"/>
   <stop offset="1" stop-color="#B06421"/>
  </linearGradient>
  <path fill="url(#R)" d="M.504 76.539l37 7.274c1.483 1.768 2.04 21.117 0 27.559l-37-7.274v-27.56z"/>
  <path fill="none" stroke-linecap="round" stroke-linejoin="round" stroke="#624225" d="M37.696 83.85c1.268 1.726 1.744 21.06 0 27.56"/>
  <linearGradient id="S" gradientUnits="objectBoundingBox" x1=".622" y1=".11" x2="1.35" y2=".11" gradientTransform="rotate(95.667 .622 .11)">
   <stop offset="0" stop-color="#B78356"/>
   <stop offset=".075" stop-color="#BB804E"/>
   <stop offset=".272" stop-color="#BF7E46"/>
   <stop offset="1" stop-color="#A05B1D"/>
  </linearGradient>
  <path fill="url(#S)" d="M6.063 103.854l31.633 6.219c1.268 1.726.816 23.926-.929 30.426l-30.704-9.086v-27.559z"/>
  <path fill="none" stroke-linecap="round" stroke-linejoin="round" stroke="#624225" d="M37.696 110.073c1.268 1.726 1.744 22.359 0 28.859"/>
  <path fill="#624224" d="M6.323 132.44l-5.819-1.941v2.701c0 1.579 36.538 8.573 36.538 8.573l.337-2.778-31.056-6.555z"/>
  <path fill-opacity=".251" d="M39.504 63.389a3 3 0 013 3v77.222a3 3 0 01-3 3v-1c-1.657 0-3-.343-3-2V66.389a3 3 0 013-3z"/>
 </g>
 <path fill-opacity=".188" d="M60.894 102.162l4.434-3.857L88.17 87.666c14.38 1.161 11.768 12.874 12.333 18.306-3.257 1.277-18.761 5.873-25 8.139l-14.61-11.949z"/>
 <linearGradient id="U" gradientUnits="objectBoundingBox" x1="1.66" y1=".206" x2="2.329" y2=".206" gradientTransform="rotate(238.636 1.66 .206)">
  <stop offset=".284" stop-color="#5D340D"/>
  <stop offset=".779" stop-color="#864D17" stop-opacity=".933"/>
  <stop offset="1" stop-color="#B06722" stop-opacity=".867"/>
 </linearGradient>
 <linearGradient id="T" gradientUnits="objectBoundingBox" x1="1.691" y1=".193" x2="2.387" y2=".193" gradientTransform="rotate(238.179 1.69 .193)">
  <stop offset="0" stop-color="#90633A"/>
  <stop offset=".361" stop-color="#9C5F25"/>
  <stop offset=".521" stop-color="#A95B11"/>
  <stop offset="1" stop-color="#BC7F4B"/>
 </linearGradient>
 <path fill="url(#T)" stroke-width="1.152" stroke-linejoin="round" stroke="url(#U)" d="M57.661 100.505l.043 7.483 1.814 2.142 14.222 3 26.572-9.925c-.198-4.409 1.475-7.873-2.35-12.02-3.824-4.147-9.555-3.61-10.723-2.996l-29.578 12.316z"/>
 <linearGradient id="W" gradientUnits="objectBoundingBox" x1="2.981" y1="-.958" x2="6.478" y2="-.958" gradientTransform="rotate(144.905 2.981 -.958)">
  <stop offset="0" stop-color="#B06722" stop-opacity=".122"/>
  <stop offset="1" stop-color="#5D340D" stop-opacity=".141"/>
 </linearGradient>
 <linearGradient id="V" gradientUnits="objectBoundingBox" x1="3.048" y1="-1.025" x2="6.657" y2="-1.025" gradientTransform="rotate(145.392 3.048 -1.025)">
  <stop offset="0" stop-opacity=".067"/>
  <stop offset="1" stop-color="#FFF" stop-opacity=".141"/>
 </linearGradient>
 <path fill="url(#V)" stroke-width="1.152" stroke-linejoin="round" stroke="url(#W)" d="M57.911 100.505l-.207 7.483 2.036 2.364 13.889 2.556 26.683-9.703c-1.86-4.186-.073-9.222-4.739-13.034-4.665-3.812-7.389-1.986-8.334-1.982l-29.328 12.316z"/>
 <path fill-opacity=".188" d="M34.783 112.496l4.239-4.635 23.038-9.862c14.38 1.162 17.88 11.124 18.444 16.556-3.257 1.277-24.872 7.623-31.111 9.889l-14.61-11.948z"/>
 <linearGradient id="Y" gradientUnits="objectBoundingBox" x1="1.548" y1=".234" x2="2.187" y2=".234" gradientTransform="rotate(237.774 1.548 .234)">
  <stop offset=".284" stop-color="#5D340D"/>
  <stop offset=".779" stop-color="#864D17" stop-opacity=".933"/>
  <stop offset="1" stop-color="#B06722" stop-opacity=".867"/>
 </linearGradient>
 <linearGradient id="X" gradientUnits="objectBoundingBox" x1="1.574" y1=".222" x2="2.237" y2=".222" gradientTransform="rotate(237.305 1.574 .222)">
  <stop offset="0" stop-color="#90633A"/>
  <stop offset=".361" stop-color="#9C5F25"/>
  <stop offset=".521" stop-color="#A95B11"/>
  <stop offset="1" stop-color="#BC7F4B"/>
 </linearGradient>
 <path fill="url(#X)" stroke-width="1.152" stroke-linejoin="round" stroke="url(#Y)" d="M31.911 110.505l-.318 7.816 1.814 2.142 14.222 3L77.6 112.539c-.198-4.409-1.925-6.873-5.75-11.02-3.824-4.147-10.18-4.795-11.347-4.18L31.91 110.505z"/>
 <linearGradient id="aa" gradientUnits="objectBoundingBox" x1="2.766" y1="-.914" x2="6.058" y2="-.914" gradientTransform="rotate(146.294 2.766 -.914)">
  <stop offset="0" stop-color="#B06722" stop-opacity=".122"/>
  <stop offset="1" stop-color="#5D340D" stop-opacity=".141"/>
 </linearGradient>
 <linearGradient id="Z" gradientUnits="objectBoundingBox" x1="2.823" y1="-.977" x2="6.216" y2="-.977" gradientTransform="rotate(146.794 2.823 -.977)">
  <stop offset="0" stop-opacity=".067"/>
  <stop offset="1" stop-color="#FFF" stop-opacity=".141"/>
 </linearGradient>
 <path fill="url(#Z)" stroke-width="1.152" stroke-linejoin="round" stroke="url(#aa)" d="M31.911 110.505l-.318 7.816 2.036 2.364 13.889 2.556L77.6 112.539c-1.861-4.187-3.474-8.222-8.139-12.034-4.665-3.812-8.013-2.948-8.958-2.944L31.91 110.505z"/>
 <path fill-opacity=".188" d="M3.885 124.496l3.804-3.997 23.472-10.5c14.38 1.162 17.88 11.124 18.444 16.556-3.256 1.277-24.872 7.623-31.11 9.889l-14.61-11.948z"/>
 <linearGradient id="ac" gradientUnits="objectBoundingBox" x1="1.545" y1=".236" x2="2.168" y2=".236" gradientTransform="rotate(238.63 1.545 .236)">
  <stop offset=".284" stop-color="#5D340D"/>
  <stop offset=".779" stop-color="#864D17" stop-opacity=".933"/>
  <stop offset="1" stop-color="#B06722" stop-opacity=".867"/>
 </linearGradient>
 <linearGradient id="ab" gradientUnits="objectBoundingBox" x1="1.572" y1=".225" x2="2.216" y2=".225" gradientTransform="rotate(238.206 1.572 .225)">
  <stop offset="0" stop-color="#90633A"/>
  <stop offset=".361" stop-color="#9C5F25"/>
  <stop offset=".521" stop-color="#A95B11"/>
  <stop offset="1" stop-color="#BC7F4B"/>
 </linearGradient>
 <path fill="url(#ab)" stroke-width="1.152" stroke-linejoin="round" stroke="url(#ac)" d="M.504 121.866l.19 8.455 1.814 2.142c3.481 3.668 7.996 4.585 14.222 3 2.259-.415 19.982-7.283 29.972-10.924-.198-4.409-1.925-6.873-5.75-11.02-3.824-4.147-9.28-5.129-10.448-4.514l-30 12.861z"/>
 <linearGradient id="ae" gradientUnits="objectBoundingBox" x1="2.759" y1="-.863" x2="6.003" y2="-.863" gradientTransform="rotate(145.285 2.76 -.863)">
  <stop offset="0" stop-color="#B06722" stop-opacity=".122"/>
  <stop offset="1" stop-color="#5D340D" stop-opacity=".141"/>
 </linearGradient>
 <linearGradient id="ad" gradientUnits="objectBoundingBox" x1="2.815" y1="-.922" x2="6.156" y2="-.922" gradientTransform="rotate(145.747 2.815 -.922)">
  <stop offset="0" stop-opacity=".067"/>
  <stop offset="1" stop-color="#FFF" stop-opacity=".141"/>
 </linearGradient>
 <path fill="url(#ad)" stroke-width="1.152" stroke-linejoin="round" stroke="url(#ae)" d="M.504 121.977l.19 8.344 2.036 2.364c1.176 1.446 5.926 4.863 13.89 2.556 1.953-.61 20.054-7.135 30.082-10.702-1.86-4.187-3.473-8.222-8.139-12.034-4.665-3.812-7.114-3.392-8.059-3.389l-30 12.861z"/>
</svg>
